<svg xmlns="http://www.w3.org/2000/svg" xmlns:xlink="http://www.w3.org/1999/xlink" width="971.162" height="501.403" viewBox="0 0 971.162 501.403"><defs><clipPath id="a"><path d="M628,79H821.714V274.737H628Zm0,0" transform="translate(-628 -79)"/></clipPath><clipPath id="b"><path d="M490.6,79H680.773V274.737H490.6Zm0,0" transform="translate(-490.598 -79)"/></clipPath><clipPath id="c"><path d="M505,63.5h747.439V269.443H505Zm0,0" transform="translate(-505 -63.496)"/></clipPath><clipPath id="d"><path d="M484,61h81.354v71.185H484Zm0,0" transform="translate(-484 -61)"/></clipPath><clipPath id="e"><path d="M475.145,159.893,582.99,52.023l64.732,64.73L539.852,224.6Zm0,0" transform="translate(-475.145 -52.023)"/></clipPath><clipPath id="f"><path d="M582.854,52.164,475,160.033l64.707,64.71,107.87-107.85Zm0,0" transform="translate(-475.004 -52.164)"/></clipPath><clipPath id="g"><path d="M497,58h40.677v66.1H497Zm0,0" transform="translate(-497 -58)"/></clipPath><clipPath id="j"><path d="M483,74h71.185v50.846H483Zm0,0" transform="translate(-483 -74)"/></clipPath><clipPath id="m"><path d="M659,63h76.269v55.931H659Zm0,0" transform="translate(-659 -63)"/></clipPath><clipPath id="n"><path d="M715.853,213.909,652.438,92.156l74.418-38.75,63.42,121.753Zm0,0" transform="translate(-652.438 -53.406)"/></clipPath><clipPath id="o"><path d="M790.279,175.147,726.864,53.395l-74.4,38.75L715.882,213.9Zm0,0" transform="translate(-652.461 -53.395)"/></clipPath><clipPath id="p"><path d="M661,75h61.015v35.592H661Zm0,0" transform="translate(-661 -75)"/></clipPath><clipPath id="s"><path d="M655,58h35.592v66.1H655Zm0,0" transform="translate(-655 -58)"/></clipPath><clipPath id="v"><path d="M559,99H792.892V312.554H559Zm0,0" transform="translate(-559 -99)"/></clipPath><clipPath id="w"><path d="M670.051,86.672,830.115,167.33,713.408,398.9,553.344,318.241Zm0,0" transform="translate(-553.344 -86.672)"/></clipPath></defs><g transform="translate(-764.2 -216.852)"><path d="M501.961,87.086,511.81,70.4,563.5,100.87l-9.834,16.664Zm0,0" transform="translate(358.648 288.89)" fill="#ff917b"/><path d="M535.7,89.526l-.615-19.345,59.963-1.907.615,19.365Zm0,0" transform="translate(493.935 280.195)" fill="#59efe8"/><path d="M573.974,129.25l-12.513-14.777,45.8-38.75L619.777,90.5Zm0,0" transform="translate(601.683 310.622)" fill="#ff917b"/><path d="M657.024,139.33l-18.61,5.383-16.7-57.6,18.609-5.383Zm0,0" transform="translate(847.781 335.162)" fill="#59efe8"/><g transform="translate(1501.47 403.009)" clip-path="url(#a)"><path d="M817.87,130.556A1169.013,1169.013,0,0,0,667.457,79.988q-19.281,73.35-38.516,146.7A1018.7,1018.7,0,0,1,759.773,270.66q-.206-41.109-2.781-82.645Q786.394,158.612,817.87,130.556Zm0,0" transform="translate(-624.157 -74.963)" fill="#d88b53"/></g><g transform="translate(802.833 403.009)" clip-path="url(#b)"><path d="M490.6,130.556A1167.152,1167.152,0,0,1,640.991,79.988q19.273,73.35,38.511,146.7A1018.433,1018.433,0,0,0,548.69,270.66q.214-41.109,2.761-82.645Q522.079,158.612,490.6,130.556Zm0,0" transform="translate(-490.598 -74.963)" fill="#d88b53"/></g><path d="M628.941,143.433q33.07-14.361,68.19-26.455-28.272-9.122-56.886-16.606Q634.585,121.879,628.941,143.433Zm0,0" transform="translate(877.313 411.301)" fill="#ab6737"/><path d="M582.545,143.433q-33.07-14.361-68.205-26.455,28.273-9.122,56.881-16.606Q576.889,121.879,582.545,143.433Zm0,0" transform="translate(409.212 411.301)" fill="#ab6737"/><g transform="translate(876.062 324.177)" clip-path="url(#c)"><path d="M505.086,122.1q23.353,72.158,46.677,144.336a1060.734,1060.734,0,0,1,651.645-.02q23.323-72.157,46.672-144.315A1213.168,1213.168,0,0,0,505.086,122.1Zm0,0" transform="translate(-504.649 -63.472)" fill="#d0732f"/></g><g transform="translate(769.285 311.485)" clip-path="url(#d)"><g transform="translate(-45.024 -45.643)" clip-path="url(#e)"><g transform="translate(-0.717 0.715)" clip-path="url(#f)"><path d="M508.122,113.382c-13.962-2.2-24.823-18.491-23.872-28.839,1.531-16.585,12.971-23.754,24.528-22.92,21.137,1.529,43.834,35.989,51.782,66.319-23.755-18.849-19.682-7.647-52.437-14.559" transform="translate(-437.476 -13.796)" fill="#959f62"/></g></g></g><g transform="translate(835.385 296.232)" clip-path="url(#g)"><g transform="translate(-111.124 -30.389)" clip-path="url(#e)"><g transform="translate(-0.717 0.715)" clip-path="url(#f)"><path d="M521.494,122.157c-.437-15.135-19.561-18.173-23.933-40.836-1.729-18.67,23.257-33.487,33.193-13.168,5.918,12.116-4.414,44.331-9.259,54" transform="translate(-383.218 -26.761)" fill="#959f62"/></g></g></g><g transform="translate(764.2 377.586)" clip-path="url(#j)"><g transform="translate(-39.94 -111.743)" clip-path="url(#e)"><g transform="translate(-0.717 0.715)" clip-path="url(#f)"><path d="M518.86,104.46c-6.93,6.753-15.788,14.7-25.2,13.288-6.991-1.013-10.942-6.614-9.732-15.135,3.178-22.364,23.776-30.269,40-26.953,5.242,1.053,17.044,4.688,22.586,11.6-8.959-3.377-22.169,11.857-27.65,17.2" transform="translate(-439.454 40.848)" fill="#959f62"/></g></g></g><g transform="translate(1659.093 321.655)" clip-path="url(#m)"><g transform="translate(-33.365 -48.78)" clip-path="url(#n)"><g transform="translate(0.117 -0.06)" clip-path="url(#o)"><path d="M686.588,77.149c5.843-11.48,23.043-16.525,31.764-12.97,13.983,5.72,16.978,17.5,13.027,27.27-7.271,17.836-43.6,28.323-72.156,27.132,23.038-15.532,12.173-14.956,27.365-41.432" transform="translate(-624.841 -13.928)" fill="#959f62"/></g></g></g><g transform="translate(1669.262 382.67)" clip-path="url(#p)"><g transform="translate(-43.535 -109.796)" clip-path="url(#n)"><g transform="translate(0.117 -0.06)" clip-path="url(#o)"><path d="M661.586,85.643c13.266,3.634,21.289-12.1,42.207-9.871,16.7,3.476,22.56,28.978,2.125,32.176-12.2,1.887-37.3-15.572-44.333-22.3" transform="translate(-615.189 37.123)" fill="#959f62"/></g></g></g><g transform="translate(1638.754 296.232)" clip-path="url(#s)"><g transform="translate(-13.027 -23.357)" clip-path="url(#n)"><g transform="translate(0.117 -0.06)" clip-path="url(#o)"><path d="M661.114,90.078c-3.935-7.766-8.344-17.518-4.49-25.284,2.858-5.78,8.837-7.706,15.889-4.409,18.528,8.679,19.622,28.561,12.173,41.71-2.385,4.23-8.837,13.466-16.4,16.425,5.441-6.832-4.093-22.285-7.169-28.442" transform="translate(-641.528 -31.406)" fill="#959f62"/></g></g></g><g transform="translate(1150.631 504.701)" clip-path="url(#v)"><g transform="translate(-28.759 -62.684)" clip-path="url(#w)"><g clip-path="url(#w)"><path d="M591.047,206.6c2.481-1.764,4.464-3.534,6.773-4.688,2.222-1.073,4.724-2.125,7.088-2.105,6.91.142,10.449,5.979,7.47,12.254a30.017,30.017,0,0,1-4.866,7.647c-10.387,11.044-22.565,19.566-37.041,24.411-7.114,2.4-10.983-.315-10.887-7.922a175.2,175.2,0,0,1,5.8-41.257c.971-3.814,3.157-7.408,5.3-10.764,2.359-3.7,5.776-6.417,10.607-5.522,5,.976,8.2,4.332,9.473,9.157a38.3,38.3,0,0,1,1.012,9.574C591.9,200.205,591.362,203.149,591.047,206.6Zm13.144,3.137-.691-.91c-1.49.91-2.939,1.907-4.469,2.878-3.335,2.186-6.437,5.186-11.023,3.315-.26-.117-.738.219-1.093.28-1.332.239-3.437,1.114-3.951.595a6.252,6.252,0,0,1-1.114-4.286c.2-5.247.854-10.449.991-15.711a16.375,16.375,0,0,0-.991-5.9c-.854-2.364-2.6-2.6-3.971-.519-1.769,2.761-3.635,5.68-4.449,8.817a147.964,147.964,0,0,0-3.656,18.732c-.7,5.7-.575,11.542-.834,17.776C583.2,229,595.278,221.6,604.191,209.739Zm54.822,71.8c2.262,1.612,4.907,3,6.93,4.927,4.23,4.052,3.991,8.761-.534,12.513a37.648,37.648,0,0,1-16.708,8.242,112.127,112.127,0,0,1-35.511.895c-5.461-.717-7.886-5.583-4.765-10.388a309.783,309.783,0,0,1,19.266-26.755c5.441-6.63,11.059-13.464,18.788-17.852a67.368,67.368,0,0,1,7.109-3.935c6.915-3.02,13.072.142,14.837,7.469,1.292,5.542-.254,10.668-3.015,15.391C663.5,275.443,661.1,278.544,659.013,281.539ZM659.908,293c-3.04-.951-5.324-1.525-7.551-2.324-5.98-2.125-7.012-6.035-3.056-10.744a41.007,41.007,0,0,0,5.319-6.971,66.988,66.988,0,0,0,5.3-12.432c.915-3.341-.93-4.51-3.813-2.741-4.108,2.542-8.461,4.983-11.755,8.339-6.9,7.19-13.307,14.837-19.7,22.545-2.8,3.417-5,7.388-7.886,11.72C632,301.186,646.282,302.335,659.908,293Zm10.286-111.084c2.425-.259,4.586-.976,6.574-.595a23.083,23.083,0,0,1,8.659,2.939c4.114,2.639,4.51,7.286,1.353,11.023a52.486,52.486,0,0,1-7.906,7.922c-11.222,8.8-23.217,16.067-37.779,17.994-4.668.615-7.8-1.546-7.962-6.315a33.434,33.434,0,0,1,1.149-10.169c3.895-13.088,9.355-25.443,17.679-36.365a32.223,32.223,0,0,1,7.129-6.5c5.8-3.89,11.918-.869,12.218,6.157.178,3.813-.518,7.647-.854,11.461C670.372,180.269,670.291,180.94,670.195,181.916ZM678,192.6l-.5-1.408c-3.035.915-6.076,1.769-9.076,2.761-2.2.7-4.307,1.8-6.513,2.364a6.259,6.259,0,0,1-6.813-2.9c-1.546-2.263-.239-4.108,1.292-5.974a19.848,19.848,0,0,0,4.312-14.3c-9.1,11.323-14.38,24.33-18.355,39.111C656.73,208.768,668.349,202.473,678,192.6Zm69.217-9.295c3.539,1.393,7.49,2.425,10.948,4.352,5.359,3.1,6.076,9.056,1.429,13.2a21.164,21.164,0,0,1-9.117,4.846c-7.764,1.688-15.732,2.507-23.6,3.615a25.278,25.278,0,0,1-3.035.142c-7.469-.3-10.169-4.729-6.335-11.166,4.266-7.225,8.618-14.435,13.525-21.152,2.817-3.793,6.834-6.793,10.5-9.89,2.207-1.846,4.907-2.481,7.551-.636a6.178,6.178,0,0,1,2.283,7.327C750.277,177.248,748.487,180.406,747.216,183.3Zm-23.552,18.411c9.986-1.53,19.067-2.858,28.082-4.368,1.251-.2,2.324-1.449,3.534-2.207l-.219-.931a44.381,44.381,0,0,0-4.764-1.51c-2.863-.417-5.939-.158-8.68-.956-7.49-2.181-7.53-4.505-3.554-9.193.971-1.195,1.907-2.385,2.776-3.615.819-1.134,1.551-2.3,2.365-3.437l-.712-.5C733.991,181.972,729.481,191.785,723.664,201.716Zm44.45-91.681c3.035-1.429,5.741-2.959,8.639-4.012a7.146,7.146,0,0,1,7.927,2.207c1.826,2.6,1.012,5.085-.559,7.307a71.514,71.514,0,0,1-27.289,23.42c-5.385,2.619-9.2.315-10.251-5.624-1.648-9.315.081-18.35,3.142-27.091,1.846-5.3,5.359-7.588,9.335-7.071,4.683.636,7.942,4.072,8.817,9.456Zm8.024,3.793c-1.012.773-2.105,1.393-3.061,2.263-1.271,1.154-2.441,2.425-3.692,3.539-1.688,1.449-6.259,1.983-7.886.895-2.405-1.591-.936-3.737-.753-5.761a19.142,19.142,0,0,0-.081-5.7c-.158-.936-1.469-1.652-2.263-2.507-.656.7-1.652,1.236-1.927,2.049-2.446,6.869-4.195,13.9-3.595,21.269a24.526,24.526,0,0,0,.6,3.142C762.989,128.624,770.554,122.528,776.138,113.828Zm0,0" transform="translate(-527.866 -35.911)" fill="#e1ba44"/></g></g></g><g transform="translate(909.868 397.603)"><g transform="translate(0 0)"><g transform="translate(0 0)"><path d="M45.31,61.156l-4.37-19.782L27.435,45.584l4.37,19.7-8.9,2.781-4.37-19.7L6.222,52.178,3.68,44.154,16.709,40.1,12.578,20.478.1,24.371l-2.542-8.1,13.109-4.052L6.3-7.884l8.978-2.781,4.29,20.1L33,5.224l-4.29-20.1,8.978-2.781,4.211,20.18L54.288-1.369l2.542,8.1L43.8,10.786l4.211,19.623,12.314-3.893,2.543,8.024-13.03,4.131,4.37,19.7ZM21.556,17.7l4.131,19.623L39.113,33.19,34.982,13.567Zm0,0" transform="translate(2.438 17.656)" fill="#fff"/></g></g></g><g transform="translate(977.619 371.197)"><g transform="translate(0 0)"><g transform="translate(0 0)"><path d="M68.674,32.148l5.244,22.484Q64.146,65.357,46.906,69.409,29.745,73.46,17.51,64.96,5.355,56.379.429,35.167a54.794,54.794,0,0,1-1.509-17.4A38.207,38.207,0,0,1,2.495,4.023,38.44,38.44,0,0,1,9.645-6.225a44.971,44.971,0,0,1,21.292-11.2,57.467,57.467,0,0,1,24.867-.4L60.729,3.388,48.256,7.2l-2.3-9.692a5.038,5.038,0,0,0-1.192-2.622q-1.907-2.145-11.838.238Q8.85.786,15.842,30.559q7.3,31.461,29,26.376,8.58-1.966,12.473-6.117l-4.29-18.591h-.159l-9.613,1.907L40.709,23.568l30.985-7.309,2.383,9.931-2.86.953a5.268,5.268,0,0,0-2.463,1.827C68.317,29.606,68.3,30.678,68.674,32.148Zm0,0" transform="translate(1.253 18.996)" fill="#fff"/></g></g></g><g transform="translate(1059.086 358.139)"><g transform="translate(0 0)"><g transform="translate(0 0)"><path d="M7.217,58.238,18.657-3.889l-8.1.4L9.044-13.662l29-4.37L74.826,51.088h.159l7.23-.636L83.8,61.178,51.23,66.024,49.721,55.775l4.687-1.033a5.182,5.182,0,0,0,2.7-1.51c.476-.576.417-1.529-.159-2.86L53.058,42.9,23.424,47.433,21.358,59.192l7.627-.794,1.589,10.725L1.338,73.571-.172,63.323l4.052-.953C5.628,61.893,6.74,60.522,7.217,58.238ZM30.971-2.46l-6.2,37.817,23.516-3.575L31.369-2.539Zm0,0" transform="translate(0.172 18.031)" fill="#fff"/></g></g></g><g transform="translate(1138.808 349.827)"><g transform="translate(0 0)"><g transform="translate(0 0)"><path d="M-.219-14.59l35.99-2.542Q63.329-19.1,64.848,2.173q.864,11.768-10.407,18.67a22.117,22.117,0,0,1,12.314,6.2c3.118,3.178,4.866,7.508,5.244,12.95q.864,12.394-7.071,19.544Q57.063,66.625,41.094,67.8L5.263,70.339,4.548,60.011,8.679,59.3c2.483-.417,3.655-1.688,3.5-3.813L7.885-3.944.576-3.785ZM25.919,29.98l1.907,26.694L39.9,55.8q16.505-1.192,15.572-14.7Q55,34.667,50.548,31.569c-2.92-2.066-6.892-2.9-11.917-2.542ZM23.456-4.5l1.668,23.119,9.454-.715q7.925-.536,11.44-4.052c2.324-2.383,3.337-5.521,3.019-9.454q-.417-5.869-4.29-8.024-3.9-2.145-10.884-1.668Zm0,0" transform="translate(0.219 17.298)" fill="#fff"/></g></g></g><g transform="translate(1217.42 347.26)"><g transform="translate(0 0)"><g transform="translate(0 0)"><path d="M9.014,53.706,8.06-5.244.831-5.483.672-16.367l30.9-.477.159,10.328-4.211.476c-2.443.278-3.635,1.649-3.575,4.131l.953,58.95,7.23.318.159,10.884-30.9.477L1.228,58.393l4.211-.477A4.824,4.824,0,0,0,8.14,56.8C8.716,56.288,9.014,55.255,9.014,53.706Zm0,0" transform="translate(-0.672 16.844)" fill="#fff"/></g></g></g><g transform="translate(1255.052 347.007)"><g transform="translate(0 0)"><path d="M.859,68.321l.4-10.328,4.211-.238C7.95,57.6,9.241,56.463,9.36,54.338L11.505-5.168,4.2-5.8l.4-10.884,61.731,2.225L65.529,6.75l-12.95.476.159-5.085a5.558,5.558,0,0,0-.556-3.1c-.377-.636-1.39-.973-3.019-1.033L27-2.784,26.2,19.779l31.461,1.112L57.187,33.92,25.726,32.808l-.953,25.105,11.44.794-.4,10.884Zm0,0" transform="translate(-0.859 16.687)" fill="#fff"/></g></g><g transform="translate(1317.114 351.594)"><g transform="translate(0 0)"><g transform="translate(0 0)"><path d="M9.738,52.788,36.75-4.175,28.805-5.923l1.112-10.249,29.157,3.257,17.875,76.19h.159l7.15,1.192-1.192,10.8L50.256,71.7l1.112-10.249,4.926.079a5.041,5.041,0,0,0,2.939-.715c.576-.417.735-1.351.477-2.781l-1.748-8.183L28.17,46.591,23.165,57.317l7.548,1.271-1.192,10.8L.125,66.135,1.237,55.887l4.29.079C7.275,55.926,8.666,54.854,9.738,52.788ZM48.349.194,32.619,35.231l23.6,2.622L48.747.274Zm0,0" transform="translate(-0.125 16.172)" fill="#fff"/></g></g></g><g transform="translate(1401.162 360.203)"><g transform="translate(0 0)"><g transform="translate(0 0)"><path d="M70.329,4.073l-49.813,54.5L44.985,63.1q3.1.566,3.813-3.575l1.668-8.739,12.712,3.257L58.729,77.959.813,67.233,2.719,56.746l49.5-54.183L31.241-1.33c-2.225-.417-3.615.7-4.131,3.337l-.874,5.005L13.524,3.755l3.734-20.021L72.236-6.1Zm0,0" transform="translate(-0.813 16.266)" fill="#fff"/></g></g></g><g transform="translate(1471.04 381.939)"><g transform="translate(0 0)"><g transform="translate(0 0)"><path d="M21.179,49.929,33.335,1.149,17.048,4.962,13.95-6l26.059-8.342,12.155,3.019L35,57.4,47.874,61.29,45.252,71.857l-43.3-10.8L4.5,50.883l12.155,2.225a4.155,4.155,0,0,0,2.94-.318A4.572,4.572,0,0,0,21.179,49.929Zm0,0" transform="translate(-1.953 14.344)" fill="#fff"/></g></g></g><g transform="translate(1519.762 393.983)"><g transform="translate(0 0)"><path d="M70.913,9.351,42.869.532,34.686,18.488Q48.033,23.82,54.706,32.709q6.674,8.819,2.86,20.895A25.5,25.5,0,0,1,45.649,68.619q-8.819,5.154-22.722.794A51.031,51.031,0,0,1,10.057,63.3,43.713,43.713,0,0,1,1,55.828l8.342-9.693q7.865,8.193,16.684,10.884Q38.42,60.892,42.233,49,46.821,34.158,17.684,25L35.8-14.4,60.109-6.777q2.771.894,3.813-2.622l1.668-5.164,11.44,4.449Zm0,0" transform="translate(-1 14.563)" fill="#fff"/></g></g><g transform="translate(916.26 258.506)"><g transform="translate(0 0)"><g transform="translate(0 0)"><path d="M29.174-3.559c-.854-.953-3.317-.914-7.389.079-5.3,1.39-8.878,4.211-10.725,8.5Q8.349,11.4,10.9,21.467,16.2,42.53,32.034,38.548a22.251,22.251,0,0,0,2.225-.477,14.112,14.112,0,0,0,3.655-1.509c1.053-.675,1.629-1.271,1.748-1.748a4.116,4.116,0,0,0,0-1.986L37.913,26l8.819-1.509,3.655,14.7q-5.72,5.184-15.969,7.706-13.049,3.337-21.689-2.3Q4.059,38.955.414,24.486A40.425,40.425,0,0,1-.777,10.027,24.2,24.2,0,0,1,3.036-.858a28.622,28.622,0,0,1,16.6-10.963,40.019,40.019,0,0,1,16.922-.636L40.217,2.082l-8.58,2.781L29.969-1.732A4.8,4.8,0,0,0,29.174-3.559Zm0,0" transform="translate(0.996 13.075)" fill="#d0732f"/></g></g></g><g transform="translate(969.579 261.529)"><g transform="translate(0 0)"><g transform="translate(0 0)"><path d="M33.928-9.432l6.753,31.938a3.257,3.257,0,0,0,.874,1.827,2.6,2.6,0,0,0,1.827.238l2.86-.4,1.43,6.832-13.665,2.94-1.033-5.005-.238-.079A14.189,14.189,0,0,1,22.17,37.6Q13.411,39.448,8.029,34.82,2.606,30.143.561,20.44-1.882,8.762,2.388,1.055,6.678-6.721,18.039-9.193A46.022,46.022,0,0,1,33.928-9.432ZM29.8,20.52,25.11-1.725a17.566,17.566,0,0,0-6.832.318q-5.72,1.192-7.309,6.435c-1.073,3.456-1.073,7.706,0,12.791q2.92,13.913,11.917,12a8.4,8.4,0,0,0,5.641-3.575A7.145,7.145,0,0,0,29.8,20.52Zm0,0" transform="translate(0.332 10.003)" fill="#d0732f"/></g></g></g><g transform="translate(1013.567 252.152)"><g transform="translate(0 0)"><g transform="translate(0 0)"><path d="M10.648,29.217,6.437,5.3A3.3,3.3,0,0,0,5.642,3.4a2.385,2.385,0,0,0-1.827-.318l-3.575.4L-1.031-3.515,13.587-6.137,14.7.3A13.538,13.538,0,0,1,25.663-9.553a19.887,19.887,0,0,1,8.58.318l2.3,12.95L28.523,5.7l-.715-3.972C27.649.577,27.252-.1,26.616-.257a5.175,5.175,0,0,0-2.383-.079,7.623,7.623,0,0,0-5.244,3.5A9.051,9.051,0,0,0,17.8,9.832l3.575,20.021,7.706-.953,1.192,6.832L6.993,39.863,5.8,33.269l2.94-.794a4.334,4.334,0,0,0,1.748-1.033A2.939,2.939,0,0,0,10.648,29.217Zm0,0" transform="translate(1.031 9.876)" fill="#d0732f"/></g></g></g><g transform="translate(1057.757 227.472)"><g transform="translate(0 0)"><g transform="translate(0 0)"><path d="M18.119,6.105a24.5,24.5,0,0,1,7.23,0L24.078-2.713c-.159-1.271-1.013-1.847-2.542-1.748L17.8-4.223l-.953-6.833,16.207-2.3L40.6,39.473a1.821,1.821,0,0,0,2.3,1.668l3.178-.238.953,6.912L32.976,49.881,32.261,44.8l-.238-.079c-2.066,4.568-5.76,7.21-11.043,7.945Q11.118,54.091,6.2,48.053A27.519,27.519,0,0,1,.482,33.991Q-1.186,22.64,3.422,15.083,8.1,7.545,18.119,6.105Zm11.6,30.428L26.461,13.971a15.447,15.447,0,0,0-6.753-.4A9.108,9.108,0,0,0,12,19.373q-2.086,5.005-1.033,12.076,2.056,14.628,11.44,13.268a8.727,8.727,0,0,0,5.641-2.94A6.428,6.428,0,0,0,29.719,36.534Zm0,0" transform="translate(-0.038 13.359)" fill="#d0732f"/></g></g></g><g transform="translate(1106.755 216.852)"><g transform="translate(0 0)"><g transform="translate(0)"><path d="M36.757,10.932l3.416,32.494a3.25,3.25,0,0,0,.636,1.907,2.124,2.124,0,0,0,1.748.318H45.5l.715,6.991-13.9,1.43-.556-5.085-.238-.079a14.077,14.077,0,0,1-11.361,7.548c-6,.636-10.606-.755-13.824-4.211C3.151,48.749,1.185,43.7.45,37.07Q-.742,25.243,4.263,18q5.065-7.21,16.6-8.421A45.282,45.282,0,0,1,36.757,10.932Zm-7.15,29.4L27.223,17.765a16.675,16.675,0,0,0-6.912-.4q-5.81.566-7.945,5.561Q10.281,27.874,11.1,35.561q1.49,14.152,10.566,13.188a8.812,8.812,0,0,0,6.038-2.86A7.138,7.138,0,0,0,29.607,40.328ZM12.287,3.782l8.421-17.876,4.37,1.51q2.681,1.133,2.86,2.86c.1,1.172-.516,2.5-1.827,3.973l-10.09,12Zm0,0" transform="translate(-0.221 14.094)" fill="#d0732f"/></g></g></g><g transform="translate(1152.725 235.938)"><g transform="translate(0 0)"><g transform="translate(0)"><path d="M9.235,45.929,6.375,3.5A2.943,2.943,0,0,0,5.74,1.518a2.013,2.013,0,0,0-1.668-.477H.258l-.477-7.15,14.857-.953.4,5.72a12.426,12.426,0,0,1,4.687-5.164,16.967,16.967,0,0,1,8.66-2.781q15.879-1.1,17.4,21.133.775,11.768-3.972,18.511-4.767,6.674-13.585,7.309A18.008,18.008,0,0,1,18.61,35.76L19.4,47.836l7.23-.159.477,6.912L4.548,56.1,4.071,49.5l2.86-.477a3.682,3.682,0,0,0,1.827-.953A3.005,3.005,0,0,0,9.235,45.929ZM34.976,13.515q-.953-14.6-9.851-14.062a9.546,9.546,0,0,0-6.2,2.7A6.635,6.635,0,0,0,16.7,7.636l1.351,20.1A14.321,14.321,0,0,0,26.317,29.4a7.855,7.855,0,0,0,6.991-4.846A22.015,22.015,0,0,0,34.976,13.515Zm0,0" transform="translate(0.219 9.338)" fill="#d0732f"/></g></g></g><g transform="translate(1203.947 216.935)"><g transform="translate(0 0)"><path d="M15.917,5.988l1.43,36.863,5.085.079.238,6.991L1.775,50.8l-.238-6.674,2.94-.4a2.575,2.575,0,0,0,2.383-2.94L5.906,16.4a3.234,3.234,0,0,0-.556-1.986A2.154,2.154,0,0,0,3.6,13.932L.583,13.853.266,6.544ZM4.556-1.163A5.789,5.789,0,0,1,2.57-5.612a6.448,6.448,0,0,1,1.668-4.767A6.285,6.285,0,0,1,9-12.444a6.369,6.369,0,0,1,4.926,1.668A6.16,6.16,0,0,1,16-6.168,6.033,6.033,0,0,1,14.248-1.56,6.75,6.75,0,0,1,9.482.426,6.864,6.864,0,0,1,4.556-1.163Zm0,0" transform="translate(-0.266 12.455)" fill="#d0732f"/></g></g><g transform="translate(1230.152 233.362)"><g transform="translate(0 0)"><g transform="translate(0 0)"><path d="M21,30.01q9.534-.06,9.375-15.492Q30.2,6.742,27.992,2.68c-1.43-2.7-3.853-4.012-7.23-3.972A8.258,8.258,0,0,0,13.374,2.68q-2.324,3.9-2.225,10.566Q11.3,25.641,16,28.739A8.119,8.119,0,0,0,21,30.01ZM.5,14.677A29.861,29.861,0,0,1,2.33,3.316,17.971,17.971,0,0,1,7.415-4.152,22.426,22.426,0,0,1,21.159-9a20.508,20.508,0,0,1,8.9,1.589,18.279,18.279,0,0,1,5.72,3.893,18.106,18.106,0,0,1,3.655,6.435,31.667,31.667,0,0,1,1.589,10.01Q41.17,25.085,35.38,31.44A19.778,19.778,0,0,1,20.365,37.8c-6.1.1-10.924-1.788-14.459-5.72Q.662,26.207.5,14.677Zm0,0" transform="translate(-0.499 9)" fill="#d0732f"/></g></g></g><g transform="translate(1293.846 234.085)"><g transform="translate(0 0)"><g transform="translate(0 0)"><path d="M23.282-8.771Q29.866-8.533,33.61-5.2q3.724,3.277,3.575,9.057a14.524,14.524,0,0,1-1.907,6.832,13.369,13.369,0,0,1-4.29,4.449,22.371,22.371,0,0,1-6.038,2.542A47.8,47.8,0,0,1,11.6,18.956a11.371,11.371,0,0,0,2.622,7.627c1.748,1.966,4.409,3.019,8.024,3.178a18.549,18.549,0,0,0,11.043-3.575l3.1,7.23a20.748,20.748,0,0,1-6.038,3.019,26.322,26.322,0,0,1-9.534,1.351c-7.15-.218-12.354-2.344-15.572-6.435Q.48,25.242.8,14.9C1,7.972,3.1,2.252,7.074-2.257Q13.033-9.079,23.282-8.771ZM18.594,11.17a14.286,14.286,0,0,0,6.038-2.383,5.758,5.758,0,0,0,2.86-4.608C27.592.643,25.9-1.184,22.408-1.3A8.623,8.623,0,0,0,14.7,2.351a18.388,18.388,0,0,0-3.178,9.216A56.14,56.14,0,0,0,18.594,11.17Zm0,0" transform="translate(-0.777 8.784)" fill="#d0732f"/></g></g></g><g transform="translate(1335.256 236.061)"><g transform="translate(0 0)"><g transform="translate(0 0)"><path d="M25.013-.346a14.089,14.089,0,0,0-5.005-1.112A7.506,7.506,0,0,0,15.161-.425a4.022,4.022,0,0,0-1.986,3.178,5.528,5.528,0,0,0,.477,3.178A5.694,5.694,0,0,0,15.558,8a31.623,31.623,0,0,0,5.085,2.225c2.006.7,3.5,1.251,4.449,1.668a25.836,25.836,0,0,1,3.655,1.827A11.781,11.781,0,0,1,32,16.417a11.747,11.747,0,0,1,2.463,8.5,12.25,12.25,0,0,1-5.4,9.931c-3.337,2.264-7.468,3.257-12.394,2.94C9.56,37.312,4.277,36.061.781,34.055L1.576,21.9,9.52,21.74,9.2,25.951c-.159,2.542,2.185,3.972,7.071,4.29q7.389.477,7.706-4.846a3.983,3.983,0,0,0-1.033-3.178,6.614,6.614,0,0,0-2.383-1.827,21.138,21.138,0,0,0-2.86-1.033c-1.112-.357-2.2-.735-3.257-1.112-1.073-.358-2.225-.814-3.5-1.351A24.86,24.86,0,0,1,6.9,14.431Q2.668,11.273,3.085,4.421,3.562-2.4,8.647-5.748a19.478,19.478,0,0,1,12.314-2.86,33.229,33.229,0,0,1,14.3,4.449L34.546,6.328,26.6,6.407l.238-3.655A3.036,3.036,0,0,0,25.013-.346Zm0,0" transform="translate(-0.781 8.668)" fill="#d0732f"/></g></g></g><g transform="translate(1370.271 238.707)"><g transform="translate(0 0)"><g transform="translate(0 0)"><path d="M6.481,44.3,10.612,1.957a3.18,3.18,0,0,0-.318-2.145A1.949,1.949,0,0,0,8.705-.9L4.971-1.539l.715-7.071,14.777,1.43-.556,5.641a13.037,13.037,0,0,1,5.482-4.211A17.088,17.088,0,0,1,34.367-7.1q15.79,1.609,13.665,23.675Q46.9,28.433,41.12,34.213q-5.81,5.78-14.618,4.926a17.523,17.523,0,0,1-9.136-3.416l-1.112,12,7.071,1.033-.636,6.991L.125,53.518l.636-6.674,2.86-.079a3.52,3.52,0,0,0,2.066-.477A2.9,2.9,0,0,0,6.481,44.3ZM37.147,16.416Q38.577,1.878,29.679,1a9.25,9.25,0,0,0-6.435,1.589,6.873,6.873,0,0,0-3.1,5.085l-1.986,20.1a15.034,15.034,0,0,0,7.945,2.94,7.639,7.639,0,0,0,7.547-3.655A22.293,22.293,0,0,0,37.147,16.416Zm0,0" transform="translate(-0.125 8.609)" fill="#d0732f"/></g></g></g><g transform="translate(1423.752 245.214)"><g transform="translate(0 0)"><g transform="translate(0)"><path d="M26.089-8.027q6.584.894,9.931,4.528c2.264,2.443,3.178,5.6,2.7,9.454A13.873,13.873,0,0,1,36.1,12.471a13.1,13.1,0,0,1-4.687,4.052,21.269,21.269,0,0,1-6.2,1.827,43.375,43.375,0,0,1-13.427,0,11.456,11.456,0,0,0,1.907,7.945c1.529,2.125,4.092,3.416,7.706,3.893a17.781,17.781,0,0,0,11.2-2.542l2.383,7.468a20.506,20.506,0,0,1-6.276,2.463,26.756,26.756,0,0,1-9.693.477C11.967,37.1,7.041,34.438,4.241,30.108Q.1,23.524,1.46,13.265,2.8,2.957,9.325-3.18,15.909-9.377,26.089-8.027ZM19.495,11.359a14.134,14.134,0,0,0,6.2-1.748,6.061,6.061,0,0,0,3.337-4.29C29.5,1.785,28-.241,24.5-.717a8.721,8.721,0,0,0-8.024,2.86,17.819,17.819,0,0,0-4.052,8.9A51.957,51.957,0,0,0,19.495,11.359Zm0,0" transform="translate(-1.121 8.266)" fill="#d0732f"/></g></g></g><g transform="translate(1464.977 251.322)"><g transform="translate(0 0)"><g transform="translate(0)"><path d="M12.271,13.186c-.794,4.926-.516,8.9.874,11.917a9.343,9.343,0,0,0,7.389,5.323A17.289,17.289,0,0,0,31.5,28.361l2.622,7.309q-6.912,3.962-16.207,2.463C11.714,37.12,7.146,34.4,4.246,29.95Q-.133,23.216,1.7,11.836,3.611.4,10.6-4.372a19.932,19.932,0,0,1,14.777-3.5,30.523,30.523,0,0,1,13.665,5.8L37.217,9.214l-8.1-.715.636-4.131c.258-1.589-.139-2.642-1.192-3.178A10.445,10.445,0,0,0,25.22,0Q14.733-1.67,12.271,13.186Zm0,0" transform="translate(-1.158 8.13)" fill="#d0732f"/></g></g></g><g transform="translate(1501.781 239.682)"><g transform="translate(0 0)"><path d="M24.46,8,17.549,44.231,22.395,45.5l-1.271,6.832L.547,48.442l1.271-6.594,2.94.4a2.588,2.588,0,0,0,3.019-2.383l4.529-23.914a3.2,3.2,0,0,0-.079-2.145,2.357,2.357,0,0,0-1.589-.874L7.7,12.214l1.351-7.15ZM15.006-1.53a6.3,6.3,0,0,1-.953-4.846,6.587,6.587,0,0,1,2.7-4.29,6.261,6.261,0,0,1,5.085-.874,6.5,6.5,0,0,1,4.449,2.7,6.232,6.232,0,0,1,.953,4.926A5.974,5.974,0,0,1,24.54.3a6.743,6.743,0,0,1-5.164.874A6.705,6.705,0,0,1,15.006-1.53Zm0,0" transform="translate(-0.547 11.723)" fill="#d0732f"/></g></g><g transform="translate(1530.441 264.304)"><g transform="translate(0 0)"><g transform="translate(0 0)"><path d="M44.949-.705,37.958,31.232a3.007,3.007,0,0,0,0,1.986,2.5,2.5,0,0,0,1.509.953l2.781.874-1.51,6.832L27.074,38.859l1.112-5.005-.238-.079A14.122,14.122,0,0,1,14.839,37.35C8.96,36.079,5.027,33.258,3.08,28.928Q.131,22.433,2.207,12.721,4.739,1.042,11.82-4.2q7.15-5.244,18.432-2.781A46.1,46.1,0,0,1,44.949-.705ZM28.9,24.877,33.747,2.711A18.274,18.274,0,0,0,27.391.168C23.518-.666,20.4.248,18.017,2.949s-4.131,6.594-5.244,11.679Q9.734,28.541,18.652,30.517a8.826,8.826,0,0,0,6.674-.953A7.149,7.149,0,0,0,28.9,24.877Zm0,0" transform="translate(-1.346 7.763)" fill="#d0732f"/></g></g></g><g transform="translate(1573.825 254.304)"><g transform="translate(0 0)"><path d="M31.023-8,17.676,45.707l4.767,1.509L20.775,53.97.516,48.885,2.1,42.37l2.94.556a2.6,2.6,0,0,0,3.178-2.145L18.63-1.167a2.006,2.006,0,0,0-1.589-2.622l-3.019-.874,1.748-7.15Zm0,0" transform="translate(-0.516 11.812)" fill="#d0732f"/></g></g></g></svg>