<svg xmlns="http://www.w3.org/2000/svg" width="103.786" height="34.947" viewBox="0 0 103.786 34.947"><g transform="translate(-504.015 -241.297)"><path d="M505.352,272.7a7.384,7.384,0,0,1-1.114.032c-.328,0-.265.853,0,.921h7.752c.266,0,.235-.921-.1-.921-.489,0-2.363,0-2.363-.032.229-1.478,3.285-21.361,4.566-30.232.1-.688-2.1-2.2-4.04-.068a10.3,10.3,0,0,1-3.416,2.994c-.234.062-.364.952.261.723a8.489,8.489,0,0,0,2.3-1.614C508.507,252.453,505.717,270,505.352,272.7Z" fill="#975d55"/><path d="M522.341,242.858c-.359.032-5.253,8.018-5.222,11.043,0,1.015,2.431,1.312,3.285.916,8.84-4.009,6.737,17.649,1.411,18.008-4.467.3-9.788-11.172-1.64-14.556.625-.26.4-.885-.229-.656-8.314,2.926-4.93,16,2.067,15.9,9.366-.135,12.359-24.745-1.838-19.555-.031-.161,4.764-10.35,4.894-10.35,1.416-.1,4.7-.1,6.539-.26.625-.068.328-.859-.26-.823C528.916,242.661,523.726,242.759,522.341,242.858Z" fill="#975d55"/><path d="M559.178,257.644c.266-.625-.161-.854-.656-.13-2.332,4.993-5.19,7.721-6.606,7.986-3.385.625,1.187-9.168,2.269-11.766.459-1.083-2.759-1.744-4.04.229-.525-1.213-2.1-1.541-4.206-.885-5.326,1.677-7.461,10.152-3.322,12.089,1.807.859,3.848-1.411,4.931-3.644-.656,4.7,3.217,5.357,4.664,4.763C554.118,265.5,556.684,263.361,559.178,257.644Zm-9.4-2.988c-1.51,2.264-3.91,9.824-6.044,9.824-1.745,0,.822-5.946,3.415-8.773C548.729,253.932,549.62,254.26,549.781,254.656Z" fill="#975d55"/><path d="M579.389,257.514c.3-.594-.494-.594-.625,0-3.155,4.795-5.784,8.179-7.559,8.346-1.838.166,4.634-16.1-1.676-14.625-2.958.693-6.7,7.528-8.8,14.328,0-.13,1.213-8.148,1.478-9.856.328-2.431-3.42-1.577-3.779.625-.557,3.483-.755,10.184-.786,10.282-.464,2.135,2.957,1.843,3.285.755,3.285-10.48,6.9-14.817,8.543-15.244,1.869-.494-5.753,14.328,1.64,14.391C572.293,266.516,575.74,264.511,579.389,257.514Z" fill="#975d55"/><path d="M583.266,267.635c-3.155-.693-.755-16.072,2.629-17.217a1.875,1.875,0,0,1,.854,3.446c-.656.427.328.625.625.365a2.624,2.624,0,0,0-1.151-4.7c-4.665-.984-7.33,5.289-7.887,9.006-.656,4.535.854,9.528,4.206,9.856,2.63.265,5.03-3.186,6.18-7.2a5.663,5.663,0,0,0,5.29-3.681c.3-.4-.266-.823-.693,0-1.213,2.332-2.889,3.254-4.336,2.988,1.082-2.592,0-4.763-.755-5.024-3.124-1.088-3.582,4.665-.167,5.55C586.947,264.876,584.943,267.765,583.266,267.635ZM588.03,256.1c.854.166.984,2.827.328,4.305C585.369,259.451,586.291,255.77,588.03,256.1Z" fill="#975d55"/><path d="M597.625,275.783c3.352-1.479,5.19-5.42,3.946-11.532a.865.865,0,0,1-.068-.3,15.076,15.076,0,0,0,6.242-6.409c.266-.588-.489-.755-.853-.031a14.409,14.409,0,0,1-5.618,5.586c-1.515-4.831-7.757-8.611-4.045-13.7,1.942-2.66,5.982-.921,5.456,2.89-.1.625.854.562.854-.818,0-3.321-3.842-5.981-7.325-2.629a10.068,10.068,0,0,0-2.957,7.851c.13,3.515,2.1,5.061,3.217,8.971C590.4,269.572,591.809,278.344,597.625,275.783Zm-1.479-.427c-2.759,1.28-4.566-4.993.526-8.971C597.661,269.275,598.249,274.372,596.146,275.356Z" fill="#975d55"/></g></svg>