<svg xmlns="http://www.w3.org/2000/svg" width="126.982" height="14.89" viewBox="0 0 126.982 14.89"><g transform="translate(-486.29 -298.645)"><path d="M492.267,305.553c2.155-.369,3.5-1.744,3.5-3.43,0-2.135-1.838-3.478-4.754-3.478a7.3,7.3,0,0,0-4.274,1.312l.344.906a6.208,6.208,0,0,1,3.686-1.234c1.374,0,2.155,1.161,2.155,2.624,0,1.739-1,2.952-3.618,3.04v.922c2.707-.021,4.222,1.332,4.222,3.342a2.815,2.815,0,0,1-3.046,2.994,6.542,6.542,0,0,1-3.8-1.239l-.4.89a7.017,7.017,0,0,0,4.175,1.333c3.416,0,5.863-1.515,5.863-4.181C496.328,307.121,494.688,305.913,492.267,305.553Z" fill="#975d55"/><path d="M504.131,313.535c3.618,0,6.1-3.02,6.1-7.451s-2.478-7.439-6.1-7.439c-3.582,0-6.008,3.009-6.008,7.439S500.549,313.535,504.131,313.535Zm0-1.062c-1.927,0-2.921-2.5-2.921-6.378s.994-6.367,2.921-6.367,3,2.488,3,6.367S506.083,312.473,504.131,312.473Z" fill="#975d55"/><path d="M522.408,313.3c5.061,0,8.023-2.478,8.023-7.221s-2.983-7.211-7.955-7.211h-4.722V313.3Zm-1.775-13.354h2.046c3.067,0,4.7,2.072,4.7,6.2,0,3.977-1.582,6.086-4.763,6.086h-1.984Z" fill="#975d55"/><path d="M542.578,313.3v-1.072h-6.836v-5.795h4.509v-1.062h-4.509v-5.425h6.539v-1.078h-9.418V313.3Z" fill="#975d55"/><path d="M551.51,313.535c2.692,0,4.816-1.385,4.816-4.259V298.863h-2.879V309.3c0,2.233-.682,3.186-2.088,3.186a4.461,4.461,0,0,1-2.816-.9l-.459.9A5.767,5.767,0,0,0,551.51,313.535Z" fill="#975d55"/><path d="M565.247,313.535c3.821,0,5.6-2.125,5.6-5.545v-9.127h-1.082v9.278c0,2.619-1.557,4.16-3.843,4.16s-3.618-1.375-3.618-3.879v-9.559h-2.869V308.3C559.431,311.6,561.6,313.535,565.247,313.535Z" fill="#975d55"/><path d="M582.793,313.3v-1.072h-6.034v-13.36h-2.88V313.3Z" fill="#975d55"/><path d="M593.642,305.475h-6.2v-6.612h-2.879V313.3h2.879v-6.758h6.2V313.3h2.879V298.863h-2.879Z" fill="#975d55"/><path d="M606.082,313.535c4.332,0,7.19-3.067,7.19-7.451,0-4.352-2.895-7.439-7.19-7.439s-7.148,3.118-7.148,7.492C598.934,310.468,601.782,313.535,606.082,313.535Zm.1-1.083c-3.222,0-4.2-4.353-4.2-6.94,0-3.5,1.463-5.784,3.988-5.784,3.238,0,4.253,4.321,4.253,6.96C610.226,310.177,608.753,312.452,606.186,312.452Z" fill="#975d55"/></g></svg>