<svg xmlns="http://www.w3.org/2000/svg" width="305.662" height="14.905" viewBox="0 0 305.662 14.905"><g transform="translate(-423.059 -447.696)"><path d="M442.21,459.462a.879.879,0,0,0,.927-.9.93.93,0,1,0-.927.9Z" fill="#975d55"/><path d="M518.4,461.685a2.775,2.775,0,0,0,2.119-2.484,1.517,1.517,0,0,0-.963-1.468l-1.073,1.109a1.424,1.424,0,0,1,.823,1.14c0,.5-.219.958-1.015,1.359Z" fill="#975d55"/><path d="M572.048,455.333v-.515H567.8v.515Z" fill="#975d55"/><path d="M432.691,459.269l-4.28-11.178h-1.1l-4.254,11.178h.693l1.27-3.41h4.764l1.265,3.41Zm-5.274-9.793,2.171,5.847h-4.363Z" fill="#975d55"/><path d="M439.433,451.481l-2.062,5.466-.276.823-.229-.76-2.036-5.529H433.2l3.019,7.788h.833l3.046-7.788Z" fill="#975d55"/><path d="M450.884,459.269V448.091h-1.536v11.178Z" fill="#975d55"/><path d="M457.941,451.293a4.56,4.56,0,0,0-3.28,1.583l-.724-1.4h-.489v7.788h1.478v-6.034a3.228,3.228,0,0,1,2.322-1.088c.979,0,1.552.6,1.552,1.723v5.4h1.468V453.74A2.211,2.211,0,0,0,457.941,451.293Z" fill="#975d55"/><path d="M464.636,459.457a3.564,3.564,0,0,0,2.343-.995l-.219-.359a2.488,2.488,0,0,1-1.5.562c-.734,0-1.1-.442-1.1-1.463v-5.258h2.421v-.463h-2.421v-1.75l-.5-.021-.9,1.771-1.078.125v.338h1.01V457.2C462.694,458.681,463.345,459.457,464.636,459.457Z" fill="#975d55"/><path d="M474.906,454.833a3.2,3.2,0,0,0-3.274-3.54c-2.229,0-3.848,1.7-3.848,4.217a3.611,3.611,0,0,0,3.707,3.947,3.827,3.827,0,0,0,3.27-1.64l-.3-.344a3.224,3.224,0,0,1-2.546,1.328c-1.812,0-2.707-1.536-2.707-3.53,0-.151.01-.3.015-.438Zm-3.347-3.03c1.083,0,1.874.87,1.936,2.666h-4.232C469.481,452.86,470.356,451.8,471.559,451.8Z" fill="#975d55"/><path d="M480.06,451.309a2.844,2.844,0,0,0-2.254,1.577l-.724-1.4h-.49v7.788h1.479v-6.164a2.412,2.412,0,0,1,1.885-1.229,2.538,2.538,0,0,1,1.171.292l.167-.542A2.675,2.675,0,0,0,480.06,451.309Z" fill="#975d55"/><path d="M484.253,459.269V447.7h-1.478v11.573Z" fill="#975d55"/><path d="M489.488,451.3a5.578,5.578,0,0,0-3.108,1.042l.208.458a4.755,4.755,0,0,1,2.65-.963c1.187,0,1.6.926,1.6,2.2v.656c-3.072.317-4.879,1.114-4.879,2.931a1.876,1.876,0,0,0,2.02,1.833,4.068,4.068,0,0,0,3.145-1.614l.708,1.426h.484v-5.112C492.315,452.386,491.524,451.3,489.488,451.3Zm-.8,7.357a1.279,1.279,0,0,1-1.369-1.3c0-1.369,1.354-1.983,3.52-2.207v2.483A3.266,3.266,0,0,1,488.686,458.655Z" fill="#975d55"/><path d="M496.561,458.066c-.9,0-1.364-.249-1.364-.692,0-.349.37-.635.781-.916a3.842,3.842,0,0,0,1.5.281c1.936,0,3.17-1.161,3.17-2.728a2.509,2.509,0,0,0-.7-1.77l1.634-1.01-.26-.406-1.734,1.1a3.558,3.558,0,0,0-2.113-.64c-1.807,0-3.166,1.1-3.166,2.7a2.555,2.555,0,0,0,1.328,2.316c-.719.38-1.359.859-1.359,1.557a1.378,1.378,0,0,0,1.2,1.338,3.865,3.865,0,0,0-1.687,1.354c.224,1.207,1.473,2.056,3.79,2.056,2.556,0,4.118-1,4.118-2.541,0-1.343-1.2-1.994-3-1.994Zm.917-6.315c1.155,0,1.77.917,1.77,2.26s-.6,2.259-1.77,2.259c-1.187,0-1.776-.916-1.776-2.259S496.353,451.751,497.478,451.751Zm.119,10.376c-1.666,0-2.889-.484-3.2-1.64a5.537,5.537,0,0,1,1.5-1.218,3.713,3.713,0,0,0,.6.047h2.134c1.083,0,1.968.349,1.968,1.156,0,1.02-1.124,1.655-2.837,1.655Z" fill="#975d55"/><path d="M506.248,459.457a3.955,3.955,0,0,0,3.947-4.087,3.873,3.873,0,0,0-3.947-4.077,3.957,3.957,0,0,0-3.941,4.087A3.868,3.868,0,0,0,506.248,459.457Zm.063-.547c-1.755,0-2.494-2.385-2.494-3.874,0-2.238,1.249-3.191,2.374-3.191,1.744,0,2.5,2.338,2.5,3.853C508.7,457.931,507.435,458.91,506.311,458.91Z" fill="#975d55"/><path d="M514.089,459.457c1.812,0,2.936-.9,2.936-2.192,0-1.25-.905-1.9-2.249-2.494l-.333-.146c-1.025-.474-1.671-.942-1.671-1.593,0-.682.573-1.234,1.546-1.234a4.654,4.654,0,0,1,2.244.635l.188-.473a4.851,4.851,0,0,0-2.432-.667c-1.671,0-2.822.713-2.822,2.057,0,1.114.958,1.811,2.166,2.353l.38.151c1.1.51,1.718.979,1.718,1.754,0,.7-.489,1.344-1.671,1.344a5.352,5.352,0,0,1-2.629-.8l-.213.468A5.558,5.558,0,0,0,514.089,459.457Z" fill="#975d55"/><path d="M530.158,453.3c1.718-.307,2.8-1.359,2.8-2.723,0-1.609-1.307-2.666-3.342-2.666a5.481,5.481,0,0,0-3.223,1.031l.208.516a4.732,4.732,0,0,1,2.9-.979,1.954,1.954,0,0,1,1.911,2.176c0,1.374-.833,2.39-3.056,2.489v.536c2.285-.031,3.519,1.041,3.519,2.728a2.4,2.4,0,0,1-2.639,2.483,5.041,5.041,0,0,1-2.973-.979l-.245.5a5.387,5.387,0,0,0,3.192,1.042c2.431,0,4.18-1.2,4.18-3.176C533.391,454.516,532.116,453.553,530.158,453.3Z" fill="#975d55"/><path d="M543.047,456.442c-.016-1.5-1.1-2.546-2.994-3.347,1.416-.49,2.494-1.354,2.494-2.541,0-1.562-1.374-2.64-3.457-2.64-2.166,0-3.577,1.12-3.577,2.806,0,1.266.8,2.151,2.354,2.895-1.687.479-2.775,1.593-2.775,2.983,0,1.718,1.572,2.859,3.951,2.859C541.443,459.457,543.062,458.316,543.047,456.442Zm-6.06-6.065a1.966,1.966,0,0,1,2.16-1.911,1.916,1.916,0,0,1,2.026,2.036,2.708,2.708,0,0,1-1.656,2.358C537.742,452.085,536.987,451.434,536.987,450.377Zm2.067,8.528a2.339,2.339,0,0,1-2.577-2.307,3.082,3.082,0,0,1,1.941-2.743c.006.01.016.01.032.015,1.895.8,3.129,1.593,3.129,2.885C541.579,458.087,540.558,458.9,539.054,458.9Z" fill="#975d55"/><path d="M549.152,452.017a4.012,4.012,0,0,0-2.869,1.359,6.678,6.678,0,0,1,5-5l-.219-.495c-4.55,1.057-6.585,4.212-6.585,7.278,0,2.531,1.53,4.3,3.941,4.3a3.8,3.8,0,0,0,4-3.957A3.261,3.261,0,0,0,549.152,452.017Zm-.7,6.888c-1.458,0-2.385-1.495-2.385-3.556a7.9,7.9,0,0,1,.1-1.338,3.019,3.019,0,0,1,2.343-1.229c1.421,0,2.333,1.13,2.333,2.947C550.844,457.64,549.849,458.9,548.449,458.9Z" fill="#975d55"/><path d="M557.991,459.457c2.686,0,4.446-2.354,4.446-5.774s-1.76-5.763-4.446-5.763c-2.65,0-4.389,2.348-4.389,5.763S555.341,459.457,557.991,459.457Zm0-.594c-1.744,0-2.734-2.077-2.734-5.17s.99-5.175,2.734-5.175,2.785,2.078,2.785,5.175S559.75,458.863,557.991,458.863Z" fill="#975d55"/><path d="M575.291,459.457c1.859,0,3.233-1.005,3.233-3.046v-8.32h-1.536v8.257c0,1.755-.6,2.51-1.759,2.51a3.416,3.416,0,0,1-2.166-.708l-.266.515A4.19,4.19,0,0,0,575.291,459.457Z" fill="#975d55"/><path d="M583.985,451.3a5.578,5.578,0,0,0-3.108,1.042l.208.458a4.755,4.755,0,0,1,2.65-.963c1.187,0,1.6.926,1.6,2.2v.656c-3.072.317-4.879,1.114-4.879,2.931a1.876,1.876,0,0,0,2.02,1.833,4.067,4.067,0,0,0,3.145-1.614l.708,1.426h.484v-5.112C586.812,452.386,586.021,451.3,583.985,451.3Zm-.8,7.357a1.279,1.279,0,0,1-1.369-1.3c0-1.369,1.354-1.983,3.52-2.207v2.483A3.264,3.264,0,0,1,583.183,458.655Z" fill="#975d55"/><path d="M592.49,451.309a2.846,2.846,0,0,0-2.254,1.577l-.724-1.4h-.489v7.788H590.5v-6.164a2.413,2.413,0,0,1,1.885-1.229,2.532,2.532,0,0,1,1.171.292l.167-.542A2.672,2.672,0,0,0,592.49,451.309Z" fill="#975d55"/><path d="M600.364,452.032a3.1,3.1,0,0,0-2.051-.723c-2.244,0-3.738,1.765-3.738,4.186,0,2.452,1.338,3.962,3.285,3.962a3.7,3.7,0,0,0,2.859-1.479l.64,1.291h.479V447.7h-1.474Zm-4.263,3.181c0-2.02,1.041-3.347,2.389-3.347a2.2,2.2,0,0,1,1.874,1.15v4.738a2.882,2.882,0,0,1-1.858.87C597.032,458.624,596.1,457.551,596.1,455.213Z" fill="#975d55"/><path d="M604.894,449.841a.87.87,0,1,0-.942-.87A.886.886,0,0,0,604.894,449.841Zm.745,9.428v-7.788H604.16v7.788Z" fill="#975d55"/><path d="M617.053,451.293a3.791,3.791,0,0,0-2.858,1.484,2,2,0,0,0-2.036-1.484,4.163,4.163,0,0,0-2.988,1.583l-.724-1.4h-.489v7.788h1.479v-6.06a3.025,3.025,0,0,1,2.1-1.062c.833,0,1.327.614,1.327,1.739v5.383h1.463v-5.508a3.262,3.262,0,0,0-.031-.463,2.883,2.883,0,0,1,2.135-1.141c.822,0,1.327.6,1.327,1.729v5.383h1.468v-5.513A2.159,2.159,0,0,0,617.053,451.293Z" fill="#975d55"/><path d="M630.275,459.457a5.075,5.075,0,0,0,3.941-1.672l-.307-.416a4.466,4.466,0,0,1-3.191,1.406c-2.567,0-4.134-2.083-4.134-5.129,0-3,1.53-5.117,4.029-5.117a4.713,4.713,0,0,1,2.937.947l.286-.515a5.629,5.629,0,0,0-3.29-1.041c-3.343,0-5.607,2.316-5.607,5.857C624.939,457.265,627.136,459.457,630.275,459.457Z" fill="#975d55"/><path d="M638.756,451.3a5.578,5.578,0,0,0-3.108,1.042l.208.458a4.752,4.752,0,0,1,2.65-.963c1.187,0,1.6.926,1.6,2.2v.656c-3.071.317-4.878,1.114-4.878,2.931a1.876,1.876,0,0,0,2.02,1.833,4.068,4.068,0,0,0,3.145-1.614l.708,1.426h.484v-5.112C641.583,452.386,640.791,451.3,638.756,451.3Zm-.8,7.357a1.279,1.279,0,0,1-1.369-1.3c0-1.369,1.353-1.983,3.519-2.207v2.483A3.262,3.262,0,0,1,637.954,458.655Z" fill="#975d55"/><path d="M652.889,451.293a3.794,3.794,0,0,0-2.859,1.484,2,2,0,0,0-2.035-1.484,4.163,4.163,0,0,0-2.989,1.583l-.723-1.4h-.49v7.788h1.479v-6.06a3.027,3.027,0,0,1,2.1-1.062c.833,0,1.328.614,1.328,1.739v5.383h1.463v-5.508a3.413,3.413,0,0,0-.031-.463,2.879,2.879,0,0,1,2.134-1.141c.823,0,1.328.6,1.328,1.729v5.383h1.468v-5.513A2.159,2.159,0,0,0,652.889,451.293Z" fill="#975d55"/><path d="M661.316,451.293a4.175,4.175,0,0,0-2.873,1.5l-.677-1.312h-.49v11.026h1.479v-3.581a3.624,3.624,0,0,0,1.848.531c2.416,0,3.92-1.719,3.92-4.337C664.523,452.746,663.222,451.293,661.316,451.293Zm-.833,7.617a2.325,2.325,0,0,1-1.728-.838v-5.04a3.185,3.185,0,0,1,1.957-.963c1.422,0,2.3,1.156,2.3,3.332C663.008,457.535,662.04,458.91,660.483,458.91Z" fill="#975d55"/><path d="M669.519,459.457a3.954,3.954,0,0,0,3.946-4.087,3.872,3.872,0,0,0-3.946-4.077,3.957,3.957,0,0,0-3.941,4.087A3.868,3.868,0,0,0,669.519,459.457Zm.063-.547c-1.755,0-2.494-2.385-2.494-3.874,0-2.238,1.249-3.191,2.374-3.191,1.744,0,2.5,2.338,2.5,3.853C671.966,457.931,670.706,458.91,669.582,458.91Z" fill="#975d55"/><path d="M684.1,459.457a6.772,6.772,0,0,0,3.993-1.214v-4.638H683.9v.583h2.718v3.863a4.045,4.045,0,0,1-2.41.791c-2.338,0-3.926-1.937-3.926-5.118,0-2.748,1.312-5.206,4.108-5.206a4.65,4.65,0,0,1,2.91.989l.286-.515a5.318,5.318,0,0,0-3.253-1.072,5.5,5.5,0,0,0-5.691,5.825C678.645,457.218,680.941,459.457,684.1,459.457Z" fill="#975d55"/><path d="M693.573,451.309a2.846,2.846,0,0,0-2.254,1.577l-.724-1.4h-.489v7.788h1.479v-6.164a2.41,2.41,0,0,1,1.884-1.229,2.539,2.539,0,0,1,1.172.292l.166-.542A2.672,2.672,0,0,0,693.573,451.309Z" fill="#975d55"/><path d="M699.2,451.3a5.578,5.578,0,0,0-3.108,1.042l.208.458a4.752,4.752,0,0,1,2.65-.963c1.187,0,1.6.926,1.6,2.2v.656c-3.071.317-4.878,1.114-4.878,2.931a1.876,1.876,0,0,0,2.02,1.833,4.068,4.068,0,0,0,3.145-1.614l.708,1.426h.484v-5.112C702.031,452.386,701.239,451.3,699.2,451.3Zm-.8,7.357a1.279,1.279,0,0,1-1.369-1.3c0-1.369,1.353-1.983,3.519-2.207v2.483A3.262,3.262,0,0,1,698.4,458.655Z" fill="#975d55"/><path d="M708.734,451.293a4.56,4.56,0,0,0-3.28,1.583l-.723-1.4h-.49v7.788h1.479v-6.034a3.227,3.227,0,0,1,2.322-1.088c.979,0,1.551.6,1.551,1.723v5.4h1.469V453.74A2.211,2.211,0,0,0,708.734,451.293Z" fill="#975d55"/><path d="M718.433,452.032a3.1,3.1,0,0,0-2.051-.723c-2.244,0-3.738,1.765-3.738,4.186,0,2.452,1.338,3.962,3.285,3.962a3.7,3.7,0,0,0,2.858-1.479l.641,1.291h.479V447.7h-1.474Zm-4.264,3.181c0-2.02,1.042-3.347,2.39-3.347a2.2,2.2,0,0,1,1.874,1.15v4.738a2.884,2.884,0,0,1-1.858.87C715.1,458.624,714.169,457.551,714.169,455.213Z" fill="#975d55"/><path d="M728.721,454.833a3.2,3.2,0,0,0-3.275-3.54c-2.228,0-3.847,1.7-3.847,4.217a3.61,3.61,0,0,0,3.707,3.947,3.826,3.826,0,0,0,3.269-1.64l-.3-.344a3.222,3.222,0,0,1-2.545,1.328c-1.812,0-2.708-1.536-2.708-3.53,0-.151.011-.3.016-.438Zm-3.347-3.03c1.082,0,1.874.87,1.936,2.666h-4.232C723.3,452.86,724.171,451.8,725.374,451.8Z" fill="#975d55"/></g></svg>