<svg xmlns="http://www.w3.org/2000/svg" width="86.81" height="11.907" viewBox="0 0 86.81 11.907"><g transform="translate(-503.068 -373.128)"><path d="M507.754,379.037a2.833,2.833,0,0,0,2.644-2.64c0-1.707-1.358-2.728-3.759-2.728h-3.571v11.178h3.462c2.874,0,4.358-1,4.358-3.019C510.888,380.3,509.716,379.23,507.754,379.037Zm-1.625-4.753c1.817,0,2.692.9,2.692,2.254a2.209,2.209,0,0,1-2.442,2.249H504.6v-4.5Zm-1.53,9.949v-4.847h1.8c1.832,0,2.863.833,2.863,2.369,0,1.478-.88,2.478-2.759,2.478Z" fill="#975d55"/><path d="M517.764,377.059v6.034a3.181,3.181,0,0,1-2.306,1.088,1.514,1.514,0,0,1-1.573-1.723v-5.41h-1.473v5.54a2.224,2.224,0,0,0,2.327,2.436,4.269,4.269,0,0,0,3.285-1.635l.724,1.458h.484v-7.788Z" fill="#975d55"/><path d="M523.446,384.847v-7.325h1.921v-.463h-1.936a3.3,3.3,0,0,1-.781-1.953,1.427,1.427,0,0,1,1.567-1.468,2.983,2.983,0,0,1,1.546.391l.219-.4a3.321,3.321,0,0,0-1.848-.505c-1.776,0-2.838.869-2.838,2.192a2.782,2.782,0,0,0,.677,1.739h-1.02v.463h1.02v7.325Z" fill="#975d55"/><path d="M528.549,384.847v-7.325h1.921v-.463h-1.937a3.3,3.3,0,0,1-.781-1.953,1.428,1.428,0,0,1,1.568-1.468,2.983,2.983,0,0,1,1.546.391l.218-.4a3.319,3.319,0,0,0-1.848-.505c-1.775,0-2.837.869-2.837,2.192a2.777,2.777,0,0,0,.677,1.739h-1.021v.463h1.021v7.325Z" fill="#975d55"/><path d="M538.249,380.411a3.2,3.2,0,0,0-3.275-3.54c-2.228,0-3.847,1.7-3.847,4.217a3.61,3.61,0,0,0,3.707,3.947,3.824,3.824,0,0,0,3.269-1.64l-.3-.344a3.222,3.222,0,0,1-2.546,1.328c-1.812,0-2.707-1.536-2.707-3.53,0-.151.01-.3.016-.438Zm-3.348-3.03c1.083,0,1.874.87,1.937,2.666H532.6C532.824,378.438,533.7,377.381,534.9,377.381Z" fill="#975d55"/><path d="M542.09,385.035a3.564,3.564,0,0,0,2.343-.995l-.219-.359a2.488,2.488,0,0,1-1.5.562c-.734,0-1.1-.442-1.1-1.463v-5.258h2.42v-.463h-2.42v-1.75l-.505-.02-.9,1.77-1.078.125v.338h1.01v5.253C540.148,384.259,540.8,385.035,542.09,385.035Z" fill="#975d55"/><path d="M551.6,384.847V374.268h1.406a2.643,2.643,0,0,1,2.9,2.744,2.555,2.555,0,0,1-2.79,2.832H551.86l.146.609h1.307c2.488,0,4.222-1.343,4.222-3.452,0-1.931-1.468-3.332-4.175-3.332h-3.3v11.178Z" fill="#975d55"/><path d="M559.736,375.419a.87.87,0,1,0-.942-.87A.886.886,0,0,0,559.736,375.419Zm.745,9.428v-7.788H559v7.788Z" fill="#975d55"/><path d="M565.716,376.876a5.582,5.582,0,0,0-3.109,1.042l.209.458a4.753,4.753,0,0,1,2.65-.963c1.187,0,1.6.926,1.6,2.2v.656c-3.072.317-4.878,1.114-4.878,2.931a1.875,1.875,0,0,0,2.02,1.833,4.065,4.065,0,0,0,3.144-1.614l.708,1.426h.485v-5.112C568.543,377.965,567.751,376.876,565.716,376.876Zm-.8,7.357a1.279,1.279,0,0,1-1.369-1.3c0-1.369,1.353-1.983,3.519-2.207v2.483A3.264,3.264,0,0,1,564.914,384.233Z" fill="#975d55"/><path d="M572.909,385.035a3.564,3.564,0,0,0,2.342-.995l-.218-.359a2.491,2.491,0,0,1-1.5.562c-.734,0-1.1-.442-1.1-1.463v-5.258h2.421v-.463h-2.421v-1.75l-.505-.02-.9,1.77-1.077.125v.338h1.01v5.253C570.967,384.259,571.617,385.035,572.909,385.035Z" fill="#975d55"/><path d="M578.842,385.035a3.564,3.564,0,0,0,2.343-.995l-.219-.359a2.488,2.488,0,0,1-1.5.562c-.734,0-1.1-.442-1.1-1.463v-5.258h2.421v-.463h-2.421v-1.75l-.505-.02-.895,1.77-1.078.125v.338h1.01v5.253C576.9,384.259,577.551,385.035,578.842,385.035Z" fill="#975d55"/><path d="M585.932,385.035a3.954,3.954,0,0,0,3.946-4.087,3.872,3.872,0,0,0-3.946-4.077,3.957,3.957,0,0,0-3.941,4.087A3.868,3.868,0,0,0,585.932,385.035Zm.062-.547c-1.754,0-2.494-2.385-2.494-3.873,0-2.239,1.25-3.192,2.375-3.192,1.744,0,2.5,2.338,2.5,3.853C588.379,383.509,587.119,384.488,585.994,384.488Z" fill="#975d55"/></g></svg>