<svg xmlns="http://www.w3.org/2000/svg" width="245.979" height="64.324" viewBox="0 0 245.979 64.324"><g transform="translate(-514.686 15.876)"><path d="M556.043,14.638a2.351,2.351,0,0,0-2.686,1.52l-.089.088a.986.986,0,0,1-.088.448l-.36.984c-1.879,3.488-2.775,4.384-3.936,5.368-1.879-7.065-2.592-9.127-3.311-8.856-.265.088-.359-.177-.359-.713a.666.666,0,0,0-.177-.36c-.271-.088-.359,0-.984,1.344-.088.354-.177.447-.177.177a2.3,2.3,0,0,1,.177-.625,2.876,2.876,0,0,0,.271-.807c.265-.625-.271-.536-.719.271-.265.624-.265.265,0-.448.089-.182,0-.182-.177,0-.088.265-.182.177-.088.088,0-.088,0-.182-.094-.182-.448.094-1.161,1.526-3.04,5.368-2.864,5.727-7.872,16.014-11.449,16.014-2.238,0-2.686-13.328-2.686-17.982a58.569,58.569,0,0,1,2.145-14.848c.989-3.4,2.15-5.816,3.67-7.336.713-.718.807-.718,1.432-.625,5.008,1.161,5.008,8.408,8.054,11.449a3.56,3.56,0,0,0,1.161.359l.359-.895c.266-.625.354-.984.448-.984.265-.089.177.27-.094.984a3.7,3.7,0,0,0-.177.536l-.088.177c6.174-3.129.536-11.985-3.489-14.578a16.283,16.283,0,0,0-9.751-2.327,11.41,11.41,0,0,0-4.3,1.25c-11.006,5.279-13.51,35.069-7.783,44.372,3.576,5.816,11.36,7.43,16.368,3.312,3.046-2.593,4.654-5.545,7.966-14.672.713-2.056.713-2.056,1.7,3.4-4.92,4.207-8.32,14.317-4.295,20.31,3.847,5.279,12.078.447,11.813-6.8a110.345,110.345,0,0,0-1.521-12.255,16.825,16.825,0,0,0,4.2-3.582,8.191,8.191,0,0,0,1.166-1.7,28.791,28.791,0,0,0,1.874-4.3,2.189,2.189,0,0,0,.183-.625C557.381,15.981,557.381,14.908,556.043,14.638ZM517.48,7.3A36.4,36.4,0,0,1,519.271.326a12.951,12.951,0,0,1,1.791-3.312c-.088.089-.088.266-.182.448a5.232,5.232,0,0,1-.448,1.25,50.087,50.087,0,0,0-2.5,7.783C517.3,8.374,517.392,8.463,517.48,7.3Zm1.968,1.343c-.442,2.145-.442,2.145-.442,1.073A57.183,57.183,0,0,1,521.151-.3c.713-1.432,2.239-4.2,2.593-4.2,0,.089-.177.448-.448,1.25A60.381,60.381,0,0,0,519.448,8.645Zm3.582-.271c.089-1.072.625-4.112,1.25-6.887a13.716,13.716,0,0,1,.984-3.041,11.9,11.9,0,0,1,1.791-2.5,1.209,1.209,0,0,1-.266.625,55.978,55.978,0,0,0-3.311,10.646C523.03,9.093,523.03,9.181,523.03,8.374Zm17.894,13.958c-.718,1.7-1.614,3.848-2.062,4.65a40.848,40.848,0,0,1-2.321,4.477,7.558,7.558,0,0,1,.713-1.7c.984-2.056,2.327-5.008,3.847-8.5.625-1.432,1.073-2.51,1.073-2.239C542.174,19.11,541.637,20.63,540.924,22.332Zm3.306,20.846c-.265.625-.448.89-.536.89a7.693,7.693,0,0,0-.354-.984,15.389,15.389,0,0,1,.625-9.928c.447-.807.447-.807.536-.359C544.5,36.285,545.4,39.955,544.23,43.178Z" fill="#975d55"/><path d="M589.761,14.1a1.885,1.885,0,0,0-2.327,1.432c0,.089-1.249,5.279-3.129,11a36.7,36.7,0,0,1-3.311,7.606c-.625.9-2.145,2.775-2.863,1.791-.625-.63-.625-2.327-.36-4.472,0-4.477,4.566-21.924,4.566-25.948a6.214,6.214,0,0,0-.63-4.113c-.354-.984-1.52-1.791-1.785-1.52-.183.177-.36.177-.537-.094a5.231,5.231,0,0,0-2.686-1.52,14.292,14.292,0,0,0-7.159-.625c-4.56.448-9.392,3.4-12.521,7.424-5.19,6.888-6.263,22.189-1.7,26.484a6.776,6.776,0,0,0,3.04,1.786,5.74,5.74,0,0,0,2.328.182c1.7-.088,2.686-.182,3.847-1.166a9.048,9.048,0,0,0,2.863-4.383l.448-1.161c1.161,8.408,2.145,11.9,4.832,13.239,6.351,3.311,11.989,1.166,15.295-12.255,1.432-6.087,3.223-11.095,3.223-11.36A1.884,1.884,0,0,0,589.761,14.1Zm-11.63-7.07c.27-1.072.718-2.322.984-2.056a12.248,12.248,0,0,1-.089,1.432,36.937,36.937,0,0,0-.807,3.935,161.96,161.96,0,0,0-2.863,16.822c-.089.265-.089.177-.089-.271C575.267,24.212,576.97,12.758,578.131,7.031Zm-19.774,3.311a63.711,63.711,0,0,0-2.145,8.231,2.255,2.255,0,0,1-.177.625c-.088.094-.182-.448-.088-1.431.088-3.666.536-5.009,1.874-7.242C558.9,8.463,559.076,8.551,558.357,10.342Zm1.432,7.425c-.625,2.774-.713,2.686-.448.093,0-1.077,1.526-8.413,2.864-8.413C561.58,11.863,560.237,15.174,559.789,17.767Zm2.687,10.2-.089-.448a45.228,45.228,0,0,1,.089-7.784,37.507,37.507,0,0,1,3.311-10.287,13.37,13.37,0,0,1,5.633-5.9c.63-.359,1.255-.448,1.166-.177-2.15,4.113-1.791,8.679-3.847,12.433-1.614,3.222-4.118,9.4-5.55,11.365Z" fill="#975d55"/><path d="M629.3,14.278a1.9,1.9,0,0,0-2.592,1.073,9.067,9.067,0,0,1-1.52,2.239,11.072,11.072,0,0,1-5.457,3.488V19.557c0-.807-.093-1.7-.093-2.327-.266-3.217-.891-5.456-2.234-7.335a6.5,6.5,0,0,0-5.815-2.77c-4.743.443-10.381,7.783-12.974,17.264-.359,1.072-.536,1.968-.625,2.239a97.513,97.513,0,0,1,.089-12.527,49.045,49.045,0,0,0,5.456-5.727A55.49,55.49,0,0,0,611.5-3.881c1.7-4.295,1.338-8.054-1.431-10.2a9.833,9.833,0,0,0-10.111-.718c-6.174,3.581-9.392,11.006-10.824,17.269-2.863,11.183-3.045,33.814,6.263,41.957.625-.266,1.521.9,2.682.27.27.089.447-.359.718-.088s.89-.271,1.25-.984a13.028,13.028,0,0,0,.624-3.494c.271-3.128.537-5.633.9-7.689,1.52-8.231,4.743-15.478,8.413-19.326,1.338-1.343,2.322-2.15,2.593-1.879.536.536,1.072,5.279,1.072,8.856,0,2.056-.088,2.6-.447,2.6a23.1,23.1,0,0,0-4.92,2.681,14.751,14.751,0,0,0-4.92,6.263,13.768,13.768,0,0,0-.271,7.158,6.016,6.016,0,0,0,6.982,5.009c2.952-.359,5.544-2.593,6.887-5.815.984-2.145,1.7-5.727,2.234-10.824l.182-1.968a15.583,15.583,0,0,0,11-8.413A1.95,1.95,0,0,0,629.3,14.278Zm-19.414-17.8A43.085,43.085,0,0,1,606.035,3.1a55.69,55.69,0,0,1-4.29,5.456c-.271.271-.094,0,.625-.89a29.246,29.246,0,0,0,2.415-3.134c1.161-1.7,4.473-7.336,5.191-8.767C610.689-5.937,610.6-5.4,609.882-3.522Zm-.8-1.968a9.021,9.021,0,0,1-.63,1.609c-1.432,3.665-4.384,7.872-10.2,14.671a88.153,88.153,0,0,0,10.292-15.3C608.81-5.136,608.987-5.49,609.081-5.49Zm-1.968-7.158C610.96-9.249,604.338.68,602.635,3.1c-.984,1.432-3.217,4.207-4.649,5.9a47.266,47.266,0,0,1,.625-6.617C599.683-2.9,604.249-15.152,607.113-12.648ZM592.8-1.377c.27-.265,3.222-8.142,5.367-10.11C599.418-12.737,592.8-1.736,592.8-1.377ZM613.1,28.236c-.718,5.727-1.432,8.408-2.775,10.288a6.981,6.981,0,0,1-1.968,1.7c-.265,0-.536-2.238-.536-3.67a9.212,9.212,0,0,1,2.5-6.44A18.528,18.528,0,0,1,613.1,27.7Z" fill="#975d55"/><path d="M653.893,14.461a1.858,1.858,0,0,0-2.416,1.161,147.017,147.017,0,0,1-5.727,14.311c-3.128,6.264-4.919,8.143-6.617,9.663-2.15-7.783,1.968-19.862,4.113-27.2,1.791-6.352-.088-7.872-5.815-6.8-1.161.27-3.041,1.968-4.561,3.311,1.073-2.952,1.161-6.352.448-8.231-.984-2.416-5.1-3.311-7.7-1.88-3.582,1.88-6.086,15.567.177,18.253,4.025,2.145,8.5-1.608,8.767-3.759a5.619,5.619,0,0,1-.9,2.239c-5.279,9.127-9.84,30.951,5.1,29.519,8.231-1.072,14.494-24.776,16.368-28.176A1.9,1.9,0,0,0,653.893,14.461ZM627.95,12.31c-1.614-.713-1.166-7.247-.447-8.678.265-.625.447-1.432,1.072-2.77C629.918,3.991,628.575,8.109,627.95,12.31Zm12.969-.984a11.086,11.086,0,0,1-.984,2.864,81.1,81.1,0,0,0-6.263,18.878l-.089,1.249V32.708c0-3.665.807-6.08,3.848-12.974C637.7,18.75,640.471,10.165,640.919,11.326Zm-8.142,13.688c.989-2.682,5.372-13.151,5.549-13.151a5.363,5.363,0,0,1-.447,1.072l-1.073,2.51A67.423,67.423,0,0,0,631.7,32c-.265,2.416-.265,2.593-.536,2.322v-.625a7.535,7.535,0,0,1,0-1.431A23.944,23.944,0,0,1,632.777,25.014Z" fill="#975d55"/><path d="M657.553-9.426c-.088.089-.265.177-.354.089-.718-.271-1.432.895-1.791,2.416a3.4,3.4,0,0,0,2.057,3.847c.629.265.629,0,.895.265.448.271.625.178.625-.265,0-.271.093-.271.27,0,.271.443.625.443.714.088.093-.27.447.266,1.077-.182.266-.265.448-.447.354-.713a2.158,2.158,0,0,1,.542-.984,1.7,1.7,0,0,0,.625-1.166c-.089-.713-.984-1.874-1.614-1.874-.177.088-.354,0-.443-.36-.63-.359-.359-1.254-.984-.624-.182.177-.271.177-.271-.094,0-.625-.447-.625-1.072,0s-.807.63-.448,0c.266-.354.266-.536.089-.536A.331.331,0,0,0,657.553-9.426Zm16.014,23.439a1.934,1.934,0,0,0-2.322,1.52c-.718,4.295-3.935,16.639-8.678,19.5-3.582,2.145-4.655-3.4-4.655-5.639-.265-8.585,3.311-16.639,2.864-25.047l-.089-1.7-.536-.266c-.719-.63-.807-.536-1.073-.63s-.359,0-.984.719v-.36c.089-.359-.093-.359-.359-.088-.27.088-1.608-.536-2.327.088-.713.719-2.239,5.9-2.775,7.695a58.77,58.77,0,0,0-2.233,8.5c-1.073,4.743-1.432,7.695-1.167,10.558.63,6.711,5.014,10.647,11.543,10.647,6.711,0,10.2-9.3,11.9-14.135a51.459,51.459,0,0,0,2.416-9.127A1.919,1.919,0,0,0,673.567,14.013ZM651.743,31.277c-.271,0-.807-2.234-.807-3.041a12.053,12.053,0,0,1,.088-2.415c.089-.448.089-.9.177-1.161,0-.183,0-.36.094-.448v3.129l.266,2.145a8.961,8.961,0,0,0,.182,1.525Z" fill="#975d55"/><path d="M700.134,14.19a1.957,1.957,0,0,0-2.5,1.161,72.608,72.608,0,0,1-4.743,10.558c-.89,1.609-6.617,10.918-9.48,9.486a7.9,7.9,0,0,1-1.7-3.311c-.989-2.864-.447-9.663-.447-14.494,0-1.791,1.785-2.328,6.081-7.336,2.775-3.311,4.472-6.711,4.472-9.127A4.129,4.129,0,0,0,688.6-2.809c-4.92-1.343-8.767,1.255-11.719,4.743-8.679,10.111-10.293,36.231,7.336,37.308,4.2-.359,8.137-4.383,12.167-11.542A71.58,71.58,0,0,0,701.3,16.606,1.833,1.833,0,0,0,700.134,14.19ZM681.262,9.535A24.609,24.609,0,0,1,685.911.862c.807-.807.807-.807,1.072-.536,2.328,2.592-5.274,10.464-6.351,11.537C680.632,11.774,680.9,10.879,681.262,9.535Zm-4.03,1.614A22.809,22.809,0,0,1,679.2,6.943c.719-1.343.9-1.432.448-.359-.448,1.166-1.52,4.742-2.234,6.893-.536,1.785-.9,2.592-1.166,2.322A31.258,31.258,0,0,1,677.232,11.149Zm-4.384,5.1A24.222,24.222,0,0,1,676.16,7.39c.718-1.16.9-1.343.447-.447A63.034,63.034,0,0,0,673.3,16.965c-.265.984-.265,3.129-.359,3.217C672.671,20.453,672.583,18.485,672.848,16.246Z" fill="#975d55"/><path d="M724.912,13.919a1.925,1.925,0,0,0-2.239,1.614s-1.161,6.44-3.04,13.151c-3.311,11.719-5.992,14.494-6.976,14.942-.448.265-.719.265-.984,0-.448-.182-1.88-3.311-2.328-4.925A37.247,37.247,0,0,1,707.914,32c-.266-1.791-.536-7.965-.536-13.245l.9-1.338c5.008-8.054,7.424-12.973,8.143-17.805.984-5.544-.807-13.958-7.248-14.942-2.061-.088-3.581.36-4.472,1.255-8.767,12.615-6.981,29.613-6.711,36.324.984,11.537,4.025,19.768,8.768,23.35a8.7,8.7,0,0,0,5.279,2.145,5.344,5.344,0,0,0,2.5-.719c1.786-.984,3.577-3.394,5.279-7.065a60.352,60.352,0,0,0,3.577-10.2c1.879-6.887,3.129-13.327,3.129-13.6A1.96,1.96,0,0,0,724.912,13.919ZM707.018,12.4V9.718c0-2.15.089-5.727.36-8.5.359-5.274,1.343-10.017,2.686-12.256.713-1.343,1.072-.359,1.7.448,2.239,3.488,1.88,8.32.807,11.808a45.129,45.129,0,0,1-5.013,11.277l-.537.984Zm.36,2.416a18.475,18.475,0,0,1,1.343-2.5,44.722,44.722,0,0,0,3.759-7.6,5.506,5.506,0,0,1,.8-1.525.976.976,0,0,1-.088.448,9.075,9.075,0,0,0-.359.895,59.554,59.554,0,0,1-4.65,9.3l-.806,1.343Zm0,1.879a3.733,3.733,0,0,1,.536-.984,87.853,87.853,0,0,0,5.9-11,1.95,1.95,0,0,1,.27-.718l.177-.266L714,4.439a17.558,17.558,0,0,0-.63,1.7l-2.145,4.477a59.018,59.018,0,0,1-3.847,6.352Z" fill="#975d55"/><path d="M759.172,14.1a1.885,1.885,0,0,0-2.327,1.432c0,.089-1.25,5.279-3.129,11a36.813,36.813,0,0,1-3.311,7.606c-.625.9-2.145,2.775-2.864,1.791-.624-.63-.624-2.327-.359-4.472,0-4.477,4.566-21.924,4.566-25.948a6.22,6.22,0,0,0-.63-4.113c-.354-.984-1.52-1.791-1.786-1.52-.182.177-.359.177-.536-.094a5.231,5.231,0,0,0-2.686-1.52,14.293,14.293,0,0,0-7.159-.625c-4.561.448-9.392,3.4-12.521,7.424-5.191,6.888-6.263,22.189-1.7,26.484a6.776,6.776,0,0,0,3.04,1.786,5.735,5.735,0,0,0,2.327.182c1.7-.088,2.687-.182,3.848-1.166a9.055,9.055,0,0,0,2.863-4.383l.448-1.161c1.161,8.408,2.145,11.9,4.831,13.239,6.352,3.311,11.99,1.166,15.3-12.255,1.432-6.087,3.223-11.095,3.223-11.36A1.885,1.885,0,0,0,759.172,14.1Zm-11.631-7.07c.271-1.072.719-2.322.984-2.056a12.382,12.382,0,0,1-.088,1.432,36.937,36.937,0,0,0-.807,3.935,162.252,162.252,0,0,0-2.864,16.822c-.088.265-.088.177-.088-.271C744.678,24.212,746.38,12.758,747.541,7.031Zm-19.773,3.311a63.711,63.711,0,0,0-2.145,8.231,2.258,2.258,0,0,1-.177.625c-.088.094-.182-.448-.088-1.431.088-3.666.536-5.009,1.874-7.242C728.309,8.463,728.486,8.551,727.768,10.342Zm1.432,7.425c-.625,2.774-.714,2.686-.448.093,0-1.077,1.525-8.413,2.863-8.413C730.991,11.863,729.647,15.174,729.2,17.767Zm2.686,10.2-.088-.448a45.122,45.122,0,0,1,.088-7.784A37.575,37.575,0,0,1,735.2,9.447a13.38,13.38,0,0,1,5.633-5.9c.63-.359,1.255-.448,1.167-.177-2.151,4.113-1.791,8.679-3.848,12.433-1.614,3.222-4.118,9.4-5.55,11.365Z" fill="#975d55"/></g></svg>