<svg xmlns="http://www.w3.org/2000/svg" xmlns:xlink="http://www.w3.org/1999/xlink" width="155.937" height="17.873" viewBox="0 0 155.937 17.873"><defs><clipPath id="a"><rect width="155.937" height="17.873" transform="translate(483.625 173.231)" fill="none"/></clipPath></defs><g transform="translate(-483.625 -173.231)"><g clip-path="url(#a)"><path d="M634.538,182c.031,0,.031.031.062.062a.06.06,0,0,1-.031.094c-.062.031-.062.031-.187,0,.031-.063.093-.094.125-.125-.995,0-7.529-.125-7.529-.125h.813l-5.259-.094h-1.338a.114.114,0,0,1,.032.094.134.134,0,0,1-.183.125.138.138,0,0,1-.125-.188c0-.031,0-.031.032-.062l-5.509-.031v.031c0,.094-.057.125-.151.125-.062,0-.093-.063-.093-.156h-.125c.062-.063.25-.219.526-.469a.4.4,0,0,1-.094-.125V181.1c0-.063.031-.094.094-.157a.043.043,0,0,1,.062,0,.263.263,0,0,0,.219.063h.031c.094-.094.187-.156.281-.25a.03.03,0,0,0-.031-.031v-.063l.031-.031h.063l.031.031c.9-.812,2.207-1.962,3.483-3.087a.145.145,0,0,1-.031-.187c0-.032.031-.032.062-.032s.063,0,.063.032.031.093.031.125c.369-.344.744-.656,1.119-1l-.031-.031c0-.063.062-.125.125-.094l.031.031c.307-.281.62-.562.9-.812-.063.031-.094.031-.156.063a.108.108,0,0,0-.032-.063.381.381,0,0,1,.157-.156c.031,0,.093.031.093.062v.032c.932-.844,1.739-1.562,2.145-1.968-.031-.032-.031-.063-.031-.125v-.032c-.687.469-2.207,1.781-3.889,3.218h.094a.06.06,0,0,1,.031.094c-.031.062-.031.062-.156.125v-.188c-.776.656-1.552,1.343-2.3,2h.032c.062,0,.125,0,.156.063a.135.135,0,0,1-.063.219.136.136,0,0,1-.156-.032c-.062-.031-.093-.062-.062-.125-.9.807-1.739,1.526-2.364,2.088v.031a.068.068,0,0,1-.062.063h-.063c-.057.031-.088.093-.12.125.032,0,.032,0,.032.031s0,.062-.032.062h-.031a.03.03,0,0,1-.031-.031v-.031a9.252,9.252,0,0,0-.687.625h-3.546c0,.031,0,.031-.031.062a.429.429,0,0,1-.213-.062l-7.185-.032c.094-.093.25-.218.463-.406a.346.346,0,0,1-.088-.125v-.062c0-.063.026-.094.088-.156a.043.043,0,0,1,.063,0,.265.265,0,0,0,.219.062h.031c.093-.094.187-.156.281-.25a.03.03,0,0,0-.031-.031v-.062l.031-.032h.062l.032.032c.9-.813,2.207-1.963,3.483-3.088a.146.146,0,0,1-.032-.187c0-.031.032-.031.063-.031s.062,0,.062.031.032.094.032.125c.369-.344.744-.656,1.119-1l-.031-.031c0-.062.062-.125.125-.094l.031.032c.307-.282.619-.563.9-.813-.062.032-.093.032-.156.063a.113.113,0,0,0-.031-.063.378.378,0,0,1,.156-.156c.031,0,.094.031.094.063v.031c.932-.844,1.739-1.562,2.145-1.968-.031-.031-.031-.063-.031-.125v-.031c-.682.468-2.208,1.78-3.889,3.217h.093a.06.06,0,0,1,.032.094c-.032.062-.032.062-.157.125V176.7c-.775.656-1.551,1.344-2.3,2h.031c.063,0,.125,0,.157.062a.135.135,0,0,1-.063.219.138.138,0,0,1-.156-.031c-.062-.032-.094-.063-.062-.125-.9.807-1.739,1.525-2.364,2.087v.031a.062.062,0,0,1-.057.063h-.063c-.062.031-.094.094-.125.125.031,0,.031,0,.031.031s0,.063-.031.063h-.031a.031.031,0,0,1-.031-.032v-.031c-.313.281-.531.469-.656.562l-11.35-.031c.094-.094.25-.218.438-.375a.405.405,0,0,1-.094-.125v-.062c0-.063.031-.094.094-.156a.042.042,0,0,1,.062,0,.265.265,0,0,0,.219.062h.031c.094-.094.182-.156.276-.25a.03.03,0,0,0-.031-.031v-.062l.031-.032h.062l.032.032c.9-.813,2.207-1.963,3.482-3.119a.147.147,0,0,1-.031-.187c0-.032.031-.032.063-.032s.062,0,.062.032.031.093.031.125c.375-.344.745-.656,1.12-1l-.031-.031c0-.063.062-.125.124-.094l.032.031c.312-.281.619-.562.9-.812-.062.031-.093.031-.156.063a.109.109,0,0,0-.031-.063.378.378,0,0,1,.156-.156c.031,0,.094.031.094.062v.032c.932-.844,1.744-1.562,2.145-1.968-.031-.032-.031-.063-.031-.125v-.032c-.682.469-2.208,1.781-3.884,3.218h.093a.06.06,0,0,1,.032.094c-.032.062-.032.062-.156.125v-.188c-.781.656-1.557,1.343-2.3,2h.032c.062,0,.125,0,.156.063a.135.135,0,0,1-.063.219.136.136,0,0,1-.156-.032c-.062-.031-.094-.062-.062-.125-.9.807-1.744,1.526-2.364,2.088v.031a.068.068,0,0,1-.062.063H591.9c-.062.031-.094.093-.125.125.031,0,.031,0,.031.031s0,.062-.031.062h-.031a.03.03,0,0,1-.031-.031v-.031c-.281.25-.464.437-.589.531l-9.267-.031a.114.114,0,0,1-.031.093.077.077,0,0,1-.125.032c-.062-.032-.094-.063-.094-.125h-.994c.094-.094.219-.188.375-.344a.421.421,0,0,1-.094-.125V181.1c0-.063.031-.094.094-.157a.038.038,0,0,1,.057,0,.263.263,0,0,0,.219.063h.031c.094-.094.187-.156.281-.25a.03.03,0,0,0-.031-.031v-.063l.031-.031h.063l.031.031c.9-.812,2.207-1.962,3.483-3.087a.145.145,0,0,1-.031-.187c0-.032.031-.032.062-.032s.063,0,.063.032.031.093.031.125c.369-.344.744-.656,1.119-1l-.031-.031c0-.063.062-.125.125-.094l.031.031c.307-.281.62-.562.9-.812-.063.031-.094.031-.156.063a.108.108,0,0,0-.032-.063.384.384,0,0,1,.156-.156c.032,0,.094.031.094.062v.032c.932-.844,1.739-1.562,2.145-1.968-.031-.032-.031-.063-.031-.125v-.032c-.682.469-2.208,1.781-3.889,3.218h.094a.06.06,0,0,1,.031.094c-.031.062-.031.062-.156.125v-.188c-.776.656-1.552,1.343-2.3,2h.032c.062,0,.125,0,.156.063a.135.135,0,0,1-.063.219.136.136,0,0,1-.156-.032c-.057-.031-.088-.062-.057-.125-.906.807-1.744,1.526-2.364,2.088v.031a.068.068,0,0,1-.062.063H580.8c-.062.031-.093.093-.125.125.032,0,.032,0,.032.031s0,.062-.032.062h-.031a.03.03,0,0,1-.031-.031v-.031c-.25.219-.437.375-.562.5h-.063a.03.03,0,0,0,.031.031.368.368,0,0,0-.124.125h.187a.108.108,0,0,0,.031.062c-.031.032-.062.063-.094.063-.031-.031-.062-.031-.093-.063a.3.3,0,0,0-.214-.125.114.114,0,0,1-.093-.031c-.063-.031-.094-.062-.094-.125l-4.977-.031a.186.186,0,0,1-.156.062.266.266,0,0,1-.188-.062h-.744a.143.143,0,0,1-.094.094.1.1,0,0,1-.094-.094h-2.952c.094-.062.188-.187.344-.281a.435.435,0,0,1-.094-.125v-.063c0-.062.031-.093.094-.156a.043.043,0,0,1,.062,0c.058.063.12.063.214.063h.031c.094-.094.187-.156.281-.25a.03.03,0,0,0-.031-.031v-.063l.031-.031h.063l.031.031c.9-.812,2.207-1.963,3.483-3.087a.146.146,0,0,1-.031-.188c0-.031.031-.031.062-.031s.063,0,.063.031.031.094.031.125c.369-.343.744-.656,1.119-1l-.031-.031c0-.063.062-.125.125-.094l.031.031c.307-.281.62-.562.9-.812-.063.031-.094.031-.156.062a.107.107,0,0,0-.032-.062.375.375,0,0,1,.157-.156c.031,0,.093.031.093.062v.031c.932-.843,1.739-1.561,2.145-1.968-.031-.031-.031-.062-.031-.125v-.031c-.682.469-2.207,1.781-3.889,3.218h.094a.059.059,0,0,1,.031.093c-.031.063-.031.063-.156.125v-.187c-.776.656-1.552,1.343-2.3,2h.031c.062,0,.125,0,.156.063a.134.134,0,0,1-.063.218.127.127,0,0,1-.151-.031c-.062-.031-.093-.062-.062-.125-.906.807-1.744,1.526-2.364,2.088v.031a.067.067,0,0,1-.062.062h-.063c-.062.032-.093.094-.125.125.032,0,.032,0,.032.032s0,.062-.032.062h-.031a.03.03,0,0,1-.031-.031V181.1c-.219.187-.406.343-.531.468h-.682a.116.116,0,0,1-.031.094.266.266,0,0,1-.219.062c-.062,0-.125-.031-.125-.093v-.063H567.43c.031.031.031.031.031.094a.1.1,0,0,1-.094.094c-.031,0-.062-.063-.062-.063,0-.031.031-.062.031-.094h-3.264c0,.032-.032.032-.063,0H556.3a.109.109,0,0,0,.031.063.06.06,0,0,1-.094.031.1.1,0,0,1-.031-.062.031.031,0,0,1,.031-.032H555.4c-.125-.124-.281-.249-.5-.437v.031l-.031.032h-.031c-.032-.032-.063-.063-.032-.063l.032-.031-.125-.125h-.057a.067.067,0,0,1-.063-.063v-.031c-.625-.562-1.463-1.28-2.364-2.087a.165.165,0,0,1-.062.125.284.284,0,0,1-.156.031.135.135,0,0,1-.063-.219c.032-.062.094-.062.156-.062h.032c-.75-.656-1.526-1.344-2.3-2v.188c-.094-.063-.125-.063-.157-.125-.031-.031,0-.063.032-.094.031,0,.062-.031.093,0-1.681-1.437-3.2-2.749-3.889-3.217v.031c0,.062,0,.094-.031.125.406.406,1.182,1.124,2.145,1.968v-.031c0-.063.031-.094.094-.063a.2.2,0,0,1,.156.156c0,.032-.031.032-.031.063-.063-.031-.125-.031-.157-.063.282.25.594.531.9.813l.031-.032c.063-.031.125.032.125.094,0,.031,0,.031-.031.031.375.313.75.656,1.119,1a.184.184,0,0,1,.032-.125c0-.031.031-.063.062-.031a.113.113,0,0,1,.063.031.2.2,0,0,1-.032.187c1.276,1.156,2.583,2.307,3.483,3.119a.031.031,0,0,1,.032-.031h.062l.031.031v.062a.031.031,0,0,1-.031.032,2.026,2.026,0,0,0,.281.249h.031a.3.3,0,0,0,.219-.062h.063a.266.266,0,0,1,.093.156v.063c-.031.031-.062.093-.093.125a2.663,2.663,0,0,1,.307.281H551.6c0,.062-.063.125-.125.093-.032,0-.063-.062-.063-.093V181.6h-1.8v.032a.455.455,0,0,1-.219-.032h-.375c-.031.032-.031.032-.057.032s-.031,0-.062-.032h-3.858c-.125-.124-.313-.281-.531-.468v.031l-.031.031h-.032c-.031-.031-.062-.062-.031-.062l.031-.031c-.031-.032-.088-.094-.119-.125h-.063a.068.068,0,0,1-.062-.063v-.031c-.625-.562-1.463-1.281-2.364-2.088a.159.159,0,0,1-.063.125.274.274,0,0,1-.156.032.135.135,0,0,1-.062-.219c.031-.063.094-.063.156-.063h.031c-.749-.656-1.525-1.343-2.3-2v.188c-.094-.063-.125-.063-.156-.125-.031-.032,0-.063.031-.094.031,0,.063-.031.094,0-1.682-1.437-3.2-2.749-3.889-3.218v.032c0,.062,0,.093-.031.125.406.406,1.181,1.124,2.145,1.968v-.032c0-.062.031-.093.093-.062a.2.2,0,0,1,.156.156c0,.031-.031.031-.031.063-.062-.032-.125-.032-.156-.063.281.25.594.531.906.812l.031-.031c.057-.031.12.031.12.094,0,.031,0,.031-.031.031.374.312.749.656,1.119,1a.188.188,0,0,1,.031-.125c0-.032.031-.063.063-.032a.107.107,0,0,1,.062.032.207.207,0,0,1-.031.187c1.275,1.156,2.582,2.306,3.483,3.119a.031.031,0,0,1,.031-.032h.063l.031.032v.062a.03.03,0,0,1-.031.031,1.922,1.922,0,0,0,.281.25h.031a.3.3,0,0,0,.219-.062h.062c.031.031.094.093.094.156v.062c-.031.032-.063.094-.094.125a3.648,3.648,0,0,1,.339.313H544.3a.144.144,0,0,1-.156.093c-.031,0-.062-.031-.062-.093H542.4v.062a.06.06,0,0,1-.094.031c-.031-.031-.062-.062-.062-.093h-.776a1.692,1.692,0,0,0-.187.25c0,.031-.063.031-.063.031a.067.067,0,0,1-.062-.063v-.125c.031-.031.062-.062.093-.062h-.338a.09.09,0,0,1,.057.125c0,.062-.057.094-.119.094a.139.139,0,0,1-.094-.125c0-.063.031-.094.094-.125l-6.935.031a6.682,6.682,0,0,0-.594-.5v.031l-.031.032h-.031c-.031-.032-.063-.063-.031-.063l.031-.031-.125-.125h-.063a.067.067,0,0,1-.062-.063v-.031c-.62-.562-1.458-1.28-2.364-2.087a.161.161,0,0,1-.057.125.283.283,0,0,1-.156.031.135.135,0,0,1-.063-.219c.032-.062.094-.062.157-.062h.031c-.75-.656-1.526-1.344-2.3-2v.188c-.094-.063-.125-.063-.156-.125-.032-.031,0-.063.031-.094.031,0,.062-.031.093,0-1.681-1.437-3.207-2.749-3.889-3.217v.031c0,.062,0,.094-.031.125.406.406,1.182,1.124,2.145,1.968v-.031c0-.063.031-.094.094-.063a.2.2,0,0,1,.156.156c0,.032-.031.032-.031.063-.063-.031-.125-.031-.156-.063.281.25.593.531.9.813l.032-.032c.062-.031.124.032.124.094,0,.031,0,.031-.031.031.375.313.75.656,1.12,1a.189.189,0,0,1,.031-.125c0-.031.031-.063.062-.031a.109.109,0,0,1,.063.031.207.207,0,0,1-.031.187c1.275,1.156,2.582,2.307,3.483,3.119a.03.03,0,0,1,.031-.031h.062l.031.031v.062a.031.031,0,0,1-.031.032,2.087,2.087,0,0,0,.281.249h.032a.3.3,0,0,0,.218-.062h.058a.266.266,0,0,1,.093.156v.063c-.031.031-.062.093-.093.125a2.9,2.9,0,0,0,.406.343h-8.643a.188.188,0,0,1-.125.031c-.031,0-.031,0-.062-.031h-2.957c-.12-.094-.339-.312-.62-.562v.031l-.031.031h-.031c-.032-.031-.063-.062-.032-.062l.032-.031-.125-.125h-.063a.068.068,0,0,1-.062-.063v-.031c-.62-.562-1.458-1.281-2.364-2.088a.162.162,0,0,1-.062.125.277.277,0,0,1-.156.032.136.136,0,0,1-.058-.219c.031-.063.089-.063.151-.063h.031c-.744-.656-1.52-1.343-2.3-2v.188c-.093-.063-.125-.063-.151-.125-.031-.032,0-.063.026-.094.032,0,.063-.031.094,0-1.739-1.437-3.264-2.718-3.946-3.186v.031c0,.062,0,.094-.032.125.407.406,1.182,1.124,2.145,1.968v-.031c-.031-.063,0-.094.063-.094a.2.2,0,0,1,.156.156c0,.031-.031.031-.031.063-.063-.032-.125-.032-.156-.063.281.25.588.531.9.812l.032-.031c.062-.031.125.031.125.094,0,.031,0,.031-.032.031.375.312.745.656,1.12,1a.188.188,0,0,1,.031-.125c0-.032.031-.063.062-.032a.108.108,0,0,1,.063.032.207.207,0,0,1-.031.187c1.275,1.156,2.582,2.306,3.483,3.119a.031.031,0,0,1,.031-.032h.062l.032.032v.062a.031.031,0,0,1-.032.031,2.028,2.028,0,0,0,.281.25h.032a.286.286,0,0,0,.213-.062h.063a.263.263,0,0,1,.093.156v.062c-.031.032-.062.094-.093.125.187.188.343.313.437.406l-5.409.032a.165.165,0,0,1-.125.062c-.032,0-.063-.031-.094-.062h-.838a.108.108,0,0,1,.031.062.116.116,0,0,1-.031.094c-.031.062-.094.094-.156.187-.032-.031-.063-.062-.094-.062-.031-.094.062-.188.156-.25h-1.213V182a.108.108,0,0,1-.062.031c-.032,0-.032-.031-.032-.063a.112.112,0,0,1,.032-.093c0-.032.031-.063.062-.094h-3.171c-.093-.094-.343-.312-.687-.594v.032l-.031.031h-.031c-.032-.031-.063-.063-.032-.063l.032-.031-.125-.125h-.063a.067.067,0,0,1-.062-.062v-.032c-.62-.562-1.458-1.28-2.364-2.087a.178.178,0,0,1-.057.125.285.285,0,0,1-.156.031.135.135,0,0,1-.063-.219c.032-.062.094-.062.156-.062h.032c-.75-.656-1.526-1.343-2.3-2v.187c-.094-.062-.125-.062-.157-.125-.031-.031,0-.062.032-.094.031,0,.062-.031.093,0-1.744-1.5-3.3-2.78-3.951-3.248v.031c0,.062,0,.094-.031.125.406.406,1.181,1.124,2.145,1.968v-.031c0-.063.031-.094.093-.063a.2.2,0,0,1,.156.156c0,.032-.031.032-.031.063-.062-.031-.125-.031-.156-.063.281.25.593.531.9.813l.031-.032c.062-.031.125.032.125.094,0,.031,0,.031-.031.031.374.313.749.656,1.119,1a.189.189,0,0,1,.031-.125c0-.031.031-.063.063-.031a.108.108,0,0,1,.062.031.207.207,0,0,1-.031.187c1.275,1.156,2.582,2.307,3.483,3.119a.03.03,0,0,1,.031-.031h.063l.031.031v.062a.031.031,0,0,1-.031.032,1.969,1.969,0,0,0,.281.249h.031a.3.3,0,0,0,.219-.062h.062c.026.031.089.094.089.156v.063a1.437,1.437,0,0,0-.089.125c.245.218.4.343.495.437h-2.676a.108.108,0,0,0,.062.031c-.031.031-.062.031-.094.063v-.032a.107.107,0,0,1-.088.032.287.287,0,0,1-.219-.094l-6.966.031.032.031a.111.111,0,0,0-.032.063l-.062-.063a.03.03,0,0,1,.031-.031l-2.645.063c.125,0,.094.031-.187.031v.125c0,.031-.031.031-.031.062a.238.238,0,0,1-.157.063c-.031,0-.031-.031-.057-.031,0-.063-.062-.125-.125-.188l-.031-.031h-.375v.031c-.031.031-.031.031-.062.031h-.032a.03.03,0,0,1-.031-.031v-.031c-1.213,0-2.92.031-4.665.031a.191.191,0,0,1-.093.188h-.063c-.031,0-.031-.032-.031-.063.031-.031.031-.062.063-.094-.495,0-.995,0-1.489.032v.031c-.032.062-.125.031-.157,0V182c-.406,0-.843,0-1.213.031.063.031.094.031.156.062,0,.032,0,.063-.031.063a.267.267,0,0,1-.218,0,.058.058,0,0,1,0-.094l.031-.031c-1.276.031-2.333.031-2.9.062a.234.234,0,0,1-.062.125l-.032.031c.813.094,2.833.125,5.04.157-.031,0-.031-.032-.062-.063a.06.06,0,0,1,.031-.094c.062-.031.062-.031.187,0-.031.063-.093.094-.125.125.995,0,7.523.125,7.523.125h-.807l5.259.063h1.332c-.151-.063-.151-.094-.151-.125a.134.134,0,0,1,.183-.125.138.138,0,0,1,.125.187c0,.032,0,.032-.032.063l5.5.031v-.031c0-.094.063-.125.157-.125.062,0,.093.062.093.156h.125c-.062.063-.25.219-.526.469a.406.406,0,0,1,.094.125v.062c0,.063-.031.094-.094.156a.043.043,0,0,1-.062,0,.266.266,0,0,0-.219-.062h-.031c-.094.093-.187.156-.281.25a.03.03,0,0,0,.031.031v.062l-.031.032H508.1l-.031-.032c-.9.813-2.207,1.968-3.483,3.093a.145.145,0,0,1,.031.187c0,.032-.031.032-.062.032s-.063,0-.063-.032-.031-.093-.031-.125c-.369.344-.744.656-1.119,1l.031.031c0,.063-.062.125-.125.094l-.031-.031c-.307.281-.62.562-.9.812.063-.031.094-.031.156-.063a.108.108,0,0,0,.032.063.384.384,0,0,1-.156.156c-.032,0-.094-.031-.094-.062v-.032c-.932.844-1.739,1.562-2.145,1.968.031.032.031.063.031.125v.031c.687-.468,2.208-1.78,3.889-3.217h-.094a.06.06,0,0,1-.031-.094c.031-.062.031-.062.156-.125v.188c.776-.656,1.552-1.343,2.3-2h-.032c-.062,0-.125,0-.156-.063a.135.135,0,0,1,.063-.219.136.136,0,0,1,.156.032c.062.031.093.062.062.125.9-.813,1.739-1.531,2.364-2.093v-.032a.066.066,0,0,1,.057-.062h.063c.062-.031.093-.094.125-.125-.032,0-.032,0-.032-.031s0-.063.032-.063h.031a.031.031,0,0,1,.031.032v.031c.375-.313.594-.531.687-.625h3.546c0-.031,0-.031.031-.062a.449.449,0,0,1,.213.062l7.185.031c-.094.094-.25.219-.463.406a.583.583,0,0,1,.088.125v.063c0,.062-.031.094-.088.156a.044.044,0,0,1-.063,0,.265.265,0,0,0-.219-.062h-.031c-.093.093-.187.156-.281.249a.031.031,0,0,0,.031.032v.062l-.031.031h-.062l-.032-.031c-.9.812-2.207,1.968-3.483,3.093a.146.146,0,0,1,.032.187c0,.031-.032.031-.063.031s-.062,0-.062-.031-.032-.094-.032-.125c-.369.344-.744.656-1.119,1l.031.031c0,.062-.062.125-.125.094l-.031-.032c-.307.282-.619.563-.9.813.062-.032.093-.032.156-.063a.113.113,0,0,0,.031.063.378.378,0,0,1-.156.156c-.031,0-.094-.031-.094-.063v-.031c-.932.843-1.739,1.562-2.145,1.968.031.031.031.063.031.125v.031c.682-.468,2.208-1.78,3.889-3.217H515.5a.06.06,0,0,1-.032-.094c.032-.062.032-.062.157-.125v.188c.775-.656,1.551-1.344,2.3-2H517.9c-.063,0-.125,0-.157-.062a.135.135,0,0,1,.063-.219.138.138,0,0,1,.156.031c.062.032.089.063.062.125.9-.812,1.739-1.53,2.359-2.093v-.031a.067.067,0,0,1,.062-.062h.063c.062-.031.094-.094.125-.125-.031,0-.031,0-.031-.031s0-.063.031-.063h.031a.03.03,0,0,1,.031.031v.032q.469-.423.656-.563l11.131.032c-.094.093-.25.218-.406.374a.45.45,0,0,1,.094.125v.063c0,.062-.031.094-.094.156a.043.043,0,0,1-.062,0,.266.266,0,0,0-.219-.062h-.026c-.094.093-.188.156-.281.249a.031.031,0,0,0,.031.032v.062l-.031.031h-.063l-.031-.031c-.9.812-2.207,1.968-3.483,3.124a.145.145,0,0,1,.031.187c0,.032-.031.032-.062.032s-.063,0-.063-.032-.031-.093-.031-.125c-.375.344-.744.656-1.119,1l.031.031c0,.063-.062.125-.125.094l-.031-.031c-.313.281-.62.562-.9.812.063-.031.094-.031.156-.063a.108.108,0,0,0,.032.063.381.381,0,0,1-.157.156c-.031,0-.093-.031-.093-.062v-.032c-.932.844-1.744,1.562-2.145,1.968.031.032.031.063.031.125v.031c.682-.468,2.207-1.78,3.884-3.217h-.094c-.031,0-.057-.062-.031-.094.031-.062.031-.062.156-.125v.188c.781-.656,1.557-1.343,2.3-2h-.031c-.062,0-.125,0-.156-.063a.139.139,0,0,1,.062-.219.136.136,0,0,1,.156.032c.063.031.094.062.063.125.9-.813,1.744-1.531,2.364-2.093v-.032a.067.067,0,0,1,.062-.062h.063c.062-.031.093-.094.124-.125-.031,0-.031,0-.031-.031s0-.063.031-.063h.032a.031.031,0,0,1,.031.032v.031c.281-.25.468-.438.588-.531l9.267.031a.115.115,0,0,1,.032-.094.078.078,0,0,1,.125-.031c.062.031.093.063.093.125h.995c-.094.094-.219.187-.37.344a.42.42,0,0,1,.088.125v.062c0,.063-.031.094-.088.156a.044.044,0,0,1-.063,0,.263.263,0,0,0-.218-.062h-.031c-.094.093-.188.156-.282.25a.031.031,0,0,0,.032.031v.062l-.032.032h-.062l-.031-.032c-.9.813-2.208,1.968-3.483,3.093a.147.147,0,0,1,.031.187c0,.032-.031.032-.062.032s-.063,0-.063-.032-.031-.093-.031-.125c-.37.344-.745.656-1.12,1l.032.031c0,.063-.063.125-.125.094l-.031-.031c-.308.281-.62.562-.9.812.062-.031.094-.031.156-.063a.109.109,0,0,0,.031.063.373.373,0,0,1-.156.156c-.031,0-.094-.031-.094-.062v-.032c-.932.844-1.738,1.562-2.145,1.968.032.032.032.063.032.125v.031c.682-.468,2.207-1.78,3.889-3.217h-.094a.06.06,0,0,1-.031-.094c.031-.062.031-.062.156-.125v.188c.776-.656,1.551-1.343,2.3-2h-.031c-.063,0-.125,0-.156-.063a.134.134,0,0,1,.062-.219.136.136,0,0,1,.156.032c.063.031.094.062.063.125.9-.813,1.739-1.531,2.358-2.093v-.032a.067.067,0,0,1,.063-.062h.062c.063-.031.094-.094.125-.125-.031,0-.031,0-.031-.031s0-.063.031-.063h.031a.031.031,0,0,1,.032.032v.031c.25-.219.437-.375.562-.5h.062a.03.03,0,0,0-.031-.031.376.376,0,0,0,.125-.125h-.187a.111.111,0,0,0-.032-.063c.032-.031.063-.062.094-.062.031.031.063.031.094.062a.314.314,0,0,0,.213.125.113.113,0,0,1,.094.032c.062.031.094.062.094.124l4.977.032a.18.18,0,0,1,.156-.063.258.258,0,0,1,.187.063h.745a.139.139,0,0,1,.094-.094.1.1,0,0,1,.093.094h2.952c-.093.062-.187.187-.338.281a.42.42,0,0,1,.088.125v.062c0,.063-.031.094-.088.156a.043.043,0,0,1-.063,0,.263.263,0,0,0-.218-.062h-.031c-.094.094-.188.156-.282.25a.031.031,0,0,0,.032.031v.063l-.032.031h-.062l-.031-.031c-.9.812-2.208,1.968-3.483,3.092a.149.149,0,0,1,.031.188c0,.031-.031.031-.063.031s-.062,0-.062-.031-.031-.094-.031-.125c-.37.343-.745.656-1.12,1l.032.031c0,.063-.063.125-.125.094l-.032-.031c-.307.281-.619.562-.9.812.062-.031.094-.031.156-.062a.108.108,0,0,0,.031.062.367.367,0,0,1-.156.156c-.031,0-.094-.031-.094-.062v-.031c-.932.843-1.739,1.561-2.145,1.968.032.031.032.062.032.124v.032c.682-.469,2.207-1.781,3.889-3.218h-.094a.059.059,0,0,1-.031-.093c.031-.063.031-.063.156-.125v.187c.776-.656,1.551-1.343,2.3-2h-.031c-.063,0-.125,0-.156-.063a.133.133,0,0,1,.062-.218.136.136,0,0,1,.156.031c.063.031.094.062.063.125.9-.812,1.739-1.531,2.358-2.093v-.031a.067.067,0,0,1,.063-.063h.062c.063-.031.094-.093.125-.125-.031,0-.031,0-.031-.031s0-.062.031-.062h.031a.031.031,0,0,1,.032.031v.031c.218-.187.406-.344.531-.469h.682a.114.114,0,0,1,.031-.093.262.262,0,0,1,.219-.063c.062,0,.124.032.124.094v.062h1.276c-.031-.031-.031-.031-.031-.093a.1.1,0,0,1,.093-.094c.032,0,.063.063.063.063,0,.031-.031.062-.031.093h3.264c0-.031.031-.031.062,0h7.711a.108.108,0,0,0-.031-.062.059.059,0,0,1,.093-.031.1.1,0,0,1,.032.062.031.031,0,0,1-.032.031h.839c.125.125.281.25.5.438v-.032l.032-.031h.031c.031.031.062.063.031.063l-.031.031.125.125h.062a.067.067,0,0,1,.063.062v.031c.619.563,1.458,1.281,2.358,2.093a.163.163,0,0,1,.063-.125.281.281,0,0,1,.156-.031.134.134,0,0,1,.062.219c-.031.062-.093.062-.156.062h-.031c.75.656,1.525,1.344,2.3,2v-.188c.094.063.125.063.156.125.031.031,0,.063-.031.094-.031,0-.062.031-.094,0,1.682,1.437,3.207,2.749,3.889,3.217v-.031c0-.062,0-.094.032-.125-.407-.406-1.182-1.125-2.145-1.968v.031c0,.063-.032.094-.094.063a.2.2,0,0,1-.156-.156c0-.032.031-.032.031-.063.062.031.125.031.156.063-.281-.25-.593-.531-.9-.813l-.031.032c-.062.031-.125-.032-.125-.094,0-.031,0-.031.032-.031-.375-.313-.75-.656-1.12-1a.189.189,0,0,1-.031.125c0,.031-.031.063-.063.031a.108.108,0,0,1-.062-.031.207.207,0,0,1,.031-.187c-1.275-1.156-2.582-2.312-3.483-3.124a.03.03,0,0,1-.031.031h-.062l-.032-.031v-.063a.031.031,0,0,1,.032-.031,2.039,2.039,0,0,0-.282-.25h-.031a.294.294,0,0,0-.218.063h-.063a.261.261,0,0,1-.088-.156v-.063c.031-.031.057-.094.088-.125a3.29,3.29,0,0,1-.307-.281h3.233c0-.062.062-.125.125-.094.031,0,.062.063.062.094v.031h1.8v-.031a.464.464,0,0,1,.218.031h.375c.031-.031.031-.031.063-.031s.031,0,.062.031h3.853c.125.125.312.281.531.469v-.031l.031-.032h.031c.032.032.063.063.032.063l-.032.031.125.125h.058a.067.067,0,0,1,.062.062v.032c.625.562,1.463,1.28,2.364,2.093a.161.161,0,0,1,.062-.125.277.277,0,0,1,.156-.032.135.135,0,0,1,.063.219c-.031.063-.094.063-.156.063h-.032c.75.656,1.526,1.343,2.3,2V187.5c.094.063.125.063.157.125.031.032,0,.063-.032.094-.031,0-.062.031-.093,0,1.681,1.437,3.2,2.749,3.889,3.217v-.031c0-.062,0-.093.031-.125-.406-.406-1.182-1.124-2.145-1.968v.032c0,.062-.031.093-.094.062a.2.2,0,0,1-.156-.156c0-.031.031-.031.031-.063.063.032.125.032.157.063-.282-.25-.594-.531-.9-.812l-.031.031c-.063.031-.125-.031-.125-.094,0-.031,0-.031.031-.031-.375-.312-.75-.656-1.119-1a.183.183,0,0,1-.032.125c0,.032-.031.063-.062.032a.111.111,0,0,1-.063-.032.2.2,0,0,1,.032-.187c-1.276-1.156-2.583-2.312-3.483-3.124a.031.031,0,0,1-.032.031h-.062l-.031-.031V183.6a.031.031,0,0,1,.031-.032,2.027,2.027,0,0,0-.281-.249H580.3a.3.3,0,0,0-.219.062h-.063a.266.266,0,0,1-.093-.156v-.063c.031-.031.062-.093.093-.125a4.4,4.4,0,0,1-.338-.312h.187a.136.136,0,0,1,.151-.094c.032,0,.063.032.063.094h1.682v-.062a.059.059,0,0,1,.093-.032c.031.032.063.063.063.094h.775a1.693,1.693,0,0,0,.188-.25c0-.031.062-.031.062-.031a.067.067,0,0,1,.063.062v.125c-.031.032-.063.063-.094.063h.344a.093.093,0,0,1-.063-.125c0-.063.063-.094.125-.094a.145.145,0,0,1,.089.125c0,.063-.032.094-.089.125l6.93-.031a6.779,6.779,0,0,0,.593.5v-.032l.031-.031h.032c.031.031.062.063.031.063l-.031.031.125.125h.062a.068.068,0,0,1,.063.062v.031c.619.563,1.457,1.281,2.363,2.093a.163.163,0,0,1,.063-.125.265.265,0,0,1,.151-.031.134.134,0,0,1,.062.219c-.031.062-.094.062-.151.062h-.031c.744.656,1.52,1.344,2.3,2v-.188c.089.063.12.063.151.125.031.031,0,.063-.031.094-.031,0-.063.031-.094,0,1.682,1.437,3.207,2.749,3.889,3.217v-.031c0-.062,0-.094.031-.125-.406-.406-1.181-1.125-2.145-1.968v.031c0,.063-.031.094-.093.063a.2.2,0,0,1-.156-.156c0-.032.031-.032.031-.063.062.031.125.031.156.063-.281-.25-.588-.531-.9-.813l-.031.032c-.062.031-.125-.032-.125-.094,0-.031,0-.031.031-.031-.375-.313-.744-.656-1.119-1a.189.189,0,0,1-.031.125c0,.031-.031.063-.063.031a.108.108,0,0,1-.062-.031.207.207,0,0,1,.031-.187c-1.275-1.156-2.582-2.312-3.483-3.124a.03.03,0,0,1-.031.031h-.063l-.031-.031v-.063a.03.03,0,0,1,.031-.031,1.982,1.982,0,0,0-.281-.25H591.5a.283.283,0,0,0-.213.063h-.063c-.031-.031-.094-.094-.094-.156v-.063c.032-.031.063-.094.094-.125a2.9,2.9,0,0,0-.406-.343l7.96-.032a.19.19,0,0,1,.125-.031c.031,0,.031,0,.063.031h2.952c.125.094.343.313.624.563v-.032l.032-.031h.031c.031.031.062.063.031.063l-.031.031.125.125h.062a.067.067,0,0,1,.058.062v.031c.624.563,1.463,1.281,2.363,2.093a.163.163,0,0,1,.063-.125.281.281,0,0,1,.156-.031.134.134,0,0,1,.062.219c-.031.062-.093.062-.156.062H605.3c.75.656,1.525,1.344,2.3,2v-.188c.094.063.125.063.156.125.031.031,0,.063-.031.094-.031,0-.062.031-.094,0,1.682,1.437,3.2,2.749,3.889,3.217v-.031c0-.062,0-.094.032-.125-.406-.406-1.182-1.125-2.145-1.968v.031c0,.063-.032.094-.094.063a.2.2,0,0,1-.156-.156c0-.032.031-.032.031-.063.062.031.125.031.156.063-.281-.25-.593-.531-.9-.813l-.031.032c-.062.031-.125-.032-.125-.094,0-.031,0-.031.032-.031-.375-.313-.75-.656-1.12-1a.189.189,0,0,1-.031.125c0,.031-.031.063-.063.031a.108.108,0,0,1-.062-.031.207.207,0,0,1,.031-.187c-1.275-1.156-2.582-2.312-3.483-3.124a.03.03,0,0,1-.031.031H603.5l-.032-.031v-.063a.031.031,0,0,1,.032-.031,2.046,2.046,0,0,0-.282-.25h-.031a.294.294,0,0,0-.218.063h-.063c-.031-.031-.094-.094-.094-.156v-.063c.032-.031.063-.094.094-.125-.182-.187-.338-.312-.432-.406l5.409-.031a.164.164,0,0,1,.125-.063c.031,0,.063.032.094.063h.838a.109.109,0,0,1-.031-.063.114.114,0,0,1,.031-.093c.031-.063.094-.094.156-.188.031.031.063.063.094.063.031.093-.063.187-.156.25h1.213v-.219a.108.108,0,0,1,.062-.031c.032,0,.032.031.032.062a.114.114,0,0,1-.032.094c0,.031-.031.062-.062.094h3.17c.094.093.344.312.688.593V183.1l.031-.031h.031c.031.031.063.062.031.062l-.031.031c.031.032.094.094.12.125h.062a.068.068,0,0,1,.063.063v.031c.625.562,1.463,1.281,2.363,2.093a.162.162,0,0,1,.063-.125.283.283,0,0,1,.156-.031.134.134,0,0,1,.063.218c-.032.063-.094.063-.157.063h-.031c.75.656,1.526,1.343,2.3,2v-.187c.094.062.125.062.157.125.031.031,0,.062-.032.093-.031,0-.062.032-.093,0,1.681,1.437,3.2,2.749,3.889,3.218v-.031c0-.063,0-.094.031-.125-.406-.407-1.182-1.125-2.145-1.968v.031c0,.062-.031.094-.094.062a.2.2,0,0,1-.156-.156c0-.031.031-.031.031-.062.063.031.125.031.156.062-.281-.25-.593-.531-.905-.812l-.027.031c-.062.031-.124-.031-.124-.094,0-.031,0-.031.031-.031-.375-.312-.75-.656-1.12-1a.19.19,0,0,1-.031.125c0,.031-.031.062-.062.031a.109.109,0,0,1-.063-.031.209.209,0,0,1,.031-.188c-1.275-1.156-2.582-2.311-3.482-3.124a.031.031,0,0,1-.032.032h-.062l-.031-.032V183.5a.03.03,0,0,1,.031-.031,2.032,2.032,0,0,0-.281-.25h-.032a.3.3,0,0,0-.218.062h-.063a.263.263,0,0,1-.093-.156v-.062c.031-.032.062-.094.093-.125-.244-.219-.4-.344-.494-.438h2.67a.108.108,0,0,0-.062-.031c.031-.031.062-.031.094-.062v.031a.114.114,0,0,1,.093-.031.284.284,0,0,1,.219.093l6.966-.031-.031-.031a.109.109,0,0,0,.031-.063l.063.063a.031.031,0,0,1-.032.031l2.645-.062c-.125,0-.094-.032.187-.032v-.125c0-.031.032-.031.032-.062a.214.214,0,0,1,.151-.062c.031,0,.031.031.062.031,0,.062.063.125.125.187l.031.031h.375v-.031c.031-.031.031-.031.063-.031h.031a.03.03,0,0,1,.031.031v.031c1.213,0,2.921-.031,4.665-.031a.187.187,0,0,1,.094-.187h.062c.031,0,.031.031.031.062-.031.031-.031.063-.062.094.494,0,.994,0,1.489-.031v-.032c.031-.062.125-.031.156,0v.032c.406,0,.838,0,1.213-.032-.062-.031-.094-.031-.156-.062,0-.031,0-.062.031-.062a.262.262,0,0,1,.219,0,.058.058,0,0,1,0,.093l-.031.031c1.275-.031,2.332-.031,2.889-.062a.233.233,0,0,1,.063-.125l.031-.031C638.734,182.066,636.745,182.035,634.538,182Zm-13.994-5.493c.031,0,.031.031.031.062a.031.031,0,0,1-.031.032.113.113,0,0,1-.094-.032c-.031-.031-.063-.031-.031-.062A.1.1,0,0,1,620.544,176.511Zm-1.276,1.468h0c.031.031,0,.031,0,.031v-.031Zm-.495.094c.032.031,0,.031,0,.031v-.031Zm-.437.593a.083.083,0,0,1,.094.094c0,.031-.031.063-.094.063s-.062-.032-.062-.094A.068.068,0,0,1,618.336,178.666Zm-.838.495a.067.067,0,0,1,.062.062.083.083,0,0,1-.093.094c-.063,0-.063-.031-.063-.094S617.467,179.13,617.5,179.161Zm-.344.25c0-.031.032-.031.063-.031a.03.03,0,0,1,.031.031v.156a.068.068,0,0,1-.062.063.108.108,0,0,1-.063-.032.114.114,0,0,0-.031-.093C617.123,179.473,617.123,179.442,617.154,179.411Zm-.406.625c.031.031.031.031.031.062l-.031.031a.03.03,0,0,1-.031-.031A.108.108,0,0,0,616.748,180.036Zm-7.866-3.525c.031,0,.031.031.031.062a.031.031,0,0,1-.031.032.113.113,0,0,1-.094-.032c-.031-.031-.063-.031-.031-.062A.1.1,0,0,1,608.882,176.511Zm-1.276,1.468h0c.031.031,0,.031,0,.031s-.031,0,0-.031Zm-.495.094c.032.031,0,.031,0,.031s-.031,0,0-.031Zm-.437.593a.083.083,0,0,1,.094.094c0,.031-.031.063-.094.063s-.062-.032-.062-.094A.068.068,0,0,1,606.674,178.666Zm-.838.495a.067.067,0,0,1,.062.062.083.083,0,0,1-.093.094c-.063,0-.063-.031-.063-.094S605.773,179.13,605.836,179.161Zm-.375.25c0-.031.031-.031.063-.031a.03.03,0,0,1,.031.031v.156a.068.068,0,0,1-.063.063.107.107,0,0,1-.062-.032.114.114,0,0,0-.031-.093C605.461,179.473,605.461,179.442,605.461,179.411Zm-.37.625c.026.031.026.031.026.062l-.026.031a.03.03,0,0,1-.031-.031A.1.1,0,0,1,605.091,180.036Zm-8.054-3.525c.032,0,.032.031.032.062a.031.031,0,0,1-.032.032.112.112,0,0,1-.093-.032c-.032-.031-.063-.031-.032-.062A.1.1,0,0,1,597.037,176.511Zm-1.275,1.468h0c.031.031,0,.031,0,.031v-.031Zm-.5.094c.031.031,0,.031,0,.031v-.031Zm-.437.593a.083.083,0,0,1,.093.094c0,.031-.031.063-.093.063s-.057-.032-.057-.094A.063.063,0,0,1,594.825,178.666Zm-.838.495a.067.067,0,0,1,.062.062.083.083,0,0,1-.094.094c-.062,0-.062-.031-.062-.094S593.955,179.13,593.987,179.161Zm-.344.25c0-.031.031-.031.062-.031a.031.031,0,0,1,.032.031v.156a.069.069,0,0,1-.063.063.088.088,0,0,1-.057-.032.114.114,0,0,0-.031-.093C593.617,179.473,593.617,179.442,593.643,179.411Zm-.4.625c.031.031.031.031.031.062l-.031.031a.03.03,0,0,1-.031-.031A.108.108,0,0,0,593.242,180.036Zm-7.434-3.525c.031,0,.031.031.031.062a.031.031,0,0,1-.031.032.113.113,0,0,1-.094-.032c-.031-.031-.063-.031-.031-.062C585.745,176.48,585.776,176.48,585.808,176.511Zm-1.276,1.468h0c.031.031,0,.031,0,.031v-.031Zm-.495.094h0c.032.031,0,.031,0,.031Zm-.437.593a.083.083,0,0,1,.094.094c0,.031-.031.063-.094.063s-.062-.032-.062-.094A.068.068,0,0,1,583.6,178.666Zm-.807.495a.068.068,0,0,1,.063.062.083.083,0,0,1-.094.094c-.063,0-.063-.031-.063-.094S582.731,179.13,582.793,179.161Zm-.375.25c0-.031.032-.031.063-.031a.03.03,0,0,1,.031.031v.156a.068.068,0,0,1-.062.063.108.108,0,0,1-.063-.032.114.114,0,0,0-.031-.093C582.418,179.473,582.418,179.442,582.418,179.411Zm-.4.625c.032.031.032.031.032.062l-.032.031a.03.03,0,0,1-.031-.031A.108.108,0,0,0,582.017,180.036Zm-6.69-3.525c.032,0,.032.031.032.062a.031.031,0,0,1-.032.032.107.107,0,0,1-.088-.032c-.031-.031-.063-.031-.031-.062S575.27,176.48,575.327,176.511Zm-1.27,1.468h0c.031.031,0,.031,0,.031-.031,0-.031,0,0-.031C574.026,178.01,574.026,177.979,574.057,177.979Zm-.531.094h0c.031.031,0,.031,0,.031Zm-.437.593a.083.083,0,0,1,.093.094c0,.031-.031.063-.093.063s-.063-.032-.063-.094A.069.069,0,0,1,573.089,178.666Zm-.807.495a.067.067,0,0,1,.062.062.083.083,0,0,1-.093.094c-.063,0-.063-.031-.063-.094S572.219,179.13,572.282,179.161Zm-.375.25c0-.031.031-.031.062-.031a.031.031,0,0,1,.032.031v.156a.069.069,0,0,1-.063.063.107.107,0,0,1-.062-.032.128.128,0,0,0-.026-.093A.09.09,0,0,0,571.907,179.411Zm-.37.625c.032.031.032.031.032.062l-.032.031a.03.03,0,0,1-.031-.031A.1.1,0,0,1,571.537,180.036Zm-22.423-3.463a.113.113,0,0,1-.094.032l-.031-.032a.108.108,0,0,1,.031-.062.1.1,0,0,1,.125,0C549.177,176.542,549.145,176.573,549.114,176.573Zm1.182,1.469h0v-.032c.031-.031.031,0,0,.032Zm.5.062v-.031c.031,0,.031,0,0,.031Zm.463.75c-.057,0-.088-.031-.088-.063,0-.062.031-.093.088-.093a.068.068,0,0,1,.063.062C551.322,178.791,551.29,178.854,551.259,178.854Zm.843.463a.083.083,0,0,1-.093-.094.067.067,0,0,1,.062-.062c.063,0,.094.031.094.062S552.165,179.317,552.1,179.317Zm.339.281c0,.032-.031.032-.057.032a.068.068,0,0,1-.063-.063v-.156l.031-.031c.032,0,.058,0,.058.031v.094A.114.114,0,0,1,552.441,179.6Zm.375.531a.031.031,0,0,1-.032-.031.107.107,0,0,0,.032-.062c.031.031.031.031.031.062C552.878,180.129,552.847,180.161,552.816,180.129Zm-14.177-3.556a.113.113,0,0,1-.094.032l-.031-.032a.108.108,0,0,1,.031-.062.089.089,0,0,1,.12,0A.116.116,0,0,1,538.639,176.573Zm1.177,1.469h0v0Zm.5.062h0v0Zm.437.75c-.063,0-.094-.031-.094-.063a.083.083,0,0,1,.094-.093.067.067,0,0,1,.062.062C540.815,178.791,540.784,178.854,540.753,178.854Zm.838.463a.083.083,0,0,1-.094-.094.068.068,0,0,1,.063-.062c.062,0,.094.031.094.062C541.685,179.255,541.654,179.317,541.591,179.317Zm.344.281c0,.032-.032.032-.063.032a.068.068,0,0,1-.062-.063v-.156l.031-.031c.031,0,.062,0,.062.031v.094A.112.112,0,0,1,541.935,179.6Zm.4.531a.031.031,0,0,1-.032-.031.107.107,0,0,0,.032-.062c.031.031.031.031.031.062S542.336,180.161,542.336,180.129Zm-14.927-3.556a.112.112,0,0,1-.093.032l-.032-.032a.107.107,0,0,1,.032-.062.1.1,0,0,1,.125,0C527.441,176.542,527.441,176.573,527.409,176.573Zm1.182,1.469c0-.032-.031-.032,0,0v0Zm.5.062v-.031s.031,0,0,.031Zm.432.75c-.057,0-.088-.031-.088-.063,0-.062.031-.093.088-.093a.068.068,0,0,1,.063.062C529.617,178.791,529.586,178.854,529.523,178.854Zm.843.463a.083.083,0,0,1-.093-.094.067.067,0,0,1,.062-.062c.063,0,.094.031.094.062C530.46,179.255,530.429,179.317,530.366,179.317Zm.339.281c0,.032-.031.032-.063.032a.067.067,0,0,1-.057-.063v-.156l.031-.031c.026,0,.058,0,.058.031v.094C530.736,179.536,530.736,179.567,530.705,179.6Zm.406.531a.03.03,0,0,1-.031-.031.108.108,0,0,0,.031-.062c.031.031.031.031.031.062S531.142,180.161,531.111,180.129Zm-15.546-3.556a.113.113,0,0,1-.094.032l-.031-.032a.108.108,0,0,1,.031-.062.1.1,0,0,1,.125,0C515.628,176.542,515.6,176.573,515.565,176.573Zm1.182,1.469h0v-.032c0-.031.031,0,0,.032C516.778,178.01,516.747,178.01,516.747,178.042Zm.495.062v-.031c.031,0,.031,0,0,.031Zm.437.75c-.063,0-.094-.031-.094-.063a.083.083,0,0,1,.094-.093.067.067,0,0,1,.062.062C517.773,178.791,517.741,178.854,517.679,178.854Zm.869.463a.083.083,0,0,1-.093-.094.067.067,0,0,1,.062-.062c.063,0,.094.031.094.062S518.58,179.317,518.548,179.317Zm.313.281c0,.032-.032.032-.063.032a.068.068,0,0,1-.062-.063v-.156l.031-.031c.031,0,.062,0,.062.031v.094C518.892,179.536,518.892,179.567,518.861,179.6Zm.4.531a.031.031,0,0,1-.032-.031.107.107,0,0,0,.032-.062c.031.031.031.031.031.062S519.293,180.161,519.262,180.129ZM503.9,176.573a.113.113,0,0,1-.094.032l-.031-.032a.108.108,0,0,1,.031-.062.1.1,0,0,1,.125,0C503.934,176.542,503.934,176.573,503.9,176.573Zm1.182,1.469c0-.032-.031-.032,0,0v0Zm.495.062v-.031s.031,0,0,.031Zm.437.75c-.063,0-.094-.031-.094-.063a.083.083,0,0,1,.094-.093.067.067,0,0,1,.062.062C506.111,178.791,506.079,178.854,506.017,178.854Zm.838.463a.083.083,0,0,1-.094-.094.068.068,0,0,1,.063-.062c.062,0,.094.031.094.062C506.949,179.255,506.918,179.317,506.855,179.317Zm.344.281c0,.032-.032.032-.063.032a.068.068,0,0,1-.062-.063v-.156l.031-.031c.031,0,.062,0,.062.031v.094C507.23,179.536,507.23,179.567,507.2,179.6Zm.406.531a.03.03,0,0,1-.031-.031.108.108,0,0,0,.031-.062c.031.031.031.031.031.062S507.636,180.161,507.605,180.129ZM489.6,182.316a.083.083,0,0,1-.093-.094c0-.031,0-.062.031-.062h.031c.031,0,.063.062.063.093A.1.1,0,0,1,489.6,182.316Zm1.838-.344h0a.03.03,0,0,1,.031-.031Zm.432.25h0c0-.031,0-.031.032-.031Zm.813-.156a.059.059,0,0,1-.094,0,.1.1,0,0,1,0-.125.059.059,0,0,1,.094,0C492.741,181.972,492.71,182,492.679,182.066Zm.963.187a.093.093,0,0,1-.125,0,.058.058,0,0,1,0-.093.1.1,0,0,1,.125,0A.058.058,0,0,1,493.642,182.253Zm.4-.031-.063.063c-.026,0-.057,0-.057-.032v-.062c.031-.031.057-.094.088-.125s.063-.031.063,0a.113.113,0,0,0,.031.063C494.074,182.16,494.043,182.191,494.043,182.222Zm.687-.187a.1.1,0,0,0-.063.031V182h.063C494.761,182,494.761,182.035,494.73,182.035Zm3.17.062a.118.118,0,0,1-.093-.156c0-.062.062-.094.125-.094a.144.144,0,0,1,.125.157A.119.119,0,0,1,497.9,182.1Zm.807.063a.141.141,0,0,1-.125-.094c0-.031,0-.031.032-.062a.149.149,0,0,1,.218,0,.1.1,0,0,0,.032.062C498.832,182.1,498.77,182.16,498.707,182.16Zm7.56-.031c-.031,0-.031,0-.031-.032l.031-.031v.063Zm.869.031a.138.138,0,0,1-.125-.188.161.161,0,0,1,.156-.125c.094,0,.125.094.125.157C507.292,182.129,507.23,182.191,507.136,182.16Zm-3.327,5.654c-.031,0-.031-.032-.031-.063a.03.03,0,0,1,.031-.031.115.115,0,0,1,.094.031c.031.031.063.031.031.063C503.9,187.876,503.841,187.845,503.809,187.814Zm1.276-1.468h0c-.031-.032,0-.032,0-.032Zm.495-.063h0c-.032-.031,0-.031,0-.031s.031,0,0,.031Zm.437-.625a.083.083,0,0,1-.094-.093c0-.032.031-.063.094-.063s.062.031.062.094A.067.067,0,0,1,506.017,185.658Zm.838-.468a.067.067,0,0,1-.062-.063.082.082,0,0,1,.093-.093c.063,0,.063.031.063.093C506.949,185.159,506.918,185.19,506.855,185.19Zm.344-.281c0,.031-.032.031-.063.031a.03.03,0,0,1-.031-.031v-.157a.067.067,0,0,1,.062-.062.109.109,0,0,1,.063.031.116.116,0,0,0,.031.094C507.23,184.846,507.23,184.877,507.2,184.909Zm.406-.625c-.031-.031-.031-.031-.031-.063l.031-.031a.03.03,0,0,1,.031.031C507.636,184.253,507.605,184.253,507.605,184.284Zm8.023-1.749c-.063,0-.094-.032-.094-.063a.083.083,0,0,1,.094-.094c.062,0,.093.032.093.063S515.69,182.5,515.628,182.535Zm.9,0a.113.113,0,0,1-.031-.063.112.112,0,0,0,.063-.031c.031,0,.031.031.031.062A.111.111,0,0,0,516.528,182.535Zm3.2-.406c-.031-.032-.062-.063-.062-.094s.031-.063.093-.063c.032,0,.063.032.063.094C519.761,182.066,519.761,182.1,519.73,182.129Zm-4.259,5.685c-.031,0-.031-.032-.031-.063a.03.03,0,0,1,.031-.031.115.115,0,0,1,.094.031c.031.031.063.031.031.063C515.565,187.876,515.5,187.845,515.471,187.814Zm1.276-1.468c-.031-.032,0-.032,0-.032s.031.032,0,.032Zm.495-.063h0c-.032-.031,0-.031,0-.031s.031,0,0,.031C517.273,186.252,517.273,186.283,517.242,186.283Zm.437-.625a.083.083,0,0,1-.094-.093c0-.032.031-.063.094-.063s.062.031.062.094A.067.067,0,0,1,517.679,185.658Zm.838-.468a.067.067,0,0,1-.062-.063.082.082,0,0,1,.093-.093c.063,0,.063.031.063.093C518.611,185.159,518.58,185.19,518.517,185.19Zm.375-.281c0,.031-.031.031-.063.031a.03.03,0,0,1-.031-.031v-.157a.067.067,0,0,1,.063-.062.108.108,0,0,1,.062.031.116.116,0,0,0,.031.094C518.892,184.846,518.892,184.877,518.892,184.909Zm.37-.625c-.032-.031-.032-.031-.032-.063l.032-.031a.03.03,0,0,1,.031.031C519.293,184.253,519.293,184.253,519.262,184.284Zm2.207-1.968c-.026.031-.057,0-.089-.063a.068.068,0,0,1,.063-.062c.026,0,.088.031.057.062C521.531,182.285,521.5,182.316,521.469,182.316Zm.75-.063a.062.062,0,1,1,0-.124c.031,0,.062.031.062.093A.108.108,0,0,1,522.219,182.253Zm5.1,5.561c-.032,0-.032-.032-.032-.063a.031.031,0,0,1,.032-.031.114.114,0,0,1,.093.031c.032.031.063.031.032.063C527.409,187.876,527.347,187.845,527.316,187.814Zm1.275-1.468h0c-.031-.032,0-.032,0-.032Zm.5-.063h0c-.031-.031,0-.031,0-.031s.031,0,0,.031Zm.432-.625c-.057,0-.088-.031-.088-.093,0-.032.031-.063.088-.063s.063.031.063.094A.068.068,0,0,1,529.523,185.658Zm.843-.468a.067.067,0,0,1-.062-.063.083.083,0,0,1,.094-.093c.062,0,.062.031.062.093C530.46,185.159,530.429,185.19,530.366,185.19Zm.339-.281c0,.031-.031.031-.063.031s-.026-.031-.026-.031v-.157a.062.062,0,0,1,.058-.062.108.108,0,0,1,.062.031.116.116,0,0,0,.031.094C530.736,184.846,530.736,184.877,530.705,184.909Zm.406-.625c-.031-.031-.031-.031-.031-.063l.031-.031a.03.03,0,0,1,.031.031C531.142,184.253,531.111,184.253,531.111,184.284Zm-4.259-2.343c0-.031.031-.031.063-.031a.1.1,0,0,1,.093.094c0,.031-.031.031-.062.031C526.883,182.035,526.821,181.972,526.852,181.941Zm-.838.219c-.062.062-.125.031-.187.031a.2.2,0,0,1-.157-.156v-.094c.032-.094.063-.156.125-.156a.145.145,0,0,1,.157.094c.031.031.031.062.062.093A.2.2,0,0,1,526.014,182.16Zm.9.281-.281.094c-.063,0-.125-.032-.125-.094a.1.1,0,0,1,.031-.063.847.847,0,0,0,.25-.218.234.234,0,0,1,.156-.031c.031,0,.031.031.062.062A.235.235,0,0,1,526.915,182.441Zm1.15-.406a.134.134,0,0,1,.125-.125c.094,0,.125.062.125.156a.109.109,0,0,1-.156.094C528.128,182.191,528.065,182.129,528.065,182.035Zm.37.312c-.031.063-.094.063-.151.063-.031,0-.063-.032-.094-.063v-.031c0-.031.031-.031.063-.063a.14.14,0,0,1,.182.032Zm1.244.219c-.031,0-.031-.031-.031-.063s.031-.031.062-.062a.1.1,0,0,1,.032.062C529.71,182.566,529.679,182.6,529.679,182.566Zm1.057,0c-.031,0-.062-.031-.062-.094s.031-.062.093-.062a.107.107,0,0,1,.032.062C530.83,182.5,530.8,182.566,530.736,182.566Zm3.795-.281c-.093,0-.156-.094-.125-.156,0-.063.063-.094.125-.094.094,0,.125.062.125.156C534.656,182.253,534.594,182.285,534.531,182.285Zm1.151-.094a.067.067,0,0,1-.062-.062c0-.032.031-.032.062-.032,0,.032.031.032.031.063C535.744,182.16,535.713,182.191,535.682,182.191Zm2.27.187c-.031,0-.031-.031-.063-.062,0-.031.032-.063.094-.063a.113.113,0,0,1,.031.063C538.046,182.347,537.983,182.41,537.952,182.378Zm1.65-.593v-.031h.032a.03.03,0,0,0,.031.031C539.634,181.754,539.634,181.754,539.6,181.785Zm3.452.5c-.031,0-.031-.032-.062-.032a.1.1,0,0,1,.062-.031.03.03,0,0,1,.031.031C543.085,182.285,543.085,182.285,543.054,182.285Zm-4.509,5.529c-.031,0-.031-.032-.031-.063a.03.03,0,0,1,.031-.031.115.115,0,0,1,.094.031c.026.031.057.031.026.063C538.608,187.876,538.577,187.845,538.545,187.814Zm1.271-1.468h0c-.026-.032,0-.032,0-.032Zm.5-.063h0c-.032-.031,0-.031,0-.031v.031Zm.437-.625a.083.083,0,0,1-.094-.093c0-.032.031-.063.094-.063s.062.031.062.094A.067.067,0,0,1,540.753,185.658Zm.807-.468a.068.068,0,0,1-.063-.063.083.083,0,0,1,.094-.093c.063,0,.063.031.063.093C541.685,185.159,541.622,185.19,541.56,185.19Zm.375-.281c0,.031-.032.031-.063.031a.03.03,0,0,1-.031-.031v-.157a.067.067,0,0,1,.062-.062.109.109,0,0,1,.063.031.116.116,0,0,0,.031.094C541.935,184.846,541.935,184.877,541.935,184.909Zm.4-.625c-.032-.031-.032-.031-.032-.063l.032-.031a.03.03,0,0,1,.031.031C542.367,184.253,542.336,184.253,542.336,184.284Zm3.67-1.843c-.031,0-.031-.031-.031-.094,0-.031.031-.062.093-.031a.107.107,0,0,0,.032.062C546.068,182.41,546.037,182.441,546.006,182.441Zm2.145-.469a.116.116,0,0,1-.094-.031c0-.031.031-.094.063-.094s.062.032.093.063Zm1.9-.062c-.031,0-.062-.063-.062-.094a.1.1,0,0,1,.093-.094c.058,0,.089.063.058.125C550.14,181.91,550.108,181.941,550.051,181.91Zm1.8.406c-.032,0-.032-.031-.063-.063.031-.031.031-.062.063-.062s.093.031.062.062A.067.067,0,0,1,551.853,182.316Zm1.707-.187-.026-.032.026-.031c0,.031.031.031.031.063Zm-4.54,5.685c-.031,0-.031-.032-.031-.063a.03.03,0,0,1,.031-.031.115.115,0,0,1,.094.031c.031.031.063.031.031.063C549.114,187.876,549.083,187.845,549.02,187.814Zm1.276-1.468c-.031-.032,0-.032,0-.032.031,0,.031.032,0,.032Zm.531-.063c-.031,0-.031-.031,0,0-.031-.031,0-.031,0-.031v.031Zm.432-.625c-.057,0-.088-.031-.088-.093,0-.032.031-.063.088-.063s.063.031.063.094A.068.068,0,0,1,551.259,185.658Zm.812-.468a.067.067,0,0,1-.062-.063.082.082,0,0,1,.093-.093c.063,0,.063.031.063.093C552.165,185.159,552.134,185.19,552.071,185.19Zm.37-.281c0,.031-.031.031-.057.031a.031.031,0,0,1-.032-.031v-.157a.067.067,0,0,1,.058-.062.108.108,0,0,1,.062.031.116.116,0,0,0,.031.094C552.441,184.846,552.441,184.877,552.441,184.909Zm.375-.625c-.032-.031-.032-.031-.032-.063l.032-.031a.03.03,0,0,1,.031.031C552.847,184.253,552.847,184.253,552.816,184.284Zm4.914-2.5c-.062.031-.093.031-.125-.031,0-.032-.031-.032-.031-.063l.031-.031c.063-.031.094,0,.125.031C557.793,181.722,557.762,181.785,557.73,181.785Zm1.432.781c-.031.031-.094.062-.125.031a.169.169,0,0,1-.094-.125.094.094,0,0,1,.157-.062l.031.031C559.162,182.472,559.193,182.535,559.162,182.566Zm.838,0h0c0-.031,0-.031.032-.031a.03.03,0,0,0,.031.031C560.032,182.535,560.032,182.566,560,182.566Zm4.321-.75a.03.03,0,0,0-.031-.031h.031c.032,0,.032,0,0,.031Zm.964.156-.032-.031c-.062-.062-.062-.125-.031-.156s.094-.063.125-.031a.165.165,0,0,1,.094.125C565.41,181.972,565.316,182,565.285,181.972Zm1.463.688c-.063.031-.094,0-.125-.032s-.032-.093.031-.093c.062-.032.094-.032.125.031,0,.031.031.031.031.062A.1.1,0,0,1,566.748,182.66Zm8.491,5.091a.109.109,0,0,1,.088-.031l.032.031a.111.111,0,0,1-.032.063.088.088,0,0,1-.119,0C575.176,187.782,575.208,187.782,575.239,187.751Zm-1.182-1.437v.032c-.031,0-.031,0,0-.032C574.026,186.346,574.026,186.314,574.057,186.314Zm-.5-.093h0v.031c-.031.031-.031,0,0-.031Zm-.437-.719c.062,0,.094.031.094.063a.083.083,0,0,1-.094.093.067.067,0,0,1-.062-.062C573.026,185.533,573.058,185.5,573.12,185.5Zm-.869-.468a.082.082,0,0,1,.093.093.067.067,0,0,1-.062.063c-.063,0-.094-.031-.094-.063C572.188,185.065,572.219,185.034,572.251,185.034Zm-.344-.282c0-.031.031-.031.062-.031a.067.067,0,0,1,.063.063v.156l-.031.031c-.032,0-.063,0-.063-.031v-.094A.241.241,0,0,1,571.907,184.752Zm-.37-.562a.031.031,0,0,1,.032.031.112.112,0,0,0-.032.063c-.031-.031-.031-.031-.031-.063C571.475,184.221,571.506,184.19,571.537,184.19Zm-.749-1.9c0-.032-.032-.032-.032-.063,0,0,.032-.031.032,0l.031.031Zm1.712-.156c-.031,0-.093-.032-.062-.063A.067.067,0,0,1,572.5,182c.032,0,.032.031.063.062C572.563,182.1,572.532,182.1,572.5,182.129Zm1.771.5c-.063,0-.094-.062-.063-.125,0-.062.063-.093.125-.062.031,0,.063.062.063.094C574.364,182.6,574.333,182.628,574.271,182.628Zm1.931-.093c-.031,0-.062-.032-.094-.063.032-.031.063-.062.094-.062a.116.116,0,0,1,.094.031A.1.1,0,0,1,576.2,182.535Zm2.114-.5a.113.113,0,0,0-.031-.063c0-.031.031-.062.062-.031.031,0,.031.031.031.094Zm7.429,5.716a.116.116,0,0,1,.094-.031l.031.031a.113.113,0,0,1-.031.063.1.1,0,0,1-.125,0C585.683,187.782,585.714,187.782,585.745,187.751Zm-1.213-1.437h0v0Zm-.495-.093c0,.031.032.031,0,0v0Zm-.437-.719c.063,0,.094.031.094.063a.082.082,0,0,1-.094.093.067.067,0,0,1-.062-.062C583.538,185.533,583.569,185.5,583.6,185.5Zm-.838-.468a.083.083,0,0,1,.094.093.068.068,0,0,1-.063.063c-.062,0-.094-.031-.094-.063C582.668,185.065,582.7,185.034,582.762,185.034Zm-.344-.282c0-.031.032-.031.063-.031a.067.067,0,0,1,.062.063v.156l-.031.031c-.031,0-.062,0-.062-.031v-.094A.236.236,0,0,1,582.418,184.752Zm-.4-.562a.031.031,0,0,1,.032.031.112.112,0,0,0-.032.063c-.031-.031-.031-.031-.031-.063Zm-.718-2.061a.031.031,0,0,1-.031-.032l.031-.031c.031,0,.031.031.062.031C581.33,182.1,581.33,182.129,581.3,182.129Zm15.645,5.622a.114.114,0,0,1,.093-.031l.032.031a.111.111,0,0,1-.032.063.1.1,0,0,1-.125,0C596.912,187.782,596.912,187.782,596.944,187.751Zm-1.182-1.437h0v0Zm-.5-.093c0,.031.031.031,0,0v.031c0,.031-.031,0,0-.031Zm-.437-.719c.062,0,.093.031.093.063a.082.082,0,0,1-.093.093.062.062,0,0,1-.057-.062C594.768,185.533,594.768,185.5,594.825,185.5Zm-.838-.468a.082.082,0,0,1,.093.093.067.067,0,0,1-.062.063c-.063,0-.094-.031-.094-.063C593.893,185.065,593.924,185.034,593.987,185.034Zm-.344-.282c0-.031.031-.031.062-.031a.067.067,0,0,1,.063.063v.156l-.031.031c-.032,0-.063,0-.063-.031v-.094C593.617,184.784,593.617,184.752,593.643,184.752Zm-.4-.562a.03.03,0,0,1,.031.031.113.113,0,0,0-.031.063c-.031-.031-.031-.031-.031-.063Zm-8.523-1.562a.03.03,0,0,0-.031-.031c.031,0,.031,0,.063-.031v.031Zm1.651-.531a.108.108,0,0,1-.031-.062c0-.031.031-.094.062-.063.031,0,.031.032.063.063C586.464,182.066,586.432,182.1,586.37,182.1Zm2.27.156c0-.031-.031-.031-.031-.062a.03.03,0,0,1,.031-.031.067.067,0,0,1,.062.062A.1.1,0,0,0,588.64,182.253Zm1.182.032c-.094,0-.125-.063-.125-.156,0-.063.062-.094.125-.094.093,0,.156.094.125.156C589.947,182.253,589.884,182.285,589.822,182.285Zm3.764-.344a.107.107,0,0,1-.032-.062.082.082,0,0,1,.089-.094c.031,0,.062.031.062.094A.159.159,0,0,1,593.586,181.941Zm1.088-.062a.1.1,0,0,1-.031-.063c0-.031.031-.031.062-.031s.031.031.031.062C594.736,181.816,594.705,181.847,594.674,181.879Zm1.244.093c.026-.062.089-.062.151-.062.031,0,.063.031.094.062V182c0,.031-.031.031-.063.062a.14.14,0,0,1-.182-.031Zm.214.438c-.094,0-.125-.063-.125-.157a.128.128,0,1,1,.249.063C596.256,182.378,596.194,182.41,596.132,182.41Zm1.369-.032c0,.032-.031.032-.063.032a.1.1,0,0,1-.093-.094c0-.031.031-.031.062-.031C597.47,182.316,597.532,182.347,597.5,182.378Zm.312-.437a.85.85,0,0,0-.25.219.234.234,0,0,1-.156.031c-.031,0-.031-.031-.062-.062a.161.161,0,0,1,.093-.219l.281-.094c.063,0,.125.031.125.094A.03.03,0,0,1,597.813,181.941Zm.87.469v.031c-.032.094-.063.156-.125.156a.145.145,0,0,1-.157-.094c-.031-.031-.031-.062-.062-.093a.2.2,0,0,1,0-.188c.062-.062.125-.031.187-.031a.2.2,0,0,1,.157.156Zm3.451-.219c-.031,0-.062-.031-.062-.094a.108.108,0,0,1,.062-.031.067.067,0,0,1,.063.063C602.2,182.16,602.134,182.191,602.134,182.191Zm.776-.062c-.031,0-.094-.032-.062-.063a.067.067,0,0,1,.062-.062c.031-.032.063,0,.094.062C602.973,182.1,602.941,182.129,602.91,182.129Zm5.878,5.622a.115.115,0,0,1,.094-.031l.031.031a.113.113,0,0,1-.031.063.1.1,0,0,1-.125,0C608.757,187.782,608.757,187.782,608.788,187.751Zm-1.182-1.437v.032s-.031,0,0-.032Zm-.495-.093h0v.031c-.031.031-.031,0,0-.031C607.08,186.252,607.111,186.252,607.111,186.221Zm-.437-.719c.063,0,.094.031.094.063a.083.083,0,0,1-.094.093.067.067,0,0,1-.062-.062C606.58,185.533,606.612,185.5,606.674,185.5Zm-.869-.468a.082.082,0,0,1,.093.093.067.067,0,0,1-.062.063c-.063,0-.094-.031-.094-.063C605.742,185.065,605.773,185.034,605.8,185.034Zm-.313-.282c0-.031.032-.031.063-.031a.067.067,0,0,1,.062.063v.156l-.031.031c-.031,0-.062,0-.062-.031v-.094C605.461,184.784,605.461,184.752,605.492,184.752Zm-.4-.562c.026,0,.026.031.026.031a.121.121,0,0,0-.026.063c-.031-.031-.031-.031-.031-.063A.03.03,0,0,1,605.091,184.19Zm-.468-1.812c-.031,0-.063-.031-.063-.093,0-.032.032-.032.063-.063.031.031.062.063.062.094C604.717,182.347,604.654,182.378,604.623,182.378Zm3.17-.5c-.031,0-.031-.032-.031-.063.031,0,.063-.031.094-.031a.108.108,0,0,1,.031.062C607.856,181.879,607.825,181.91,607.793,181.879Zm.932.125c-.062,0-.093-.032-.093-.063a.083.083,0,0,1,.093-.094c.063,0,.094.032.094.063S608.788,181.972,608.725,182Zm11.725,5.747a.115.115,0,0,1,.094-.031l.031.031a.113.113,0,0,1-.031.063.1.1,0,0,1-.125,0C620.419,187.782,620.419,187.782,620.45,187.751Zm-1.182-1.437h0v0Zm-.495-.093c0,.031.032.031,0,0v.031c0,.031-.031,0,0-.031Zm-.437-.719c.063,0,.094.031.094.063a.083.083,0,0,1-.094.093.067.067,0,0,1-.062-.062C618.274,185.533,618.274,185.5,618.336,185.5Zm-.838-.468a.083.083,0,0,1,.094.093.068.068,0,0,1-.063.063c-.062,0-.094-.031-.094-.063C617.4,185.065,617.435,185.034,617.5,185.034Zm-.344-.282c0-.031.032-.031.063-.031a.067.067,0,0,1,.062.063v.156l-.031.031c-.031,0-.062,0-.062-.031v-.094C617.123,184.784,617.123,184.752,617.154,184.752Zm-.406-.562a.03.03,0,0,1,.031.031.113.113,0,0,0-.031.063c-.031-.031-.031-.031-.031-.063Zm.438-1.749c-.094,0-.125-.094-.125-.156,0-.094.093-.125.156-.125a.138.138,0,0,1,.125.187C617.31,182.41,617.248,182.472,617.186,182.441Zm.9-.156-.031-.032s.031-.031.031,0c.031,0,.031,0,.031.032C618.117,182.253,618.117,182.285,618.086,182.285Zm7.648.062a.144.144,0,0,1-.213,0,.1.1,0,0,0-.032-.062c0-.063.063-.094.125-.094a.131.131,0,0,1,.12.094C625.765,182.285,625.734,182.316,625.734,182.347Zm.812.031c0,.063-.062.094-.125.094a.143.143,0,0,1-.125-.156.11.11,0,0,1,.157-.094C626.515,182.253,626.578,182.316,626.546,182.378Zm3.14-.031h-.063c-.031,0-.031-.031,0-.062a.1.1,0,0,0,.063-.032Zm.775-.218c-.031.031-.062.093-.093.124s-.063.032-.063,0a.116.116,0,0,0-.026-.062c0-.031.026-.062.026-.094l.063-.062c.031,0,.062,0,.062.031A.1.1,0,0,1,630.461,182.129Zm.375.062a.1.1,0,0,1-.125,0c-.031-.031-.031-.062,0-.125a.1.1,0,0,1,.125,0C630.868,182.129,630.868,182.16,630.836,182.191Zm.932.219a.059.059,0,0,1-.094,0,.1.1,0,0,1,0-.125.058.058,0,0,1,.094,0A.1.1,0,0,1,631.768,182.41Zm.719-.281V182.1h.031C632.487,182.129,632.518,182.129,632.487,182.129Zm.432.281v-.032h.031A.031.031,0,0,0,632.919,182.41Zm1.931-.219h-.031c-.031,0-.062-.062-.062-.094a.114.114,0,0,1,.031-.093.083.083,0,0,1,.094.093C634.882,182.129,634.85,182.16,634.85,182.191Zm-34.022-8.773c.093-.093.125-.124.125-.156-.032-.031-.094.032-.219.094h.031C600.8,173.387,600.828,173.387,600.828,173.418Zm-77.3,17.519c-.093.094-.124.125-.124.157.031.031.093-.032.218-.094h-.031Zm.063-17.581c-.094-.094-.156-.125-.187-.094a.677.677,0,0,0,.124.156C523.525,173.387,523.557,173.387,523.588,173.356Zm77.177,17.613c.094.093.156.125.188.093a.734.734,0,0,0-.125-.156A.069.069,0,0,1,600.765,190.969Z" fill="#975d55"/></g></g></svg>