<svg xmlns="http://www.w3.org/2000/svg" xmlns:xlink="http://www.w3.org/1999/xlink" width="99.345" height="91.458" viewBox="0 0 99.345 91.458"><defs><clipPath id="a"><rect width="61.309" height="75.667" transform="translate(586.782 -153.636)" fill="none"/></clipPath><clipPath id="b"><rect width="78.635" height="91.458" transform="translate(573.454 -153.636)" fill="none"/></clipPath><clipPath id="c"><rect width="99.345" height="89.094" transform="translate(566.514 -151.272)" fill="none"/></clipPath><clipPath id="d"><rect width="81.852" height="84.83" transform="translate(583.382 -147.008)" fill="none"/></clipPath></defs><g transform="translate(-566.514 153.636)"><g clip-path="url(#a)"><path d="M592.18-86.949c.047-.365-.02-.838-.374-.927s-.63.281-.8.6a3.714,3.714,0,0,0-.188-1.994.5.5,0,0,0-.177-.255.457.457,0,0,0-.3-.042,1.616,1.616,0,0,0-1.3,1.156,4.851,4.851,0,0,1-.219.963,1.63,1.63,0,0,0-.931-.625.539.539,0,0,0-.313-.005.468.468,0,0,0-.286.469,1.235,1.235,0,0,0,.182.562,10.228,10.228,0,0,0,2.681,3.28A4.194,4.194,0,0,0,592.18-86.949Zm27.6-63.532a3.258,3.258,0,0,0,1.921.573,2.1,2.1,0,0,0,1.562-1.192,3.861,3.861,0,0,0,.328-2,.212.212,0,0,0-.042-.151.229.229,0,0,0-.182-.041,2.416,2.416,0,0,0-.828.229.322.322,0,0,0-.265-.261.781.781,0,0,0-.391.047,2.885,2.885,0,0,0-1.432,1.057,5.2,5.2,0,0,0-.708,1.739Zm27.509,68.025a11.535,11.535,0,0,1-2.821,3.816,1.473,1.473,0,0,1-.557.349.535.535,0,0,1-.589-.188.655.655,0,0,1-.073-.343,1.854,1.854,0,0,1,.427-1.193,5.659,5.659,0,0,0-1.1.026,1.794,1.794,0,0,1-1.594-1.108.528.528,0,0,1-.041-.344.583.583,0,0,1,.234-.26,4.022,4.022,0,0,1,2.1-.74c-.385-.1-.859-.312-.859-.713s.5-.619.9-.666a4.668,4.668,0,0,1,3.977,1.364" fill="#eab5a8"/></g><path d="M602.635-143.827a1.854,1.854,0,0,1-.141-1.947,5.173,5.173,0,0,1,1.3-1.573,1.263,1.263,0,0,1,.9-.458.873.873,0,0,1,.7.8,2.559,2.559,0,0,1-.2,1.124,2.8,2.8,0,0,1,1.416-.073.661.661,0,0,1,.333.151c.271.282-.046.735-.343.984a.732.732,0,0,1,.921.625,1.153,1.153,0,0,1-.583,1.073,3,3,0,0,1-1.218.364,3.923,3.923,0,0,1-1.874-.078c-.594-.213-1.208-.463-1.208-1.1l-.005.1" fill="#f6dde3"/><path d="M651.433-77.474a159.833,159.833,0,0,1-18.212,5.93.422.422,0,0,0-.286-.135,22.225,22.225,0,0,1-8.013-2.151l-.4-.2a22.6,22.6,0,0,1-5.326-3.765c-.427-.406-.969.344-.547.745a23.064,23.064,0,0,0,12.318,6.07,161.276,161.276,0,0,1-22.017,3.8c-.589.057-.448.974.14.916q3.913-.4,7.794-.989l1.853-.3a161.976,161.976,0,0,0,17.5-3.857,27.526,27.526,0,0,0-4.561,5.523c-.312.5.422,1.052.739.547a26.885,26.885,0,0,1,5.446-6.289.409.409,0,0,0,.161-.3c.88-.26,1.755-.521,2.63-.791l1.681-.536c3.186-1.026,6.352-2.151,9.475-3.379C652.359-76.844,651.984-77.687,651.433-77.474Zm-44.842,10.6a116.793,116.793,0,0,1-12.318-6.555.3.3,0,0,0-.072-.218,16.362,16.362,0,0,1-2.952-5.3l-.105-.313a16.771,16.771,0,0,1-.749-4.706c-.005-.432-.667-.339-.661.094a17,17,0,0,0,3.1,9.543,116.859,116.859,0,0,1-13.14-9.632c-.328-.276-.734.26-.406.536q2.195,1.851,4.472,3.593l1.093.827a118.47,118.47,0,0,0,10.881,7.232,19.707,19.707,0,0,0-5.18.406c-.422.088-.333.76.089.666a19.2,19.2,0,0,1,6.023-.328.327.327,0,0,0,.24-.067c.578.328,1.161.656,1.744.973l1.13.615q3.225,1.733,6.559,3.264C606.732-66.067,606.982-66.692,606.591-66.874ZM602.577-145.4a129.938,129.938,0,0,1,15.567-.932.33.33,0,0,0,.2.162,18.2,18.2,0,0,1,5.888,3.342l.276.24a18.48,18.48,0,0,1,3.436,4.061c.255.411.833-.068.578-.474a18.89,18.89,0,0,0-8.481-7.32,131.307,131.307,0,0,1,18.008,1.5,163.606,163.606,0,0,1,11.017,15.932,23.034,23.034,0,0,0-12.979-4.447c-.583-.015-.724.9-.131.917a22.2,22.2,0,0,1,6.4,1.114l.422.146a22.322,22.322,0,0,1,7.19,4.17.4.4,0,0,0,.3.1,164.118,164.118,0,0,1,8.752,17.139c.234.546,1.093.213.854-.333q-2.031-4.632-4.342-9.127l-.817-1.572c-.433-.812-.865-1.625-1.307-2.426a.429.429,0,0,0,.093-.328,26.979,26.979,0,0,1,.552-8.325c.13-.583-.781-.718-.911-.141a27.838,27.838,0,0,0-.64,7.159A162.074,162.074,0,0,0,642.806-140l-1.1-1.525q-2.343-3.179-4.831-6.242c-.375-.459-1.114.088-.74.551.417.511.823,1.026,1.234,1.541q-2.726-.405-5.466-.692l-1.52-.146a131.312,131.312,0,0,0-14.588-.552,22.243,22.243,0,0,0,4.722-3.42c.349-.333-.12-.916-.474-.583a21.706,21.706,0,0,1-5.571,3.842.339.339,0,0,0-.187.2c-.745.021-1.489.047-2.234.083l-1.431.078c-2.728.157-5.451.391-8.164.719C601.973-146.087,602.1-145.342,602.577-145.4Zm57.514,48.58q1-4,1.754-8.06c.089-.473-.656-.577-.744-.1a132.256,132.256,0,0,1-3.765,15.239.33.33,0,0,0-.213.141,18.213,18.213,0,0,1-4.93,4.654l-.307.2a18.308,18.308,0,0,1-4.879,2.082c-.463.125-.182.828.276.7a18.772,18.772,0,0,0,9.47-5.966,133.288,133.288,0,0,1-6.861,16.972c-.214.432.479.734.687.3q1.413-2.9,2.676-5.857l.6-1.416a134.708,134.708,0,0,0,4.878-13.849,22.592,22.592,0,0,0,1.832,5.555c.209.432.906.156.7-.281a21.668,21.668,0,0,1-1.978-6.5.354.354,0,0,0-.141-.245c.2-.719.4-1.442.588-2.166Zm-80.723,9.985q-.945-4.974-1.583-10l-.213-1.759c-.11-.917-.208-1.828-.3-2.744a.439.439,0,0,1-.26-.214,26.807,26.807,0,0,0-5.155-6.533c-.437-.406.235-1.036.667-.636a27.489,27.489,0,0,1,4.571,5.519,164,164,0,0,1-.6-18.024l.047-1.89c.036-1,.078-1.994.13-2.993-.083.073-.172.145-.255.224-.323.286-.786-.2-.463-.485.25-.229.51-.447.765-.671.073-1.328.167-2.65.271-3.973.047-.593.968-.562.921.032-.083,1.03-.161,2.066-.224,3.1q1.914-1.641,3.9-3.2l1.02-.786q.789-.609,1.593-1.2a.367.367,0,0,1,.037-.25,19.55,19.55,0,0,0,2.155-5.669c.088-.427.734-.235.64.187a19.9,19.9,0,0,1-1.739,4.925,119.126,119.126,0,0,1,11-7.054l1.192-.672q2.507-1.382,5.082-2.645c.385-.187.708.4.317.594a117.536,117.536,0,0,0-14.093,8.158,16.709,16.709,0,0,1,9.928,1.031c.391.172.208.817-.187.651a16.191,16.191,0,0,0-4.577-1.229l-.322-.031a16.111,16.111,0,0,0-6.008.552.283.283,0,0,1-.229-.021,117.02,117.02,0,0,0-9.752,7.585,162.8,162.8,0,0,0,0,18.456,23.26,23.26,0,0,1,8.158-11.094c.469-.349,1.1.328.625.677a22.69,22.69,0,0,0-4.639,4.586l-.265.365a22.67,22.67,0,0,0-3.556,7.544.4.4,0,0,1-.182.255,164.248,164.248,0,0,0,2.488,19.107c.115.588-.78.8-.9.218" fill="#a17445"/><g clip-path="url(#b)"><path d="M609.122-66.7c.3-.823-.375-1.432-1.042-1.989a5.4,5.4,0,0,0-2.379-1,4.124,4.124,0,0,0-1.744-.105,1.582,1.582,0,0,0-1.26,1.1,1.01,1.01,0,0,0,.9,1.239c-.505.182-1.125.615-.906,1.1a.874.874,0,0,0,.354.359,3.861,3.861,0,0,0,1.859.583,3.5,3.5,0,0,0-.792,1.354,1.206,1.206,0,0,0,.531,1.364,1.749,1.749,0,0,0,1.385-.156,7.169,7.169,0,0,0,2.416-1.411,2.533,2.533,0,0,0,.729-2.577ZM579.347-86.939a3.056,3.056,0,0,0-.828-.973,1.164,1.164,0,0,0-1.213-.1.738.738,0,0,0-.187,1.1c-.354-.171-.89-.281-1.036.084a.68.68,0,0,0,0,.369,2.815,2.815,0,0,0,.64,1.271,2.583,2.583,0,0,0-1.1.27.879.879,0,0,0-.437.974c.109.333.464.505.781.645a5.251,5.251,0,0,0,1.958.558,1.834,1.834,0,0,0,1.707-.927l-.093.036c.577-.26.546-.921.505-1.556A4,4,0,0,0,579.347-86.939Zm63.724-57.586a3.125,3.125,0,0,0-1.348-.838,2.875,2.875,0,0,0,.9-.906.991.991,0,0,0-.141-1.187,1.436,1.436,0,0,0-1.124-.161,5.756,5.756,0,0,0-2.192.614,2.062,2.062,0,0,0-1.1,1.884l.068-.088c-.4.583.005,1.2.416,1.781a4.49,4.49,0,0,0,1.677,1.275,3.345,3.345,0,0,0,1.353.443,1.3,1.3,0,0,0,1.219-.615.826.826,0,0,0-.458-1.161c.432-.041,1.01-.25.937-.687A.732.732,0,0,0,643.071-144.525Zm8.617,75.173a2.068,2.068,0,0,0-1.458-1.619l.062.093c-.432-.557-1.14-.348-1.811-.13a4.417,4.417,0,0,0-1.708,1.229,3.3,3.3,0,0,0-.828,1.171,1.312,1.312,0,0,0,.219,1.349.815.815,0,0,0,1.239-.089c-.094.427-.062,1.047.37,1.1a.717.717,0,0,0,.4-.094,3.146,3.146,0,0,0,1.2-1.041,2.871,2.871,0,0,0,.588,1.13.965.965,0,0,0,1.166.218,1.441,1.441,0,0,0,.49-1.025A5.988,5.988,0,0,0,651.688-69.352ZM636.23-153.459a1.2,1.2,0,0,0-1.332.588,3.594,3.594,0,0,0-.391,1.521,3.828,3.828,0,0,0-1.723-.906.852.852,0,0,0-.5,0c-.5.192-.364.937-.135,1.426a1,1,0,0,0-1.505.24,1.613,1.613,0,0,0,.115,1.676,4.092,4.092,0,0,0,1.317,1.166,5.428,5.428,0,0,0,2.379.984c.864.073,1.77.12,2.135-.671l-.058.13a2.534,2.534,0,0,0,1.292-2.343,7.167,7.167,0,0,0-.724-2.718A1.761,1.761,0,0,0,636.23-153.459Zm-54.858,18.008a4.2,4.2,0,0,1-.427,1.713,5.468,5.468,0,0,1-1.4,2.171c-.672.557-1.39,1.114-2.135.672l.12.073a2.5,2.5,0,0,1-2.389-1.187,7.228,7.228,0,0,1-.938-2.65,1.8,1.8,0,0,1,.094-1.4,1.2,1.2,0,0,1,1.432-.276,3.508,3.508,0,0,1,1.182,1.031,3.827,3.827,0,0,1,.906-1.733.88.88,0,0,1,.411-.292c.52-.125.828.567.916,1.1a1,1,0,0,1,1.375-.667,1.614,1.614,0,0,1,.853,1.447" fill="#f6dde3"/></g><path d="M616.723-82.935c-.422.265-.328.895-.183,1.369a4.982,4.982,0,0,0-2.129-1.723.664.664,0,0,0-.422-.073.627.627,0,0,0-.328.26,2.251,2.251,0,0,0-.114,2.395,6.669,6.669,0,0,1,.739,1.14,2.24,2.24,0,0,0-1.51.323.81.81,0,0,0-.3.3.661.661,0,0,0,.183.739,1.731,1.731,0,0,0,.723.354,13.813,13.813,0,0,0,5.779.484,5.82,5.82,0,0,0-1.166-5.055C617.681-82.816,617.144-83.2,616.723-82.935Zm-30.228-55.478a2.921,2.921,0,0,0,1.7-.562,1.9,1.9,0,0,0,.546-1.677,3.49,3.49,0,0,0-.77-1.64.21.21,0,0,0-.1-.083.209.209,0,0,0-.157.063,2.056,2.056,0,0,0-.489.588.282.282,0,0,0-.328-.052.641.641,0,0,0-.266.234,2.634,2.634,0,0,0-.52,1.51,4.682,4.682,0,0,0,.359,1.635Zm16.613,5.17a5.174,5.174,0,0,1-.791-.588,1.632,1.632,0,0,0,.953-.6.586.586,0,0,0,.13-.281.483.483,0,0,0-.307-.459,1.3,1.3,0,0,0-.583-.062,10.135,10.135,0,0,0-4.072,1.13,4.223,4.223,0,0,0,2.062,3.16c.307.187.771.317.994.031s0-.7-.218-.984a3.6,3.6,0,0,0,1.884.64.47.47,0,0,0,.308-.057.448.448,0,0,0,.156-.26A1.624,1.624,0,0,0,603.108-133.243ZM589.916-72.367a1.884,1.884,0,0,0-1.739.183A3.421,3.421,0,0,0,587-70.81a.21.21,0,0,0-.036.135.2.2,0,0,0,.12.115,2.139,2.139,0,0,0,.734.213.3.3,0,0,0,.088.323.639.639,0,0,0,.318.146,2.539,2.539,0,0,0,1.582-.135,4.592,4.592,0,0,0,1.338-1l-.026-.016A2.98,2.98,0,0,0,589.916-72.367Zm72.309-13.406a4.988,4.988,0,0,0-1.437-1.2l-.01.031a3.292,3.292,0,0,0-1.12,1.677,2.124,2.124,0,0,0,.667,1.853,3.794,3.794,0,0,0,1.8.916.2.2,0,0,0,.156,0,.214.214,0,0,0,.094-.156,2.306,2.306,0,0,0,.026-.864.328.328,0,0,0,.328-.177.719.719,0,0,0,.073-.391A2.862,2.862,0,0,0,662.225-85.773Zm-7.2-49.865a.405.405,0,0,0-.443-.12,2.989,2.989,0,0,0-.276-1.02c-.036-.073-.078-.151-.156-.167a.291.291,0,0,0-.182.042,4.76,4.76,0,0,0-1.9,1.6,2.642,2.642,0,0,0-.281,2.406,4.086,4.086,0,0,0,1.806,1.687l.026.036a6.347,6.347,0,0,0,1.38-1.838,3.556,3.556,0,0,0,.213-2.181A.962.962,0,0,0,655.02-135.638Zm-22.418-.4a.743.743,0,0,0,.109-.031.667.667,0,0,0,.3-.172.546.546,0,0,0,0-.624,1.393,1.393,0,0,0-.495-.427,11.31,11.31,0,0,0-4.461-1.567,4.747,4.747,0,0,0-.1,4.227c.166.375.51.786.9.666s.438-.64.417-1.041a4.6,4.6,0,0,0,.364.729,2.229,2.229,0,0,0-1.327,1.687.594.594,0,0,0,.052.416.691.691,0,0,0,.343.25,5.02,5.02,0,0,0,2.723.292c-.437.234-.947.614-.833,1.1s.76.594,1.26.537a5.734,5.734,0,0,0,4.373-2.755A14.164,14.164,0,0,0,632.6-136.034Zm-59.476,25.8a2.616,2.616,0,0,0-1.588-1.817,4.664,4.664,0,0,0-2.463-.234.267.267,0,0,0-.177.068.274.274,0,0,0-.036.224,2.931,2.931,0,0,0,.354,1,.4.4,0,0,0-.3.354.966.966,0,0,0,.094.479,3.539,3.539,0,0,0,1.411,1.672,6.178,6.178,0,0,0,2.171.718v-.042A4.113,4.113,0,0,0,573.126-110.232Zm19.487-13.2a.64.64,0,0,1,.192.374.665.665,0,0,1-.146.4,5.015,5.015,0,0,1-2.072,1.8c.495-.058,1.125-.037,1.307.426s-.291.927-.734,1.167a5.709,5.709,0,0,1-5.149.239,14.169,14.169,0,0,1,1.52-5.633,1.723,1.723,0,0,1,.479-.651.654.654,0,0,1,.755-.052.812.812,0,0,1,.24.359,2.3,2.3,0,0,1,.041,1.552,6.7,6.7,0,0,0,1.245-.526,2.211,2.211,0,0,1,2.322.547" fill="#eab5a8"/><g clip-path="url(#c)"><path d="M648.908-145.082c-.453.375-.948.687-1.427,1.02a13.154,13.154,0,0,0-1.354,1.1c-.223.193-.416.406-.624.609-.1.109-.193.219-.292.328a3.524,3.524,0,0,0-.281.333l-.276.339-.26.348c-.182.229-.333.479-.495.719l-.229.375c-.057.093-.109.192-.161.286a2.7,2.7,0,0,1,.4-.291,3.029,3.029,0,0,1,1.026-.375,3.183,3.183,0,0,1,1.093.01,2.266,2.266,0,0,1,1.016.463l-.011.052a7.381,7.381,0,0,0-1.005-.078,6.56,6.56,0,0,0-1,.094,5.758,5.758,0,0,0-.974.25,6.162,6.162,0,0,0-.791.344l-.011.015-.182.4-.094.2-.088.2-.167.4-.145.416-.073.2-.063.214-.125.416-.156.641-.12.645-.057-.005a8.655,8.655,0,0,1,.047-.9c.016-.151.036-.3.057-.447l.078-.443.047-.218.052-.219.115-.437.14-.433.078-.213.079-.208.171-.422.193-.411c.068-.136.135-.271.208-.4l.219-.4c.078-.13.161-.255.245-.38s.166-.255.255-.38l.265-.365.287-.359a4.338,4.338,0,0,1,.3-.338c.063-.068.125-.136.188-.208.01-.084.021-.172.036-.256a6.585,6.585,0,0,1,.172-.807,7.9,7.9,0,0,1,.265-.786,4.659,4.659,0,0,1,.433-.817l.057.005a5.653,5.653,0,0,1-.057.88,7.1,7.1,0,0,1-.172.864c-.031.1-.063.193-.094.287.047-.042.094-.084.141-.12.119-.1.234-.2.348-.292l.365-.276a8.26,8.26,0,0,1,.75-.505c.505-.312,1.02-.572,1.483-.89a3.655,3.655,0,0,0,1.2-1.177l.052.016A3.343,3.343,0,0,1,648.908-145.082Zm2.384,3.431a.21.21,0,0,0-.328-.2,8.11,8.11,0,0,1-1.343.6,16.959,16.959,0,0,0,3.2-8.023.205.205,0,0,0-.36-.161c-1.421,1.525-3.738,1.4-5.508,2.337.141-.312.281-.63.417-.942a.206.206,0,0,0-.307-.25,36.708,36.708,0,0,0-3.811,2.525,3.106,3.106,0,0,0-1.109,1.708,4.031,4.031,0,0,1-.156-.641.206.206,0,0,0-.391-.062c-1.1,2.9-2.338,6.924-.271,9.7a.263.263,0,0,0,.037.042,2.515,2.515,0,0,0,2.306.3,12.737,12.737,0,0,0,3.488-1.671C649-137.559,651.162-139.272,651.292-141.651Zm12.084,42.087a5.017,5.017,0,0,1-.812-.338,7.449,7.449,0,0,1-.755-.448c-.078-.057-.157-.12-.24-.182a1.757,1.757,0,0,1,.068.177c.057.14.109.281.161.421l.141.438c.093.286.156.583.229.874.125.589.2,1.161.343,1.708a3.729,3.729,0,0,0,.714,1.531l-.037.041a3.426,3.426,0,0,1-.947-1.473c-.2-.552-.333-1.125-.49-1.687a12.046,12.046,0,0,0-.583-1.65c-.109-.276-.244-.531-.369-.8-.068-.125-.141-.255-.209-.38s-.14-.255-.218-.38l-.229-.375-.245-.364c-.156-.245-.344-.469-.51-.7l-.281-.338c-.068-.084-.141-.167-.214-.25a2.613,2.613,0,0,1,.141.473,2.985,2.985,0,0,1,.015,1.1,3.043,3.043,0,0,1-.364,1.036,2.284,2.284,0,0,1-.765.812l-.047-.031a7.4,7.4,0,0,0,.4-.927,5.709,5.709,0,0,0,.239-.979,5.974,5.974,0,0,0,.089-1,8.094,8.094,0,0,0-.063-.87l-.016-.01-.463-.464-.489-.437-.339-.276-.166-.135-.177-.13-.354-.255-.365-.24-.187-.12-.562-.328.026-.047a8.578,8.578,0,0,1,.822.334c.136.062.266.135.4.2l.385.224c.068.037.13.078.193.115l.187.125.375.255c.12.088.24.177.354.271l.177.14.172.151.338.3.323.318c.11.109.209.218.313.333l.3.338c.093.115.187.24.281.354s.182.245.265.37l.261.375.239.385c.083.13.151.26.224.4.042.083.083.166.13.244.078.042.151.078.229.115a7.208,7.208,0,0,1,.7.432c.219.156.432.323.646.51a4.518,4.518,0,0,1,.624.682Zm2.478,2.046a37.873,37.873,0,0,0-1.119-4.451,3.077,3.077,0,0,0-1.245-1.614,4.086,4.086,0,0,1,.656.057c.188.037.354-.208.188-.349-2.359-2-5.732-4.493-9.023-3.441a.251.251,0,0,0-.047.026,2.541,2.541,0,0,0-1.03,2.093,12.735,12.735,0,0,0,.421,3.863c.5,2.134,1.4,4.758,3.587,5.659a.209.209,0,0,0,.292-.245,8.769,8.769,0,0,1-.125-1.473,16.842,16.842,0,0,0,6.482,5.675.205.205,0,0,0,.265-.292c-.963-1.853-.083-4.009-.385-6,.25.235.495.474.744.709A.21.21,0,0,0,665.854-97.518ZM638.318-64.464a2.95,2.95,0,0,1-1.291-.838c-.364-.369-.672-.786-1-1.182A12.074,12.074,0,0,0,634.96-67.6c-.182-.177-.385-.333-.583-.5-.1-.078-.2-.156-.3-.229s-.208-.156-.312-.229l-.318-.213-.328-.2c-.213-.141-.442-.255-.666-.38l-.344-.172c-.088-.042-.177-.083-.26-.125a2.7,2.7,0,0,1,.281.328,2.66,2.66,0,0,1,.406.88,2.64,2.64,0,0,1,.078.968,1.957,1.957,0,0,1-.323.927h-.047a5.7,5.7,0,0,0-.01-.9,4.982,4.982,0,0,0-.161-.874,4.809,4.809,0,0,0-.292-.838,5.577,5.577,0,0,0-.364-.677l-.011,0-.359-.136-.182-.067-.547-.172-.375-.1-.187-.047-.182-.042-.38-.073-.38-.062-.188-.026-.193-.021-.38-.036v-.047a6.473,6.473,0,0,1,.787-.031c.13,0,.26,0,.39.01l.4.036c.062.011.13.016.192.026l.2.032.391.067c.125.026.255.058.385.089l.193.047.187.057.38.115.375.14c.125.047.245.1.37.156l.364.162c.12.057.234.119.354.182s.234.13.344.2l.343.2.333.224c.11.073.219.156.323.239.063.052.125.1.193.151.073,0,.151,0,.224,0a6.277,6.277,0,0,1,.718.094,6.118,6.118,0,0,1,.708.172,4,4,0,0,1,.745.317l.005.052a4.679,4.679,0,0,1-.776.016,5.3,5.3,0,0,1-.765-.083c-.089-.016-.172-.037-.26-.057a1.162,1.162,0,0,1,.119.114c.094.094.188.187.281.286l.266.3a7.458,7.458,0,0,1,.5.625c.317.422.583.854.895,1.244a3.253,3.253,0,0,0,1.12.969Zm.307-2.722c.287.1.573.2.854.3a.184.184,0,0,0,.193-.3,31.893,31.893,0,0,0-2.5-3.166,2.7,2.7,0,0,0-1.578-.848,3.014,3.014,0,0,1,.547-.188.182.182,0,0,0,.026-.349c-2.619-.749-6.222-1.525-8.486.521a.091.091,0,0,0-.031.036,2.266,2.266,0,0,0-.079,2.062,11.335,11.335,0,0,0,1.734,2.952c1.166,1.531,2.832,3.311,4.915,3.238a.185.185,0,0,0,.151-.3,7.169,7.169,0,0,1-.635-1.14,14.709,14.709,0,0,0,7.252,2.2.183.183,0,0,0,.109-.333C639.656-63.641,639.583-65.7,638.625-67.186Zm-67.072-54.77c.542-.193,1.1-.307,1.661-.458a12.815,12.815,0,0,0,1.619-.552c.266-.1.516-.239.776-.359.13-.063.255-.13.38-.2s.25-.135.37-.214l.369-.218.36-.234c.244-.151.463-.334.7-.5l.333-.271c.084-.068.167-.135.245-.208a2.389,2.389,0,0,1-.463.135,2.954,2.954,0,0,1-1.073,0,3.109,3.109,0,0,1-1.01-.38,2.239,2.239,0,0,1-.775-.77l.026-.047a6.739,6.739,0,0,0,.9.411,5.4,5.4,0,0,0,.953.255,6.192,6.192,0,0,0,.984.1,6.732,6.732,0,0,0,.849-.052l.01-.01.307-.3.151-.151.146-.157.286-.317.276-.333.136-.167.13-.172.255-.349.239-.359.115-.177.114-.187.219-.37.042.026a7.652,7.652,0,0,1-.339.812c-.062.13-.13.261-.2.391l-.223.385c-.037.063-.073.125-.115.187l-.375.547c-.088.12-.182.234-.276.349l-.14.177-.146.167-.3.333-.317.307c-.1.109-.214.208-.323.307l-.339.292c-.114.093-.234.182-.348.276s-.24.177-.365.26l-.369.25-.381.234c-.124.078-.26.146-.39.213-.083.042-.161.084-.245.125-.036.073-.073.151-.114.224a6.4,6.4,0,0,1-.427.688,7.423,7.423,0,0,1-.51.635,4.612,4.612,0,0,1-.672.609l-.052-.021a5.047,5.047,0,0,1,.349-.791,5.932,5.932,0,0,1,.448-.745c.057-.078.119-.156.177-.234a1.662,1.662,0,0,1-.167.068c-.141.046-.281.1-.422.151l-.427.13a8.287,8.287,0,0,1-.859.213c-.578.12-1.135.182-1.671.318a3.656,3.656,0,0,0-1.5.682l-.042-.037A3.369,3.369,0,0,1,571.553-121.956Zm1.135,2.525c-.234.24-.468.484-.7.729a.2.2,0,0,0,.2.333,36.421,36.421,0,0,0,4.362-1.041,3.047,3.047,0,0,0,1.6-1.208,3.439,3.439,0,0,1-.073.646c-.031.187.2.354.343.192,1.989-2.311,4.467-5.607,3.489-8.882a.233.233,0,0,0-.021-.046,2.464,2.464,0,0,0-2.031-1.052,12.362,12.362,0,0,0-3.785.359c-2.087.469-4.664,1.317-5.575,3.473a.2.2,0,0,0,.234.291,8.431,8.431,0,0,1,1.442-.1,16.564,16.564,0,0,0-5.633,6.336.2.2,0,0,0,.276.271C568.643-120.066,570.736-119.165,572.688-119.431Zm82.493,35.616a6.006,6.006,0,0,1-.536-.37c-.089-.062-.172-.135-.255-.2l-.245-.213c-.042-.037-.083-.078-.12-.115l-.114-.114-.229-.24c-.073-.083-.146-.166-.214-.25l-.1-.125-.1-.135-.2-.26-.177-.282a3.1,3.1,0,0,1-.172-.281l-.166-.286c-.052-.1-.1-.2-.146-.3a3.025,3.025,0,0,1-.135-.3l-.131-.307-.114-.312a3.168,3.168,0,0,1-.1-.318c-.021-.063-.036-.13-.057-.193-.052-.041-.1-.078-.146-.119a5.549,5.549,0,0,1-.437-.412,5.38,5.38,0,0,1-.386-.463,3.436,3.436,0,0,1-.343-.583l.021-.031a3.939,3.939,0,0,1,.525.364,5.278,5.278,0,0,1,.474.437c.047.052.094.11.141.167-.005-.047-.016-.094-.021-.135-.016-.11-.037-.219-.052-.328l-.031-.334a5.616,5.616,0,0,1-.032-.661c-.005-.437.026-.859.011-1.27a2.789,2.789,0,0,0-.281-1.2l.031-.026a2.542,2.542,0,0,1,.458,1.2c.057.427.068.853.094,1.28a9.589,9.589,0,0,0,.166,1.271c.037.208.1.411.146.619.031.1.063.2.094.307s.062.2.1.3l.1.3.12.3c.078.2.177.391.26.583l.151.281c.036.073.073.146.114.214a2.183,2.183,0,0,1-.031-.359,2.139,2.139,0,0,1,.156-.787,2.16,2.16,0,0,1,.417-.687,1.677,1.677,0,0,1,.666-.463l.032.031a5.378,5.378,0,0,0-.427.6,4.561,4.561,0,0,0-.318.661,4.237,4.237,0,0,0-.213.708,4.3,4.3,0,0,0-.084.63l.005.01.172.266.089.135.094.13.192.256.3.374.109.115.214.239.338.339.12.109.234.214Zm-.359-8.216a.152.152,0,0,0-.245.131,6.558,6.558,0,0,1-.13,1.072,12.386,12.386,0,0,0-3.78-5.04.15.15,0,0,0-.234.167c.411,1.473-.541,2.879-.625,4.347-.14-.2-.286-.411-.427-.619a.151.151,0,0,0-.27.1,27.457,27.457,0,0,0,.13,3.347,2.258,2.258,0,0,0,.64,1.344,2.722,2.722,0,0,1-.458-.141c-.13-.057-.281.094-.182.219,1.385,1.791,3.415,4.081,5.924,3.832a.1.1,0,0,0,.037-.011,1.842,1.842,0,0,0,1.052-1.338,9.37,9.37,0,0,0,.281-2.822C656.5-89.042,656.254-91.052,654.822-92.031Zm-26.036-49.912c-.058.037-.115.068-.172.1l-.078.172a4.852,4.852,0,0,1-.292.531,5.013,5.013,0,0,1-.349.49,2.962,2.962,0,0,1-.474.479l-.036-.011a3.474,3.474,0,0,1,.224-.6,4.816,4.816,0,0,1,.3-.572c.036-.058.083-.12.125-.177-.042.015-.083.036-.125.052-.1.047-.2.093-.307.13l-.307.12c-.209.078-.422.13-.63.192-.422.11-.833.182-1.229.307a2.711,2.711,0,0,0-1.083.568l-.036-.021a2.5,2.5,0,0,1,1.041-.744c.4-.167.807-.276,1.208-.412a8.473,8.473,0,0,0,1.176-.479c.2-.088.38-.2.568-.3.088-.052.177-.109.27-.166a2.672,2.672,0,0,0,.266-.172l.265-.177.256-.187c.171-.125.333-.266.494-.4l.24-.214c.057-.052.114-.109.171-.166a1.965,1.965,0,0,1-.338.119,2.245,2.245,0,0,1-.8.047,2.332,2.332,0,0,1-.766-.239,1.67,1.67,0,0,1-.609-.536l.021-.037a5.208,5.208,0,0,0,.682.266,4.352,4.352,0,0,0,.718.145,3.845,3.845,0,0,0,.734.032,3.729,3.729,0,0,0,.625-.073l.011-.005.213-.24.1-.114.1-.125.2-.25.193-.255.094-.131.088-.135.172-.265.161-.276.084-.141.218-.422.037.016c-.068.2-.131.416-.219.614-.042.1-.089.2-.13.3l-.151.292c-.026.047-.052.094-.078.146l-.084.14-.171.281c-.058.094-.125.183-.188.271l-.094.135-.1.125-.2.261-.224.244c-.072.084-.151.162-.229.24l-.239.234c-.078.073-.167.146-.25.214a2.715,2.715,0,0,1-.255.208l-.266.2-.27.192A3.152,3.152,0,0,1,628.786-141.943Zm1.52,1.729a3.1,3.1,0,0,1-.026.484c-.016.135.161.25.26.125,1.38-1.8,3.077-4.347,2.213-6.732,0-.015-.011-.026-.016-.036a1.846,1.846,0,0,0-1.551-.693,9.243,9.243,0,0,0-2.786.427c-1.53.438-3.405,1.172-3.988,2.812a.152.152,0,0,0,.182.208,6.25,6.25,0,0,1,1.068-.141,12.32,12.32,0,0,0-3.915,4.936.152.152,0,0,0,.224.187c1.312-.765,2.9-.187,4.336-.468-.166.187-.328.38-.489.572a.148.148,0,0,0,.161.235,25.952,25.952,0,0,0,3.192-.958A2.282,2.282,0,0,0,630.306-140.214Zm-44.019,31.523c-.4-.161-.77-.369-1.151-.562a9.307,9.307,0,0,0-1.176-.484c-.2-.073-.406-.12-.6-.182-.1-.026-.208-.047-.312-.073s-.209-.047-.313-.063l-.312-.062-.313-.042c-.208-.036-.421-.041-.63-.062l-.317-.016c-.083,0-.161,0-.24,0a1.886,1.886,0,0,1,.323.156,2.247,2.247,0,0,1,.6.526,2.219,2.219,0,0,1,.38.708,1.644,1.644,0,0,1,.068.812l-.042.016a4.848,4.848,0,0,0-.3-.672,4.594,4.594,0,0,0-.411-.614,4.033,4.033,0,0,0-.5-.536,5.766,5.766,0,0,0-.5-.391h-.01l-.323.021-.156.01-.156.016-.318.037-.469.078-.156.031-.312.068-.307.083-.151.041-.458.151-.011-.036a6.055,6.055,0,0,1,.583-.286c.1-.042.2-.084.3-.12l.307-.1a1.605,1.605,0,0,1,.157-.052l.161-.042.318-.078c.1-.026.213-.042.322-.062l.323-.053.328-.036.328-.021c.109,0,.219-.01.328-.01h.333c.11,0,.219.015.328.021s.219.02.328.031l.328.042.328.057c.11.021.214.047.323.073l.193.047c.062-.021.119-.047.177-.068a4.78,4.78,0,0,1,.572-.172,4.443,4.443,0,0,1,.594-.1,2.806,2.806,0,0,1,.672-.01l.015.031a3.3,3.3,0,0,1-.578.276,4.181,4.181,0,0,1-.609.192c-.073.021-.14.032-.213.047a.663.663,0,0,1,.125.047c.1.042.208.078.307.12l.3.135c.2.089.395.2.588.3.38.219.724.458,1.088.646a2.765,2.765,0,0,0,1.177.359v.036A2.464,2.464,0,0,1,586.287-108.691Zm4.014.75c-1.468-.38-2.2-1.911-3.426-2.717.25-.021.495-.042.745-.068a.151.151,0,0,0,.047-.286,27.026,27.026,0,0,0-2.947-1.557,2.209,2.209,0,0,0-1.479-.109,2.619,2.619,0,0,1,.354-.328.152.152,0,0,0-.1-.276c-2.229.317-5.217.942-6.253,3.253-.005.016-.011.027-.016.042a1.861,1.861,0,0,0,.63,1.583,9.092,9.092,0,0,0,2.291,1.655c1.4.771,3.243,1.557,4.8.8a.154.154,0,0,0,.011-.276,6.112,6.112,0,0,1-.859-.651,12.162,12.162,0,0,0,6.221-.775A.149.149,0,0,0,590.3-107.941Zm18.68-35.413a5.383,5.383,0,0,1-.646-.031c-.109-.01-.218-.021-.322-.036l-.323-.058-.162-.031-.156-.041-.317-.079c-.11-.031-.209-.067-.313-.1l-.156-.052-.156-.062-.307-.12-.3-.14c-.1-.047-.2-.1-.292-.151l-.291-.162c-.094-.057-.187-.114-.281-.177a3.273,3.273,0,0,1-.271-.187l-.271-.193-.26-.2c-.083-.073-.167-.146-.245-.224-.052-.041-.1-.088-.151-.135-.062-.005-.125-.016-.187-.021a4.963,4.963,0,0,1-.583-.125,4.949,4.949,0,0,1-.573-.193,3.6,3.6,0,0,1-.593-.312v-.042a3.817,3.817,0,0,1,.64.037,4.387,4.387,0,0,1,.63.125c.068.015.135.041.208.062-.031-.031-.062-.067-.093-.1-.068-.083-.141-.166-.209-.25l-.2-.265c-.135-.172-.25-.365-.369-.552-.23-.37-.422-.745-.651-1.088a2.774,2.774,0,0,0-.859-.88l.01-.037a2.483,2.483,0,0,1,1.01.781c.276.334.5.7.745,1.047a9.922,9.922,0,0,0,.8.989c.141.161.3.307.448.458.078.073.156.141.24.214s.156.14.239.2l.245.2.26.192c.167.13.349.24.521.36l.276.161c.067.042.135.083.2.12a2.057,2.057,0,0,1-.209-.292,2.066,2.066,0,0,1-.275-.75,2.327,2.327,0,0,1,0-.807,1.637,1.637,0,0,1,.333-.744l.036.01a4.992,4.992,0,0,0-.052.734,4.309,4.309,0,0,0,.073.735,4.162,4.162,0,0,0,.182.713,4.856,4.856,0,0,0,.255.583l.011,0,.286.135.146.068.146.063.3.119.3.1.151.053.151.046.307.089.307.078.157.036.156.026.312.063Zm-.724-3.8c-.864-1.343-2.113-2.931-3.837-3.015a.155.155,0,0,0-.145.24,5.946,5.946,0,0,1,.447.984,12.277,12.277,0,0,0-5.836-2.317.154.154,0,0,0-.114.271c1.114,1.036,1.03,2.738,1.723,4.035-.229-.1-.458-.2-.687-.3a.148.148,0,0,0-.177.224,25.828,25.828,0,0,0,1.843,2.79,2.223,2.223,0,0,0,1.249.807,2.817,2.817,0,0,1-.468.12.15.15,0,0,0-.042.286c2.108.8,5.029,1.687,7.039.156.01-.01.021-.015.031-.026a1.892,1.892,0,0,0,.2-1.7A9.32,9.32,0,0,0,608.257-147.154ZM588.187-79.7a4.2,4.2,0,0,1-.416-.489,5.27,5.27,0,0,1-.349-.542c-.031-.068-.062-.13-.094-.2-.005.047-.005.089-.01.136-.016.109-.026.224-.037.333l-.052.328c-.031.219-.088.432-.135.645-.109.427-.25.823-.333,1.229a2.744,2.744,0,0,0-.037,1.234l-.036.016a2.53,2.53,0,0,1-.135-1.276c.046-.427.151-.843.234-1.265a9.379,9.379,0,0,0,.156-1.265c.016-.214.01-.427.016-.641,0-.109-.006-.213-.011-.317a3.188,3.188,0,0,0-.021-.323l-.026-.317-.036-.318c-.026-.213-.073-.422-.109-.63l-.068-.312c-.021-.078-.037-.157-.063-.235a1.568,1.568,0,0,1-.057.354,2.25,2.25,0,0,1-.349.724,2.335,2.335,0,0,1-.578.557,1.574,1.574,0,0,1-.765.271l-.021-.031a4.475,4.475,0,0,0,.563-.474,4.077,4.077,0,0,0,.479-.557,4.112,4.112,0,0,0,.385-.63,4.348,4.348,0,0,0,.239-.589v-.01l-.156-.453-.057-.151-.115-.3-.135-.291-.063-.146-.072-.14-.146-.287-.162-.276-.083-.135-.088-.135-.172-.266.031-.026a5.411,5.411,0,0,1,.427.495c.068.083.13.171.2.26l.182.271c.026.046.057.093.089.14l.078.146.161.286q.078.148.141.3l.072.151.188.458.1.313c.036.1.068.213.094.322l.088.318c.026.109.042.219.068.328s.036.219.052.328l.047.328.031.333c.01.109.016.219.016.328.005.068.005.135.005.2.042.052.078.1.114.151a4.95,4.95,0,0,1,.318.516,5.181,5.181,0,0,1,.255.546,2.912,2.912,0,0,1,.182.651Zm-2.728-7.721h-.041a1.839,1.839,0,0,0-1.354,1.026,9.227,9.227,0,0,0-.984,2.66c-.37,1.557-.64,3.561.495,4.873a.152.152,0,0,0,.27-.062,6.228,6.228,0,0,1,.4-1.005,12.429,12.429,0,0,0,2.374,5.847.151.151,0,0,0,.271-.1c-.026-1.525,1.254-2.644,1.707-4.04.084.235.172.469.256.708a.15.15,0,0,0,.286-.031,27.431,27.431,0,0,0,.724-3.269,2.27,2.27,0,0,0-.282-1.469,2.794,2.794,0,0,1,.406.261c.115.083.3-.021.235-.167C589.333-84.279,587.948-87.017,585.459-87.418Zm17.535,20.107c-.109.015-.219.031-.323.041l-.328.026c-.052.005-.109.005-.161.011h-.167l-.328-.006c-.109,0-.213-.01-.328-.02l-.161-.011-.162-.021-.328-.041-.322-.068c-.11-.021-.214-.042-.323-.073l-.318-.083c-.1-.031-.213-.068-.317-.1s-.209-.073-.308-.115l-.307-.119-.3-.141a2.288,2.288,0,0,1-.3-.151c-.058-.031-.12-.062-.177-.094-.063.006-.125.016-.188.021a4.484,4.484,0,0,1-.6.026,4.539,4.539,0,0,1-.6-.047,3.04,3.04,0,0,1-.651-.156l-.011-.041a4.146,4.146,0,0,1,.63-.12,5.186,5.186,0,0,1,.641-.037l.213.016-.109-.078c-.089-.068-.182-.13-.271-.2l-.255-.2c-.177-.135-.333-.291-.5-.442-.312-.3-.588-.62-.895-.9a2.711,2.711,0,0,0-1.046-.64l.005-.042a2.555,2.555,0,0,1,1.166.51c.344.255.656.552.974.828a8.9,8.9,0,0,0,1.02.765c.177.12.364.219.547.328.088.052.187.1.281.151s.187.1.281.141l.291.135.292.12c.193.083.4.146.6.219l.3.093c.078.021.156.047.229.063a2.314,2.314,0,0,1-.276-.229,2.214,2.214,0,0,1-.448-.661,2.383,2.383,0,0,1-.2-.781,1.725,1.725,0,0,1,.141-.8l.041,0a4.8,4.8,0,0,0,.131.729,4.509,4.509,0,0,0,.244.692,4.112,4.112,0,0,0,.354.646,6.178,6.178,0,0,0,.386.5h.01l.469.093.161.021.312.047.318.026.156.016.161,0,.318.015.318,0,.161-.005.474-.031.005.041C603.421-67.395,603.207-67.337,602.994-67.311ZM602-70.951c-1.161-1.088-2.759-2.316-4.456-1.973a.152.152,0,0,0-.078.266,6.05,6.05,0,0,1,.671.848,12.155,12.155,0,0,0-6.221-.807.153.153,0,0,0-.047.287c1.333.729,1.666,2.4,2.65,3.488l-.734-.125a.152.152,0,0,0-.12.266,26.742,26.742,0,0,0,2.468,2.249,2.211,2.211,0,0,0,1.406.473,2.283,2.283,0,0,1-.422.229.153.153,0,0,0,.026.292c2.239.255,5.29.39,6.862-1.588a.145.145,0,0,0,.021-.031,1.867,1.867,0,0,0-.214-1.7A9.32,9.32,0,0,0,602-70.951ZM579.3-95.8c-.109.021-.213.031-.322.047l-.328.021c-.052.005-.11.01-.162.01H578c-.109,0-.219-.015-.328-.021l-.167-.015-.161-.021-.328-.042-.323-.062c-.109-.021-.213-.047-.317-.073l-.323-.083c-.1-.032-.208-.068-.313-.1s-.208-.073-.312-.115l-.307-.12-.3-.135c-.1-.047-.2-.1-.3-.151-.057-.031-.114-.068-.177-.1-.062.01-.125.021-.182.026a5.932,5.932,0,0,1-.6.026c-.193-.005-.39-.021-.6-.047a3.2,3.2,0,0,1-.65-.161l-.011-.037a3.682,3.682,0,0,1,.63-.119,4.441,4.441,0,0,1,.64-.037c.073,0,.146,0,.219.011-.042-.026-.078-.053-.114-.079-.089-.062-.177-.124-.266-.192l-.26-.208c-.177-.136-.333-.292-.495-.443-.312-.3-.588-.619-.895-.895a2.662,2.662,0,0,0-1.047-.636l0-.041a2.432,2.432,0,0,1,1.167.51c.348.25.656.547.978.828a9.107,9.107,0,0,0,1.016.76c.177.125.364.224.546.333.094.052.188.1.281.146a2.817,2.817,0,0,0,.287.14l.286.136.292.125c.2.083.4.146.6.218l.3.089c.078.026.156.047.235.068a1.681,1.681,0,0,1-.276-.229,2.154,2.154,0,0,1-.453-.667,2.232,2.232,0,0,1-.193-.776,1.619,1.619,0,0,1,.141-.807h.036a5.014,5.014,0,0,0,.13.729,4.284,4.284,0,0,0,.25.693,3.9,3.9,0,0,0,.349.645,5.31,5.31,0,0,0,.39.5h.011l.312.063.313.052.312.041.318.032.161.015.156.006.318.01.317,0h.162l.156-.011.317-.02.006.036A5.31,5.31,0,0,1,579.3-95.8Zm-.994-3.634c-1.161-1.093-2.759-2.322-4.451-1.973a.153.153,0,0,0-.084.266,6.4,6.4,0,0,1,.672.843,12.2,12.2,0,0,0-6.216-.807.151.151,0,0,0-.047.286c1.328.734,1.666,2.406,2.65,3.488-.25-.041-.495-.078-.739-.119a.149.149,0,0,0-.12.26,26.337,26.337,0,0,0,2.468,2.249,2.227,2.227,0,0,0,1.405.479,2.613,2.613,0,0,1-.421.229c-.13.057-.13.271.026.287,2.238.255,5.289.395,6.867-1.583.005-.011.015-.026.021-.037a1.877,1.877,0,0,0-.219-1.692,9.194,9.194,0,0,0-1.812-2.176" fill="#a3bbae"/></g><path d="M619.159-150.788c-.213.068-.349.333-.468.531-.089.141-.318.557-.406.25-.053-.182.109-.458.177-.635a.811.811,0,0,0,.041-.76c-.182-.245-.588-.229-.864-.172a3.8,3.8,0,0,0-1.963,1.447,8.431,8.431,0,0,0-1.431,2.629c-.053-.224-.11-.447-.172-.666a8.464,8.464,0,0,0-1.448-2.817,3.813,3.813,0,0,0-1.947-1.473.891.891,0,0,0-.864.156c-.156.2-.068.516.026.765.068.177.229.453.172.636-.089.307-.318-.11-.4-.256-.12-.2-.245-.463-.463-.531-.276-.088-.474.209-.578.433a2.7,2.7,0,0,0-.219,1.135,5.854,5.854,0,0,0,.729,2.733,6.771,6.771,0,0,0,1.822,2.155.856.856,0,0,1-.13-.026,8.219,8.219,0,0,0-3.15.078,3.79,3.79,0,0,0-2.166,1.109c-.177.229-.369.583-.239.854.109.229.427.292.692.312.188.016.505-.005.641.12.234.219-.235.245-.4.255a1.062,1.062,0,0,0-.682.188c-.2.208-.016.52.135.713a2.625,2.625,0,0,0,.916.692,5.774,5.774,0,0,0,2.76.542,6.83,6.83,0,0,0,1.359-.2,7.848,7.848,0,0,0-.6,1.989,3.816,3.816,0,0,0,.213,2.441c.141.25.4.563.693.542.255-.021.427-.292.546-.536.084-.162.183-.469.354-.552.287-.136.131.312.084.474a1.082,1.082,0,0,0-.084.7c.12.266.469.214.708.141a2.56,2.56,0,0,0,.979-.594,5.884,5.884,0,0,0,1.531-2.374,6.93,6.93,0,0,0,.338-3.144,6.8,6.8,0,0,0,2.973,1.13,5.7,5.7,0,0,0,2.8-.308,2.556,2.556,0,0,0,.968-.609c.172-.182.375-.473.2-.7-.141-.177-.437-.2-.666-.239-.162-.026-.63-.089-.38-.286.151-.12.463-.068.65-.068.266,0,.589-.037.719-.255.151-.255-.011-.625-.167-.864a3.819,3.819,0,0,0-2.067-1.3,8.13,8.13,0,0,0-2.035-.354,6.8,6.8,0,0,0,.786-1.13,5.905,5.905,0,0,0,.76-2.728,2.694,2.694,0,0,0-.2-1.129C619.628-150.569,619.435-150.871,619.159-150.788ZM655.03-79.931a1.164,1.164,0,0,0-.781.057c-.182.047-.682.2-.515-.12.093-.182.437-.281.625-.364.275-.12.583-.3.619-.583.042-.328-.292-.635-.557-.807a4.2,4.2,0,0,0-2.681-.37,9.089,9.089,0,0,0-3.16.984c.13-.219.255-.442.369-.672a9.282,9.282,0,0,0,1.01-3.373,4.3,4.3,0,0,0-.416-2.692c-.177-.265-.484-.593-.812-.546-.282.041-.453.354-.568.635-.078.187-.167.536-.349.635-.312.172-.172-.333-.13-.516a1.173,1.173,0,0,0,.042-.786c-.151-.286-.536-.2-.8-.1a2.962,2.962,0,0,0-1.041.734,6.471,6.471,0,0,0-1.52,2.749,7.659,7.659,0,0,0-.209,3.145c-.026-.042-.052-.084-.083-.125a9.206,9.206,0,0,0-2.572-2.39,4.163,4.163,0,0,0-2.582-.8c-.318.042-.744.172-.849.495-.083.271.12.562.318.786.135.156.406.391.416.6.021.354-.374,0-.515-.11-.2-.166-.432-.395-.687-.385-.318.016-.411.4-.443.677a3.037,3.037,0,0,0,.2,1.265,6.462,6.462,0,0,0,1.786,2.582,7.212,7.212,0,0,0,1.234.9,8.948,8.948,0,0,0-2.01,1.119,4.273,4.273,0,0,0-1.7,2.119c-.078.308-.115.755.141.974.213.182.562.1.843,0,.193-.068.51-.234.708-.167.333.115-.135.349-.3.438-.229.125-.526.26-.609.5-.109.3.214.537.458.667a2.883,2.883,0,0,0,1.239.281,6.352,6.352,0,0,0,3.046-.7,7.594,7.594,0,0,0,2.686-2.244,7.718,7.718,0,0,0,1.505,3.218,6.407,6.407,0,0,0,2.468,1.931,2.9,2.9,0,0,0,1.244.271c.276-.015.661-.088.692-.411.026-.255-.187-.5-.343-.708-.109-.151-.432-.562-.083-.526.208.021.421.307.572.448.214.213.495.432.766.359.322-.083.473-.51.536-.823a4.254,4.254,0,0,0-.661-2.639,8.988,8.988,0,0,0-1.349-1.869,7.643,7.643,0,0,0,1.494-.292,6.445,6.445,0,0,0,2.7-1.582,2.926,2.926,0,0,0,.714-1.063C655.233-79.39,655.316-79.78,655.03-79.931Zm-64.6-17.863a2.994,2.994,0,0,1,.042,1.276,6.554,6.554,0,0,1-1.276,2.879,7.582,7.582,0,0,1-1.041,1.114,9.173,9.173,0,0,1,2.181.723,4.225,4.225,0,0,1,2.067,1.755,1.008,1.008,0,0,1,.047.984.9.9,0,0,1-.833.156c-.2-.026-.541-.13-.724-.026-.307.177.2.318.375.375.245.078.562.156.687.375.167.276-.109.567-.322.739a2.94,2.94,0,0,1-1.167.516,6.373,6.373,0,0,1-3.123-.115,7.526,7.526,0,0,1-3.088-1.723,7.732,7.732,0,0,1-.874,3.4A6.445,6.445,0,0,1,581.31-83a2.825,2.825,0,0,1-1.172.5c-.27.036-.666.041-.754-.271-.073-.245.093-.526.2-.76.078-.167.322-.635-.016-.531-.2.057-.359.38-.479.547-.167.25-.4.52-.682.5-.333-.02-.562-.411-.682-.708a4.281,4.281,0,0,1,.156-2.717,8.973,8.973,0,0,1,.974-2.093,7.09,7.09,0,0,1-1.52,0,6.345,6.345,0,0,1-2.952-1.042,2.963,2.963,0,0,1-.9-.906c-.135-.239-.286-.609-.036-.812a1.188,1.188,0,0,1,.781-.088c.182.01.7.062.484-.214-.136-.166-.49-.192-.687-.239-.292-.068-.63-.188-.714-.453-.1-.323.167-.682.4-.9a4.23,4.23,0,0,1,2.561-.874,9.181,9.181,0,0,1,3.478.426l.141.047a7.493,7.493,0,0,1-1.661-2.665,6.527,6.527,0,0,1-.364-3.124,2.99,2.99,0,0,1,.416-1.213c.156-.229.417-.526.708-.385.229.109.323.421.422.661.073.172.255.666.406.349.088-.193-.042-.526-.089-.729a.912.912,0,0,1,.094-.844c.24-.234.677-.145.974-.036a4.241,4.241,0,0,1,1.905,1.937,9.331,9.331,0,0,1,1.14,3.332c.042.255.068.51.089.765a9.235,9.235,0,0,1,1.994-2.666,4.232,4.232,0,0,1,2.389-1.275c.318-.016.761.031.922.328a.91.91,0,0,1-.161.833c-.1.177-.328.458-.3.666.052.354.369-.062.489-.208.167-.2.349-.469.6-.5.323-.047.484.318.562.583" fill="#eab5a8"/><path d="M617.41-148.424c-.141.041-.229.213-.307.348-.058.094-.209.365-.271.162-.031-.12.073-.3.12-.417.067-.161.125-.369.026-.5-.12-.161-.385-.151-.568-.114a2.515,2.515,0,0,0-1.291.953,5.447,5.447,0,0,0-.942,1.733c-.037-.151-.073-.3-.115-.442a5.6,5.6,0,0,0-.952-1.854,2.5,2.5,0,0,0-1.281-.968c-.182-.042-.448-.052-.568.1-.1.13-.047.339.016.505.047.115.151.3.114.417-.062.2-.208-.073-.265-.167-.078-.135-.161-.307-.307-.354-.177-.057-.307.141-.38.286a1.765,1.765,0,0,0-.141.745,3.835,3.835,0,0,0,.479,1.8,4.45,4.45,0,0,0,1.2,1.422.415.415,0,0,0-.084-.016,5.425,5.425,0,0,0-2.072.047,2.5,2.5,0,0,0-1.432.734c-.114.146-.239.38-.156.557.078.151.287.193.458.208.125.011.334-.005.422.078.156.146-.156.156-.265.167a.741.741,0,0,0-.448.12c-.13.14-.011.343.088.473a1.7,1.7,0,0,0,.6.453,3.777,3.777,0,0,0,1.817.36,4.621,4.621,0,0,0,.9-.131,5.219,5.219,0,0,0-.4,1.312,2.487,2.487,0,0,0,.141,1.6c.093.161.26.369.458.354.166-.011.281-.193.359-.349.052-.109.12-.312.229-.364.193-.089.089.208.057.312a.7.7,0,0,0-.057.463c.083.172.313.136.469.094a1.769,1.769,0,0,0,.645-.4,3.8,3.8,0,0,0,1.005-1.561,4.524,4.524,0,0,0,.224-2.067,4.485,4.485,0,0,0,1.957.744,3.769,3.769,0,0,0,1.838-.2,1.726,1.726,0,0,0,.641-.4c.109-.12.244-.312.125-.463a.648.648,0,0,0-.433-.156c-.109-.021-.416-.063-.249-.193.093-.073.3-.042.421-.042.177,0,.391-.02.474-.166.1-.172-.005-.417-.109-.573a2.488,2.488,0,0,0-1.359-.849,5.328,5.328,0,0,0-1.338-.234,4.906,4.906,0,0,0,.515-.744,3.883,3.883,0,0,0,.5-1.8,1.684,1.684,0,0,0-.13-.745C617.722-148.284,617.592-148.482,617.41-148.424Zm34.408,69.013a.778.778,0,0,0-.516.042c-.114.026-.447.125-.338-.083.068-.12.292-.183.417-.24.177-.078.38-.192.406-.38.026-.219-.193-.416-.37-.531a2.757,2.757,0,0,0-1.765-.245,6.037,6.037,0,0,0-2.082.646c.088-.141.171-.292.249-.437a6.22,6.22,0,0,0,.662-2.223,2.835,2.835,0,0,0-.276-1.771c-.115-.177-.318-.39-.531-.359-.188.026-.3.229-.375.412-.052.13-.109.354-.229.421-.2.115-.115-.218-.084-.338a.816.816,0,0,0,.027-.521c-.1-.187-.355-.13-.526-.067a1.965,1.965,0,0,0-.688.484,4.326,4.326,0,0,0-1,1.811,5,5,0,0,0-.135,2.067c-.021-.026-.037-.052-.058-.078a6.023,6.023,0,0,0-1.692-1.577,2.755,2.755,0,0,0-1.7-.526c-.2.026-.484.114-.552.323-.057.177.078.375.208.52.089.1.266.255.271.4.016.234-.245,0-.339-.078-.13-.1-.286-.255-.452-.25-.209.01-.271.266-.292.448a1.973,1.973,0,0,0,.135.833,4.261,4.261,0,0,0,1.177,1.7,4.949,4.949,0,0,0,.812.594,5.814,5.814,0,0,0-1.322.734,2.834,2.834,0,0,0-1.125,1.395c-.052.2-.073.5.094.64.14.12.37.063.557,0,.125-.047.333-.156.463-.109.219.078-.088.234-.192.291-.151.084-.349.167-.4.323-.073.2.14.354.3.443a1.893,1.893,0,0,0,.812.187,4.235,4.235,0,0,0,2.01-.463,5.026,5.026,0,0,0,1.764-1.479,5.028,5.028,0,0,0,.99,2.119,4.319,4.319,0,0,0,1.624,1.276,2.027,2.027,0,0,0,.817.177c.183-.011.438-.058.459-.271.015-.167-.125-.328-.224-.469-.073-.1-.287-.369-.058-.343.136.015.282.2.375.3.141.135.328.281.505.234.214-.057.313-.333.354-.542a2.824,2.824,0,0,0-.432-1.738,5.715,5.715,0,0,0-.89-1.229,5.034,5.034,0,0,0,.984-.193,4.232,4.232,0,0,0,1.78-1.041,1.972,1.972,0,0,0,.469-.7C651.953-79.051,652.005-79.312,651.818-79.411ZM587.932-95.68a1.909,1.909,0,0,1,.026.843,4.231,4.231,0,0,1-.838,1.89,4.584,4.584,0,0,1-.687.734,5.756,5.756,0,0,1,1.437.479,2.786,2.786,0,0,1,1.364,1.151c.088.192.166.479.026.651-.115.145-.349.135-.547.1-.13-.021-.354-.089-.474-.021-.2.12.131.213.245.25.161.052.37.1.453.244.109.183-.073.375-.213.49a1.974,1.974,0,0,1-.766.338A4.3,4.3,0,0,1,585.9-88.6a5.014,5.014,0,0,1-2.036-1.14,5,5,0,0,1-.573,2.239,4.24,4.24,0,0,1-1.358,1.557,1.824,1.824,0,0,1-.771.327c-.182.027-.442.027-.5-.177-.047-.161.063-.343.136-.5.052-.11.213-.417-.011-.349-.13.036-.234.25-.312.359-.115.167-.266.344-.453.328-.219-.016-.37-.271-.448-.463a2.815,2.815,0,0,1,.1-1.791,5.8,5.8,0,0,1,.641-1.375,4.9,4.9,0,0,1-1.005,0,4.19,4.19,0,0,1-1.937-.687,1.888,1.888,0,0,1-.593-.594c-.089-.161-.188-.4-.021-.536a.79.79,0,0,1,.51-.057c.12,0,.463.042.318-.141-.084-.109-.318-.13-.448-.161-.193-.042-.417-.12-.474-.3-.068-.208.115-.448.266-.593a2.794,2.794,0,0,1,1.686-.573,6.008,6.008,0,0,1,2.286.281l.094.031a4.911,4.911,0,0,1-1.094-1.754,4.311,4.311,0,0,1-.239-2.057,1.887,1.887,0,0,1,.271-.8c.1-.151.276-.349.468-.255.151.073.214.276.276.437.047.109.167.437.271.224.057-.125-.031-.344-.063-.479-.041-.193-.072-.427.063-.557.156-.151.448-.094.645-.021a2.772,2.772,0,0,1,1.25,1.276,6.146,6.146,0,0,1,.755,2.191c.021.167.041.339.057.5a6.047,6.047,0,0,1,1.307-1.754,2.8,2.8,0,0,1,1.577-.838c.209-.011.5.021.6.213.089.162-.005.38-.1.552-.068.115-.219.3-.2.437.032.229.245-.046.318-.14.109-.13.234-.307.4-.328.213-.031.317.2.369.38" fill="#f6dde3"/><g clip-path="url(#d)"><path d="M625.724-72.45c-.161.026-.286.193-.4.323-.079.088-.292.359-.318.13-.016-.135.13-.312.2-.427.1-.167.2-.38.12-.541-.1-.193-.391-.229-.6-.224a2.74,2.74,0,0,0-1.562.8,6.052,6.052,0,0,0-1.328,1.7c-.01-.162-.026-.328-.046-.495a6,6,0,0,0-.7-2.176,2.8,2.8,0,0,0-1.213-1.281c-.193-.073-.474-.135-.635.011-.136.125-.11.359-.068.552.026.13.1.348.047.468-.1.208-.214-.114-.26-.229-.058-.156-.12-.359-.266-.432-.187-.1-.359.094-.463.239a2.039,2.039,0,0,0-.287.781,4.244,4.244,0,0,0,.2,2.031,4.972,4.972,0,0,0,1.047,1.754c-.032-.01-.063-.026-.089-.036a6.049,6.049,0,0,0-2.249-.318,2.688,2.688,0,0,0-1.676.536c-.151.136-.328.37-.266.578.052.172.266.255.458.3.125.032.354.058.438.162.14.182-.2.145-.318.135a.72.72,0,0,0-.505.052c-.161.125-.073.365.016.526a1.955,1.955,0,0,0,.572.6,4.165,4.165,0,0,0,1.9.713,4.783,4.783,0,0,0,.984.021,5.8,5.8,0,0,0-.656,1.343,2.77,2.77,0,0,0-.136,1.76c.073.2.219.447.432.468.183.016.339-.156.453-.312.078-.109.188-.318.318-.354.219-.063.057.239,0,.349a.789.789,0,0,0-.141.489c.058.2.313.208.49.187a1.867,1.867,0,0,0,.765-.312,4.21,4.21,0,0,0,1.369-1.51,5,5,0,0,0,.609-2.2,4.838,4.838,0,0,0,1.984,1.161,4.128,4.128,0,0,0,2.025.11,1.888,1.888,0,0,0,.76-.318c.141-.109.323-.292.219-.479-.078-.141-.281-.193-.443-.25-.114-.036-.437-.135-.239-.245.12-.067.338.006.474.026.187.032.421.047.536-.093.14-.167.068-.448-.016-.641a2.759,2.759,0,0,0-1.317-1.161,5.927,5.927,0,0,0-1.411-.494,4.779,4.779,0,0,0,.693-.713,4.248,4.248,0,0,0,.859-1.849,1.868,1.868,0,0,0-.011-.833C626.031-72.236,625.932-72.476,625.724-72.45Zm-29.878-8.174c-.125-.109-.339-.083-.505-.083-.12,0-.458.026-.307-.151.088-.1.317-.109.447-.135.193-.037.417-.1.479-.276.073-.209-.093-.448-.239-.594a2.714,2.714,0,0,0-1.64-.63,5.942,5.942,0,0,0-2.14.156c.115-.114.224-.239.333-.364A6.079,6.079,0,0,0,593.4-84.69a2.762,2.762,0,0,0,.125-1.759c-.073-.193-.219-.448-.432-.469-.183-.016-.339.161-.453.318-.078.109-.183.312-.313.354-.218.062-.057-.24-.005-.349.073-.151.187-.333.141-.49-.058-.2-.313-.2-.49-.182a1.862,1.862,0,0,0-.765.312,4.158,4.158,0,0,0-1.359,1.516,4.864,4.864,0,0,0-.583,1.952.4.4,0,0,1-.036-.089,6.129,6.129,0,0,0-1.281-1.89,2.76,2.76,0,0,0-1.52-.885c-.2-.02-.495,0-.6.188a.6.6,0,0,0,.083.546c.062.12.2.3.177.438-.036.229-.234-.047-.307-.146-.1-.135-.219-.312-.38-.344-.2-.036-.318.193-.375.365a1.891,1.891,0,0,0-.057.828,4.164,4.164,0,0,0,.755,1.895,4.283,4.283,0,0,0,.65.749,5.7,5.7,0,0,0-1.431.417,2.72,2.72,0,0,0-1.385,1.088c-.094.182-.188.458-.057.635a.592.592,0,0,0,.536.125c.135-.015.354-.073.474,0,.192.125-.141.2-.256.239-.161.042-.364.084-.453.224-.114.177.058.37.193.49a1.9,1.9,0,0,0,.739.359,4.19,4.19,0,0,0,2.031.005,4.934,4.934,0,0,0,2.025-1.026,4.922,4.922,0,0,0,.484,2.26,4.24,4.24,0,0,0,1.276,1.583,1.851,1.851,0,0,0,.749.348c.177.032.433.047.5-.156a.753.753,0,0,0-.114-.494c-.047-.115-.193-.422.021-.349.13.047.223.26.3.37.1.166.25.348.432.338.219-.005.375-.25.459-.437a2.792,2.792,0,0,0-.032-1.77,6.046,6.046,0,0,0-.583-1.38,4.717,4.717,0,0,0,.984.036,4.166,4.166,0,0,0,1.942-.6,1.913,1.913,0,0,0,.6-.567C595.9-80.254,596-80.488,595.846-80.624Zm8.5-62.074c-.208-.01-.4.183-.567.318-.115.1-.443.39-.427.1,0-.177.234-.37.344-.5.161-.193.333-.437.26-.661-.089-.266-.443-.375-.708-.406a3.508,3.508,0,0,0-2.15.677,7.639,7.639,0,0,0-2.031,1.874q.031-.321.047-.64a7.808,7.808,0,0,0-.432-2.9,3.529,3.529,0,0,0-1.265-1.875c-.224-.14-.573-.276-.8-.125-.2.131-.218.433-.208.677.01.177.068.469-.036.609-.172.24-.245-.192-.276-.343-.047-.214-.079-.484-.25-.609-.214-.157-.474.046-.635.208a2.4,2.4,0,0,0-.526.927,5.455,5.455,0,0,0-.172,2.613,6.234,6.234,0,0,0,.953,2.437,1.165,1.165,0,0,0-.11-.058,7.569,7.569,0,0,0-2.775-.885,3.522,3.522,0,0,0-2.233.323c-.219.146-.495.4-.458.672.026.234.286.385.515.484.156.068.443.146.526.3.135.26-.281.135-.432.1a.976.976,0,0,0-.651-.042c-.234.125-.166.448-.094.667a2.531,2.531,0,0,0,.6.879,5.389,5.389,0,0,0,2.254,1.307,6.322,6.322,0,0,0,1.25.234,7.674,7.674,0,0,0-1.119,1.562,3.589,3.589,0,0,0-.537,2.2c.052.26.183.614.448.682.229.062.463-.125.64-.3.12-.12.3-.36.469-.375.3-.037.026.312-.062.437-.131.172-.308.38-.287.588.026.271.354.328.583.339a2.389,2.389,0,0,0,1.031-.229,5.321,5.321,0,0,0,2.046-1.619,6.286,6.286,0,0,0,1.229-2.65,6.328,6.328,0,0,0,2.27,1.889,5.317,5.317,0,0,0,2.54.568,2.4,2.4,0,0,0,1.031-.24c.2-.109.469-.3.375-.557-.068-.2-.318-.307-.505-.411-.135-.073-.526-.265-.25-.364.167-.058.427.078.588.135.235.078.526.146.7-.005.214-.182.183-.552.115-.812a3.518,3.518,0,0,0-1.427-1.75,7.414,7.414,0,0,0-1.676-.926,6.644,6.644,0,0,0,1.02-.755,5.382,5.382,0,0,0,1.479-2.156,2.5,2.5,0,0,0,.161-1.057C604.7-142.37,604.618-142.692,604.347-142.7Zm60.58,30.353a3.1,3.1,0,0,1-.838,1.02,6.681,6.681,0,0,1-2.942,1.359,7.355,7.355,0,0,1-1.567.151,9.2,9.2,0,0,1,1.208,2.062,4.437,4.437,0,0,1,.422,2.785c-.094.318-.292.739-.635.8-.287.047-.552-.208-.755-.442-.136-.167-.328-.479-.542-.526-.359-.073-.062.385.032.552.14.229.338.5.286.765-.063.328-.469.365-.755.354a3.061,3.061,0,0,1-1.255-.4,6.675,6.675,0,0,1-2.353-2.238A7.966,7.966,0,0,1,654-109.57a7.845,7.845,0,0,1-2.988,2.04,6.55,6.55,0,0,1-3.207.422,2.986,2.986,0,0,1-1.25-.416c-.239-.157-.546-.427-.406-.729.11-.24.427-.344.677-.453.172-.073.682-.271.349-.427-.2-.089-.542.052-.745.1-.3.073-.666.125-.874-.083-.24-.25-.156-.708-.047-1.021a4.427,4.427,0,0,1,1.963-2.009,9.121,9.121,0,0,1,2.181-.953,7.742,7.742,0,0,1-1.187-1.052,6.661,6.661,0,0,1-1.583-2.837,3.039,3.039,0,0,1-.088-1.322c.062-.282.192-.672.526-.656.26.015.479.276.666.463.135.135.505.536.521.167.01-.219-.245-.485-.37-.656-.177-.256-.364-.573-.25-.844.141-.317.594-.416.922-.427a4.352,4.352,0,0,1,2.587,1.083,9.581,9.581,0,0,1,2.411,2.718c.026.047.052.094.078.135a7.959,7.959,0,0,1,.515-3.217,6.8,6.8,0,0,1,1.838-2.682,3.147,3.147,0,0,1,1.145-.655c.276-.068.682-.12.812.187a1.2,1.2,0,0,1-.119.807c-.063.182-.255.692.083.547.2-.089.323-.438.422-.625.146-.276.354-.583.645-.594.344-.015.63.354.781.646a4.42,4.42,0,0,1,.172,2.811,9.76,9.76,0,0,1-1.374,3.379c-.141.224-.292.437-.448.651a9.449,9.449,0,0,1,3.353-.7,4.347,4.347,0,0,1,2.723.646c.26.208.572.552.5.89-.062.286-.4.437-.692.536-.2.068-.568.136-.687.313-.2.307.333.2.52.177a1.238,1.238,0,0,1,.813.015c.281.183.161.578.041.844" fill="#f6dde3"/></g><path d="M624.2-70.971c-.109.01-.187.125-.26.208-.052.057-.193.234-.214.083-.01-.088.089-.2.136-.281a.4.4,0,0,0,.078-.354c-.068-.125-.261-.151-.4-.146a1.815,1.815,0,0,0-1.031.526,3.979,3.979,0,0,0-.869,1.119c-.005-.109-.016-.218-.031-.328a4.051,4.051,0,0,0-.459-1.431,1.858,1.858,0,0,0-.8-.844c-.125-.047-.313-.088-.417.011-.088.078-.073.234-.047.359.021.083.073.229.031.307-.067.141-.14-.073-.166-.151-.042-.1-.083-.234-.177-.281-.12-.068-.24.062-.307.156a1.265,1.265,0,0,0-.182.516,2.741,2.741,0,0,0,.124,1.338,3.311,3.311,0,0,0,.688,1.15c-.016,0-.037-.015-.058-.021a4.005,4.005,0,0,0-1.478-.213,1.816,1.816,0,0,0-1.1.354c-.1.094-.219.245-.177.38.037.115.177.172.3.2.083.026.234.041.292.109.093.12-.131.094-.209.089a.507.507,0,0,0-.333.031c-.109.083-.047.245.005.349a1.251,1.251,0,0,0,.38.395,2.761,2.761,0,0,0,1.25.469,3.025,3.025,0,0,0,.651.01,3.838,3.838,0,0,0-.432.885,1.8,1.8,0,0,0-.089,1.161c.047.131.141.3.281.308.125.01.224-.1.3-.209.047-.067.12-.2.2-.229.146-.041.042.156.005.229-.052.1-.125.219-.093.323.036.13.2.135.322.12a1.241,1.241,0,0,0,.506-.2,2.716,2.716,0,0,0,.9-1,3.208,3.208,0,0,0,.4-1.442,3.268,3.268,0,0,0,1.307.76,2.689,2.689,0,0,0,1.332.073,1.155,1.155,0,0,0,.5-.208c.094-.073.214-.193.146-.312-.052-.1-.187-.131-.292-.167-.072-.026-.286-.094-.156-.167.078-.041.224.006.313.021.125.021.276.032.354-.062.093-.11.041-.3-.011-.422a1.826,1.826,0,0,0-.869-.765,3.846,3.846,0,0,0-.927-.323,2.966,2.966,0,0,0,.453-.469,2.73,2.73,0,0,0,.568-1.218,1.284,1.284,0,0,0-.006-.546C624.407-70.836,624.339-70.992,624.2-70.971Zm-30.467-9.8a.536.536,0,0,0-.328-.052c-.078.006-.3.016-.2-.1.057-.068.208-.073.3-.089.125-.026.271-.068.312-.182.047-.136-.062-.292-.156-.391A1.8,1.8,0,0,0,592.576-82a3.994,3.994,0,0,0-1.406.1c.073-.078.146-.156.219-.24a4.014,4.014,0,0,0,.739-1.306,1.8,1.8,0,0,0,.084-1.161c-.047-.13-.146-.3-.287-.307-.119-.011-.218.1-.3.208-.047.073-.12.208-.2.234-.146.042-.042-.156-.006-.229a.54.54,0,0,0,.094-.323c-.036-.135-.208-.135-.323-.12a1.283,1.283,0,0,0-.505.2,2.769,2.769,0,0,0-.895,1,3.209,3.209,0,0,0-.385,1.286c-.006-.021-.016-.042-.021-.057a3.957,3.957,0,0,0-.844-1.245,1.8,1.8,0,0,0-1-.583c-.136-.015-.328,0-.4.125-.057.1,0,.245.057.354.042.078.135.2.12.292-.026.151-.156-.031-.208-.1-.068-.089-.141-.2-.245-.224-.135-.026-.214.13-.25.24a1.274,1.274,0,0,0-.036.546,2.712,2.712,0,0,0,.494,1.245,3.065,3.065,0,0,0,.427.494,3.981,3.981,0,0,0-.942.271,1.809,1.809,0,0,0-.911.718.416.416,0,0,0-.032.417c.073.1.224.1.349.083.089-.01.235-.047.313,0,.125.078-.094.13-.167.156-.109.026-.245.052-.3.146-.073.115.037.245.13.323a1.285,1.285,0,0,0,.484.239,2.766,2.766,0,0,0,1.338,0,3.251,3.251,0,0,0,1.333-.671,3.263,3.263,0,0,0,.318,1.484,2.72,2.72,0,0,0,.843,1.041,1.252,1.252,0,0,0,.49.234c.114.021.286.026.328-.1.036-.1-.032-.229-.073-.328-.032-.073-.13-.276.015-.229.084.031.146.172.193.245.068.109.167.223.286.223.141,0,.245-.166.3-.291a1.825,1.825,0,0,0-.026-1.166,3.675,3.675,0,0,0-.38-.906,3.049,3.049,0,0,0,.651.021,2.662,2.662,0,0,0,1.275-.4,1.28,1.28,0,0,0,.4-.37C593.774-80.525,593.841-80.676,593.737-80.77Zm8.382-60.392c-.14,0-.265.125-.375.214-.078.067-.291.26-.281.062,0-.114.151-.239.224-.328.109-.125.219-.286.172-.432-.057-.177-.292-.245-.463-.271a2.311,2.311,0,0,0-1.417.448,5.053,5.053,0,0,0-1.338,1.234c.016-.141.026-.281.032-.422a5.171,5.171,0,0,0-.287-1.91,2.328,2.328,0,0,0-.833-1.234c-.145-.089-.375-.183-.526-.078-.13.083-.14.281-.135.442,0,.115.042.307-.026.4-.114.161-.161-.125-.182-.224-.031-.14-.052-.317-.162-.4-.14-.1-.312.026-.421.136a1.627,1.627,0,0,0-.344.609,3.563,3.563,0,0,0-.114,1.723,4.221,4.221,0,0,0,.624,1.6c-.02-.016-.046-.027-.067-.042a5.089,5.089,0,0,0-1.828-.583A2.343,2.343,0,0,0,592.9-140c-.146.094-.328.261-.307.443.021.156.193.255.344.317.1.047.291.1.343.2.094.172-.182.094-.281.068a.62.62,0,0,0-.432-.026c-.156.078-.109.291-.057.437a1.555,1.555,0,0,0,.39.578,3.514,3.514,0,0,0,1.484.859,3.911,3.911,0,0,0,.823.156,4.947,4.947,0,0,0-.735,1.031,2.335,2.335,0,0,0-.354,1.447c.032.172.12.4.3.448.146.042.3-.083.417-.2.083-.078.2-.234.312-.244.193-.026.016.2-.047.286-.083.114-.2.25-.182.385.016.177.229.219.38.224a1.6,1.6,0,0,0,.682-.151,3.491,3.491,0,0,0,1.343-1.062,4.228,4.228,0,0,0,.812-1.744,4.2,4.2,0,0,0,1.489,1.239,3.535,3.535,0,0,0,1.672.375,1.635,1.635,0,0,0,.682-.156c.13-.073.307-.2.25-.37-.047-.13-.214-.2-.339-.271-.088-.047-.343-.171-.161-.239.109-.037.281.052.385.088.156.058.349.1.463,0,.141-.119.12-.364.073-.536a2.307,2.307,0,0,0-.937-1.15,4.866,4.866,0,0,0-1.1-.61,3.787,3.787,0,0,0,.672-.5,3.564,3.564,0,0,0,.974-1.416,1.724,1.724,0,0,0,.109-.693C602.343-140.943,602.3-141.151,602.119-141.162Zm59.435,28.744a2.067,2.067,0,0,1-.552.677,4.445,4.445,0,0,1-1.932.895,5.46,5.46,0,0,1-1.036.1,6.127,6.127,0,0,1,.8,1.354,2.934,2.934,0,0,1,.276,1.837c-.063.209-.193.485-.417.521-.193.031-.364-.135-.5-.291-.088-.11-.213-.318-.354-.344-.234-.047-.041.255.021.364a.8.8,0,0,1,.188.5c-.042.219-.308.24-.495.234a1.985,1.985,0,0,1-.828-.265,4.447,4.447,0,0,1-1.551-1.468,5.248,5.248,0,0,1-.807-2.286,5.206,5.206,0,0,1-1.968,1.349,4.431,4.431,0,0,1-2.114.276,2.058,2.058,0,0,1-.823-.271c-.156-.1-.359-.287-.265-.484.073-.157.281-.229.442-.3.115-.052.448-.182.23-.281-.125-.058-.354.036-.49.067-.2.047-.437.084-.573-.057-.161-.161-.1-.463-.031-.666a2.882,2.882,0,0,1,1.291-1.323,6.04,6.04,0,0,1,1.437-.63,5.039,5.039,0,0,1-.781-.692,4.43,4.43,0,0,1-1.046-1.869,1.986,1.986,0,0,1-.052-.869c.036-.183.125-.443.343-.427.172,0,.313.177.438.3.093.088.333.348.343.109.011-.141-.161-.318-.244-.432-.115-.167-.24-.38-.162-.557.089-.209.391-.271.6-.281a2.881,2.881,0,0,1,1.7.713,6.308,6.308,0,0,1,1.588,1.791,1,1,0,0,1,.052.088,5.226,5.226,0,0,1,.338-2.119,4.386,4.386,0,0,1,1.213-1.759,1.915,1.915,0,0,1,.75-.432c.182-.047.453-.084.536.119a.8.8,0,0,1-.078.531c-.042.12-.167.458.052.36.13-.058.213-.287.281-.412.094-.177.229-.38.422-.39.229-.011.416.234.515.427a2.879,2.879,0,0,1,.11,1.848,6.325,6.325,0,0,1-.9,2.223c-.094.146-.193.292-.3.432a6.224,6.224,0,0,1,2.208-.463,2.9,2.9,0,0,1,1.8.427c.166.135.375.364.328.588-.047.187-.266.286-.458.354-.136.042-.37.083-.448.2-.136.2.213.135.338.115.177-.026.391-.084.536.01.183.125.105.38.027.552" fill="#eab5a8"/><path d="M621.747-69.295a.257.257,0,0,0-.255.266.257.257,0,0,0,.187.249,1.871,1.871,0,0,1-.234.839.068.068,0,0,0,.119.067,1.887,1.887,0,0,0,.25-.906.256.256,0,0,0,.193-.255A.261.261,0,0,0,621.747-69.295Zm-.781,1.312a1.388,1.388,0,0,1-.635.161.2.2,0,0,0-.183-.151.2.2,0,0,0-.2.193.191.191,0,0,0,.188.2.19.19,0,0,0,.192-.14,1.49,1.49,0,0,0,.693-.172A.054.054,0,0,0,620.966-67.983Zm-.38-.906a.283.283,0,0,0,.078-.307.263.263,0,0,0-.344-.146.266.266,0,0,0-.146.344.264.264,0,0,0,.282.161,1.955,1.955,0,0,0,.588.75.07.07,0,0,0,.088-.109A1.836,1.836,0,0,1,620.586-68.889Zm.375-.474a.277.277,0,0,0,.177-.265.267.267,0,0,0-.276-.25.259.259,0,0,0-.25.276.266.266,0,0,0,.208.25,1.907,1.907,0,0,0,.312.9c.047.079.167,0,.115-.078A1.844,1.844,0,0,1,620.961-69.363ZM590.483-81.478a.264.264,0,0,0-.057.3,1.751,1.751,0,0,1-.771.391.072.072,0,0,0,.032.14,1.963,1.963,0,0,0,.833-.426.252.252,0,0,0,.317-.026.263.263,0,0,0,.011-.37A.258.258,0,0,0,590.483-81.478Zm-1.666-.052a.2.2,0,0,0-.015-.239.192.192,0,0,0-.276-.021.2.2,0,0,0-.026.276.2.2,0,0,0,.239.052,1.443,1.443,0,0,0,.588.4c.063.021.1-.078.037-.1A1.359,1.359,0,0,1,588.817-81.53Zm.812.344a1.909,1.909,0,0,1,.141-.875.271.271,0,0,0,.281-.145.266.266,0,0,0-.125-.354.254.254,0,0,0-.349.125.264.264,0,0,0,.068.317,1.981,1.981,0,0,0-.156.942C589.5-81.087,589.64-81.1,589.629-81.186Zm.188-.172a.07.07,0,0,0,.135.037,1.862,1.862,0,0,1,.422-.781.262.262,0,0,0,.312-.042.269.269,0,0,0,0-.375.258.258,0,0,0-.37,0,.269.269,0,0,0-.041.323A1.949,1.949,0,0,0,589.817-81.358Zm8.84-58.195a.335.335,0,0,0-.38.281.331.331,0,0,0,.187.349,2.355,2.355,0,0,1-.473,1.015.089.089,0,0,0,.14.109,2.462,2.462,0,0,0,.505-1.093.322.322,0,0,0,.3-.281A.332.332,0,0,0,598.657-139.553Zm-1.26,1.489a1.72,1.72,0,0,1-.843.073.248.248,0,0,0-.2-.229.254.254,0,0,0-.3.2.255.255,0,0,0,.193.3.26.26,0,0,0,.281-.141,1.858,1.858,0,0,0,.906-.073A.068.068,0,0,0,597.4-138.064Zm-.3-1.229a.342.342,0,0,0,.167-.369.339.339,0,0,0-.406-.255.336.336,0,0,0-.255.406.338.338,0,0,0,.323.26,2.464,2.464,0,0,0,.588,1.078c.078.088.213-.037.13-.125A2.382,2.382,0,0,1,597.1-139.293Zm.557-1.187a.332.332,0,0,0-.374.3.338.338,0,0,0,.213.354,2.588,2.588,0,0,0,.2,1.213.091.091,0,0,0,.167-.073,2.329,2.329,0,0,1-.188-1.119.349.349,0,0,0,.276-.3A.339.339,0,0,0,597.657-140.48Zm59.154,27.015a.409.409,0,0,0-.578.058.413.413,0,0,0-.026.494,2.869,2.869,0,0,1-1.14.781.11.11,0,0,0,.072.208,3.083,3.083,0,0,0,1.234-.843.412.412,0,0,0,.495-.115A.413.413,0,0,0,656.811-113.465Zm-2.286.787a2.179,2.179,0,0,1-.942-.464.313.313,0,0,0-.073-.369.313.313,0,0,0-.443.02.325.325,0,0,0,.021.448.314.314,0,0,0,.385.031,2.322,2.322,0,0,0,1.016.5A.085.085,0,0,0,654.525-112.678Zm.87-1.791a.425.425,0,0,0-.271-.537.419.419,0,0,0-.526.271.425.425,0,0,0,.172.489,3.208,3.208,0,0,0-.047,1.526.112.112,0,0,0,.219-.047,3,3,0,0,1,.041-1.411A.42.42,0,0,0,655.4-114.469Zm-.193,1.4a.113.113,0,0,0,.224.026,2.912,2.912,0,0,1,.5-1.317.426.426,0,0,0,.484-.141.429.429,0,0,0-.078-.593.418.418,0,0,0-.589.083.415.415,0,0,0,.006.515A3.205,3.205,0,0,0,655.2-113.074Zm-40.775-32.492a.359.359,0,0,0-.287.416.354.354,0,0,0,.313.3,2.576,2.576,0,0,1-.136,1.2.1.1,0,0,0,.183.067,2.784,2.784,0,0,0,.14-1.3.354.354,0,0,0,.2-.391A.352.352,0,0,0,614.427-145.566Zm-.771,1.968a1.821,1.821,0,0,1-.833.364.278.278,0,0,0-.286-.161.274.274,0,0,0-.234.307.278.278,0,0,0,.307.239.275.275,0,0,0,.234-.239,2.058,2.058,0,0,0,.9-.4C613.823-143.541,613.729-143.656,613.656-143.6Zm.177-.333a2.562,2.562,0,0,1-.906-.823.375.375,0,0,0,.042-.437.363.363,0,0,0-.5-.12.371.371,0,0,0-.125.505.371.371,0,0,0,.422.161,2.726,2.726,0,0,0,.973.891C613.849-143.692,613.943-143.869,613.833-143.931Zm-.494-1.557a.372.372,0,0,0,.182-.4.371.371,0,0,0-.437-.281.362.362,0,0,0-.276.437.356.356,0,0,0,.343.287,2.722,2.722,0,0,0,.625,1.166.1.1,0,0,0,.146-.13A2.5,2.5,0,0,1,613.339-145.488Zm33.9,66.036a.4.4,0,0,0-.557.109.406.406,0,0,0,.02.479,2.734,2.734,0,0,1-1.025.854.11.11,0,0,0,.093.2,3.055,3.055,0,0,0,1.109-.927.4.4,0,0,0,.464-.151A.406.406,0,0,0,647.242-79.452Zm-2.13.968a2.071,2.071,0,0,1-.947-.354.313.313,0,0,0-.1-.349.3.3,0,0,0-.422.057.3.3,0,0,0,.057.427.3.3,0,0,0,.375,0,2.2,2.2,0,0,0,1.02.391A.084.084,0,0,0,645.112-78.484Zm.3-1.484a.415.415,0,0,0,.37-.317.412.412,0,0,0-.307-.49.407.407,0,0,0-.485.307.407.407,0,0,0,.214.453,3.079,3.079,0,0,0,.088,1.474.11.11,0,0,0,.209-.068A2.87,2.87,0,0,1,645.414-79.968Zm.313,1.042a.109.109,0,0,0,.218.005,2.779,2.779,0,0,1,.359-1.312.4.4,0,0,0,.453-.182.408.408,0,0,0-.13-.563.41.41,0,0,0-.557.13.407.407,0,0,0,.052.5A3.048,3.048,0,0,0,645.727-78.926ZM583.83-93.4a.4.4,0,0,0-.391.417.406.406,0,0,0,.3.375,2.7,2.7,0,0,1-.338,1.3.109.109,0,0,0,.192.1,3.05,3.05,0,0,0,.359-1.406.4.4,0,0,0,.292-.4A.4.4,0,0,0,583.83-93.4Zm-1.166,2.041a2.053,2.053,0,0,1-.974.266.312.312,0,0,0-.286-.224.315.315,0,0,0-.313.3.31.31,0,0,0,.3.312.309.309,0,0,0,.3-.224,2.237,2.237,0,0,0,1.052-.291A.081.081,0,0,0,582.664-91.359Zm-.615-1.385a.408.408,0,0,0,.11-.474.4.4,0,0,0-.532-.218.411.411,0,0,0-.213.536.413.413,0,0,0,.437.245,2.988,2.988,0,0,0,.932,1.135c.11.088.24-.089.13-.172A2.809,2.809,0,0,1,582.049-92.744Zm1.036.536a.11.11,0,0,1-.182.125,3.1,3.1,0,0,1-.505-1.384.411.411,0,0,1-.333-.375.41.41,0,0,1,.38-.432.4.4,0,0,1,.432.38.4.4,0,0,1-.266.406,2.833,2.833,0,0,0,.474,1.28" fill="#a17445"/><path d="M623.739-113.656a3.338,3.338,0,0,1-.177-.521l-.23-.406-.895-.2a1.015,1.015,0,0,0-1.041-.781c-.781,0-1.239.172-1.239.287.026.088.171.2.26.406-.12.921-.552,2.769-.953,4.56a1.659,1.659,0,0,1-.146.552l-.291.432a6.962,6.962,0,0,1-6.034,3.494c-1.182,0-2.109-.344-2.223-1.588a15.009,15.009,0,0,1-.26-2.572,4.711,4.711,0,0,1,.057-.922l.057-.489a13.351,13.351,0,0,1,1.213-2.832l.609-1.76c.026,0,.838-.146,1.791-.406h.057a13.006,13.006,0,0,0,3.837-1.213l.292-.146a12.946,12.946,0,0,0,4.129-3.29l-.026-.146a.222.222,0,0,1,.057-.146,3.269,3.269,0,0,0,1.156-2.368l-.032-.2a.538.538,0,0,0-.057-.292,2.581,2.581,0,0,0,0-.635,2.416,2.416,0,0,0-2.369-2.452,2.466,2.466,0,0,0-1.556-.406c-1.911,0-4.478,1.01-7.195,3.7a.588.588,0,0,0-.172.2l-.318.375a.187.187,0,0,1-.146.057l-.692.693c-.286.291-1.1,1.416-1.182,1.385l.083.088-.286.578a4.51,4.51,0,0,0-.375,1.27c-.114.261-.666,1.791-.723,1.791-1.359-.348-2.572-1.041-2.656-2.051a2.924,2.924,0,0,1,0-.521l.115-.546a3.831,3.831,0,0,0,.172-.547,5.4,5.4,0,0,1-.432-1.473c-.032-.406.229-.724.229-.87,0-.026-.026-.057-.172-.083a1.011,1.011,0,0,0-.6.344l-.521,1.124a4.821,4.821,0,0,0-.666,2.864c.146,1.9,1.531,2.858,3.728,3.233l.317.088a22.555,22.555,0,0,0-.953,3.551l.084.864.12.635a5.8,5.8,0,0,0,.026,1.01c.291,3.468,3.061,4.941,6.237,4.941,1.01,0,3-.057,3.753-.635.349-.172.724-.375,1.1-.609a14.871,14.871,0,0,1-.578,2.717c-.344.807-.661,1.474-.864,1.849l-1.88,1.53a28.33,28.33,0,0,0-4.5,4.592c-1.416.489-1.442,4.3-1.474,4.5a2.956,2.956,0,0,0,2.775,2.281c2.4,0,4.155-2.307,5.774-5.342l1.442-2.337,1.041-1.994a.592.592,0,0,1,.058-.2l.926-2.6a7.153,7.153,0,0,0,.547-2.281l-.031-.349.927-4.04c1.1-2.978,1.1-4.274,1.067-4.565,0-.084-.026-.141,0-.2Zm-6.243-9.273.87-.806a4.818,4.818,0,0,1,2.509-1.187c.057.088,1.651-.084,1.244,1.593a12.472,12.472,0,0,1-.489,1.645,7.953,7.953,0,0,1-2.343,1.671c-1.416,1.937-3.868,2.572-6.263,2.775l.635-1.182a16.28,16.28,0,0,1,1.068-1.562l.635-.781.114-.286a8.731,8.731,0,0,1,.781-.75l1.182-.984Zm-7.075,30.467a1.037,1.037,0,0,1-.115-.458,17.441,17.441,0,0,1,4.249-5.112l1.353-1.3a5.308,5.308,0,0,1,.839-.6,13.653,13.653,0,0,1-.662,2.249l-.754,2.2c.088.781-1.156,2.973-1.3,3.176a4.492,4.492,0,0,1-2.2,1.906.525.525,0,0,1-.2.031,1,1,0,0,1-1.124-.838c0-.229-.23-.464-.172-.724Z" fill="#975d55"/></g></svg>