<svg xmlns="http://www.w3.org/2000/svg" width="125.856" height="14.791" viewBox="0 0 125.856 14.791"><g transform="translate(-481.901 -335.936)"><path d="M485.853,350.727c2.426,0,4.18-1.265,4.18-3.27,0-1.78-1.3-2.749-3.363-3.722-1.556-.729-2.9-1.453-2.9-2.635,0-1.129.974-1.91,2.359-1.91a5.363,5.363,0,0,1,3.139.994l.323-.552a5.951,5.951,0,0,0-3.389-1.077c-2.291,0-3.869,1.145-3.869,2.957,0,1.785,1.64,2.712,3.395,3.55,1.812.844,2.853,1.614,2.853,2.8,0,1.328-1.057,2.223-2.713,2.223a7.074,7.074,0,0,1-3.654-1.228l-.313.546A7.529,7.529,0,0,0,485.853,350.727Z" fill="#975d55"/><path d="M496.706,335.936l-1.39,2.025.484.031,2.239-1.931Zm4.2,14.593-4.514-11.8h-1.156l-4.493,11.8h.729l1.343-3.6h5.024l1.338,3.6Zm-5.566-10.34,2.3,6.175h-4.607Z" fill="#975d55"/><path d="M507.537,344.4c1.676-.3,2.8-1.369,2.8-2.785,0-1.807-1.432-2.879-3.967-2.879H502.6v11.8h3.655c3.035,0,4.6-1.057,4.6-3.192C510.853,345.724,509.614,344.6,507.537,344.4Zm-1.713-5.014c1.921,0,2.848.948,2.848,2.374a2.336,2.336,0,0,1-2.582,2.38h-1.88v-4.754Zm-1.614,10.5v-5.117h1.9c1.937,0,3.025.879,3.025,2.5,0,1.556-.927,2.618-2.91,2.618Z" fill="#975d55"/><path d="M521.7,350.529l-4.514-11.8h-1.156l-4.493,11.8h.729l1.344-3.6h5.024l1.338,3.6Zm-5.565-10.34,2.3,6.175h-4.608Z" fill="#975d55"/><path d="M526.967,350.529c3.91,0,6.18-2.1,6.18-5.909s-2.265-5.888-6.091-5.888h-3.665v11.8Zm-1.952-11.157h2.1c2.734,0,4.29,1.838,4.29,5.295,0,3.352-1.525,5.222-4.378,5.222h-2.015Z" fill="#975d55"/><path d="M540.278,350.727c3.415,0,5.67-2.51,5.67-6.086s-2.281-6.1-5.67-6.1-5.643,2.556-5.643,6.138C534.635,348.228,536.884,350.727,540.278,350.727Zm.073-.651c-2.967,0-3.993-3.488-3.993-5.769,0-3.066,1.473-5.117,3.852-5.117,2.978,0,4.009,3.488,4.009,5.8C544.219,348.046,542.751,350.076,540.351,350.076Z" fill="#975d55"/><path d="M556.089,346.374v-.541H551.6v.541Z" fill="#975d55"/><path d="M564.84,350.529v-11.9h-.411L561.4,340.4l.255.5,1.567-.917v10.543Z" fill="#975d55"/><path d="M575.554,347.546c-.015-1.593-1.166-2.692-3.155-3.535,1.489-.516,2.629-1.427,2.629-2.682,0-1.645-1.452-2.785-3.644-2.785-2.291,0-3.78,1.182-3.78,2.957,0,1.338.844,2.275,2.484,3.062-1.781.505-2.926,1.681-2.926,3.144,0,1.812,1.655,3.02,4.17,3.02C573.867,350.727,575.57,349.519,575.554,347.546Zm-6.393-6.4a2.071,2.071,0,0,1,2.28-2.015,2.022,2.022,0,0,1,2.135,2.145,2.872,2.872,0,0,1-1.744,2.494C569.957,342.949,569.161,342.256,569.161,341.142Zm2.181,9a2.469,2.469,0,0,1-2.723-2.437,3.248,3.248,0,0,1,2.052-2.889c.005.005.015.005.031.015,2,.844,3.3,1.677,3.3,3.041C574,349.285,572.93,350.144,571.342,350.144Z" fill="#975d55"/><path d="M585.2,344.255h-5.862v-5.523h-1.624v11.8h1.624v-5.638H585.2v5.638h1.62v-11.8H585.2Z" fill="#975d55"/><path d="M593.315,344.235c1.812-.328,2.952-1.437,2.952-2.88,0-1.7-1.38-2.811-3.525-2.811a5.813,5.813,0,0,0-3.405,1.088l.224.542a5.017,5.017,0,0,1,3.056-1.031,2.065,2.065,0,0,1,2.02,2.3c0,1.452-.88,2.525-3.222,2.629v.567c2.41-.031,3.712,1.1,3.712,2.879a2.539,2.539,0,0,1-2.786,2.619A5.332,5.332,0,0,1,589.2,349.1l-.255.526a5.658,5.658,0,0,0,3.368,1.1c2.567,0,4.41-1.271,4.41-3.353C596.725,345.51,595.382,344.495,593.315,344.235Z" fill="#975d55"/><path d="M603.061,350.727c2.838,0,4.7-2.484,4.7-6.092s-1.858-6.08-4.7-6.08c-2.8,0-4.633,2.473-4.633,6.08S600.265,350.727,603.061,350.727Zm0-.625c-1.838,0-2.884-2.2-2.884-5.461s1.046-5.456,2.884-5.456c1.859,0,2.942,2.186,2.942,5.456S604.92,350.1,603.061,350.1Z" fill="#975d55"/></g></svg>