<?xml version="1.0" standalone="no"?>
<!DOCTYPE svg PUBLIC "-//W3C//DTD SVG 20010904//EN"
 "http://www.w3.org/TR/2001/REC-SVG-20010904/DTD/svg10.dtd">
<svg version="1.0" xmlns="http://www.w3.org/2000/svg"
 width="99.000000pt" height="99.000000pt" viewBox="0 0 99.000000 99.000000"
 preserveAspectRatio="xMidYMid meet">
<metadata>
Created by potrace 1.14, written by Peter Selinger 2001-2017
</metadata>
<g transform="translate(0.000000,99.000000) scale(0.100000,-0.100000)"
fill="#000000" stroke="none">
<path d="M540 936 c-6 -8 -17 -13 -24 -10 -7 3 -19 -2 -26 -11 -13 -15 -15
-15 -30 6 -21 26 -40 18 -40 -19 0 -22 -2 -24 -12 -10 -7 8 -28 20 -45 26 -30
10 -33 9 -33 -9 0 -11 5 -29 10 -39 7 -13 7 -21 -1 -25 -6 -4 -13 3 -16 14 -8
31 -37 22 -41 -11 -3 -22 -8 -27 -25 -25 -15 1 -22 -4 -22 -15 0 -10 -6 -23
-13 -30 -10 -10 -15 -10 -23 2 -9 13 -10 13 -6 0 2 -8 -12 -27 -31 -42 -40
-32 -66 -38 -34 -8 27 26 28 46 2 53 -11 3 -20 1 -20 -4 0 -4 -7 -6 -15 -3
-17 7 -22 -31 -5 -41 16 -10 12 -19 -20 -37 -17 -10 -29 -21 -28 -25 2 -5 -7
-20 -20 -33 l-23 -25 42 -7 c23 -4 46 -5 50 -2 5 3 9 -25 9 -61 0 -47 4 -65
13 -63 6 1 23 -2 36 -6 13 -5 26 -4 30 0 3 5 12 9 19 10 43 3 43 4 16 29 -25
23 -38 29 -56 26 -14 -2 -8 15 12 37 12 12 32 22 45 22 14 0 29 8 35 20 13 24
8 36 -19 43 -16 4 -23 -2 -31 -29 -7 -19 -15 -34 -20 -34 -5 0 -22 -19 -39
-42 l-31 -42 0 52 c0 29 4 52 10 52 14 0 33 41 32 72 -1 32 41 68 80 68 18 0
20 2 8 10 -12 8 -11 10 6 10 17 0 20 -5 16 -25 -5 -27 10 -33 38 -15 10 6 20
4 31 -6 15 -13 18 -13 33 1 18 19 21 41 6 50 -6 4 -7 13 -1 24 15 27 71 17 68
-12 -3 -34 31 -34 46 0 9 21 18 27 36 25 23 -4 42 15 47 46 2 10 -1 10 -11 2
-10 -9 -15 -6 -20 10 -5 16 -1 26 14 36 21 15 28 34 12 34 -5 0 -14 -6 -21
-14z"/>
<path d="M680 939 c0 -6 -6 -9 -14 -6 -21 8 -30 -25 -11 -39 13 -9 7 -11 -29
-10 -25 1 -43 0 -41 -3 2 -2 -5 -21 -16 -43 -19 -37 -19 -39 -2 -38 34 4 41 0
47 -31 9 -48 27 -61 61 -43 53 27 148 -15 179 -80 23 -48 21 -60 -6 -42 -12 9
-26 16 -30 16 -14 0 -19 -41 -7 -56 10 -13 10 -17 -2 -24 -8 -5 -15 -18 -15
-30 -1 -15 5 -20 25 -20 15 0 32 5 39 12 7 7 12 8 13 2 0 -5 2 -26 4 -47 1
-21 12 -51 23 -67 12 -16 19 -36 16 -48 -3 -11 0 -23 6 -27 7 -5 11 -1 10 11
-5 42 -1 48 18 31 26 -23 29 -22 35 16 5 32 -9 74 -39 114 -15 21 -15 23 10
34 37 17 35 49 -4 49 -27 0 -29 2 -21 23 13 33 -1 51 -33 43 -20 -5 -26 -3
-28 11 -2 31 4 77 12 94 10 18 -3 44 -19 35 -6 -4 -8 -24 -4 -51 3 -25 2 -45
-3 -45 -5 0 -21 20 -36 45 l-27 44 21 15 c11 8 22 26 23 39 2 14 8 34 14 45
19 36 12 41 -39 22 -29 -11 -50 -14 -50 -8 0 6 -11 8 -25 4 -20 -5 -25 -3 -25
13 0 26 -10 51 -21 51 -5 0 -9 -5 -9 -11z m17 -65 c-3 -4 3 -14 15 -24 19 -15
24 -30 27 -77 1 -7 11 -13 24 -13 12 0 28 -10 36 -21 12 -20 11 -21 -4 -15
-10 3 -38 11 -64 17 -25 7 -56 22 -69 35 -13 13 -27 24 -32 24 -6 0 -1 9 10
20 11 11 20 26 20 34 0 14 14 23 34 25 5 1 7 -2 3 -5z"/>
<path d="M196 815 c-3 -9 0 -15 9 -15 8 0 15 7 15 15 0 8 -4 15 -9 15 -5 0
-11 -7 -15 -15z"/>
<path d="M465 659 c-19 -17 -35 -37 -35 -45 0 -20 -30 -17 -31 4 -1 9 -1 21 0
25 1 5 -3 6 -9 2 -15 -10 -12 -55 5 -61 10 -4 15 -20 15 -48 0 -44 14 -67 39
-65 11 0 12 2 4 6 -28 11 -4 103 26 103 29 0 80 39 87 66 13 52 -47 60 -101
13z m89 -7 c7 -11 -34 -48 -63 -57 -28 -9 -26 3 6 37 27 28 47 35 57 20z"/>
<path d="M537 563 c-4 -3 -7 -16 -7 -28 0 -23 -28 -55 -48 -55 -7 0 -12 -4
-12 -9 0 -4 12 -6 26 -3 32 6 27 -7 -28 -67 -52 -56 -49 -117 4 -89 55 28 126
258 80 258 -5 0 -12 -3 -15 -7z m-57 -202 c-21 -42 -40 -54 -40 -24 0 17 50
76 57 69 3 -2 -5 -22 -17 -45z"/>
<path d="M26 531 c-4 -5 1 -16 9 -23 30 -24 57 -53 65 -69 7 -13 2 -15 -36
-12 l-45 4 16 -31 c9 -17 22 -33 29 -36 8 -3 12 -14 9 -24 -3 -12 3 -23 15
-31 16 -10 18 -17 10 -32 -5 -10 -8 -21 -5 -23 11 -11 52 -12 66 -2 13 10 14
10 4 -1 -9 -11 -6 -22 14 -52 24 -36 27 -38 39 -22 8 11 13 13 14 6 0 -7 9
-17 20 -23 19 -10 20 -9 15 20 -4 22 -2 30 10 30 8 0 15 7 15 15 0 8 -6 15
-12 15 -7 0 -14 10 -14 23 -3 40 -10 60 -26 71 -11 8 -13 17 -7 28 20 36 -15
64 -42 32 -12 -14 -14 -14 -21 6 -4 12 -17 24 -28 27 -10 3 -22 14 -25 24 -4
11 -10 17 -14 15 -4 -3 -16 11 -27 31 -20 38 -38 51 -48 34z"/>
<path d="M832 363 c4 -21 -16 -62 -33 -66 -10 -3 -19 -13 -19 -22 0 -14 -6
-16 -29 -12 -38 8 -56 -12 -37 -39 13 -16 12 -21 0 -35 -8 -9 -14 -23 -12 -30
2 -10 -10 -15 -39 -17 -57 -4 -119 28 -137 71 -15 37 -56 47 -56 15 0 -10 -1
-21 -2 -25 -1 -5 7 -9 18 -11 25 -4 84 -35 84 -44 0 -15 -18 -17 -24 -3 -9 25
-38 18 -34 -7 2 -14 -2 -23 -10 -23 -7 0 -16 -5 -20 -10 -12 -17 -50 -17 -77
1 -14 9 -28 14 -31 11 -4 -3 -15 3 -26 13 -14 13 -30 17 -56 14 -21 -3 -47 -5
-60 -4 -15 0 -22 -5 -19 -13 5 -13 11 -13 40 -2 12 5 17 2 17 -9 0 -22 43 -48
76 -44 20 2 29 -2 29 -12 1 -18 23 -15 46 6 27 24 98 23 95 -2 -2 -24 21 -29
28 -6 5 14 13 18 33 14 23 -4 25 -2 20 17 -7 28 -2 27 31 -8 18 -20 41 -31 69
-35 l42 -6 -11 32 c-6 18 -15 39 -21 45 -6 9 -4 15 9 19 11 3 30 10 43 15 18
8 26 6 36 -8 9 -12 10 -22 3 -30 -14 -17 -2 -30 28 -30 22 0 25 3 21 23 -2 13
0 24 4 24 5 0 4 12 -1 26 -6 15 -6 23 0 19 10 -6 30 26 30 51 0 13 -6 15 -32
10 -30 -5 -31 -4 -14 9 13 10 24 11 37 5 15 -8 19 -4 30 27 10 30 9 38 -1 41
-8 3 -23 15 -35 28 -22 24 -36 31 -33 17z m-222 -233 c0 -5 -4 -10 -10 -10 -5
0 -10 5 -10 10 0 6 5 10 10 10 6 0 10 -4 10 -10z"/>
<path d="M930 279 c0 -15 7 -29 15 -33 19 -7 19 14 0 40 -14 18 -14 18 -15 -7z"/>
</g>
</svg>
